<?xml version="1.0" encoding="utf-8"?>
<svg viewBox="0 0 451.89 140.805" width="451.89px" height="140.805px" xmlns="http://www.w3.org/2000/svg">
  <path fill="#FD8500" opacity="1.000000" stroke="none" d="M 450.718 0 C 451.763 0 451.89 0.129 451.89 1.186 C 451.89 47.341 451.89 93.496 451.89 139.651 C 451.89 140.676 451.763 140.805 450.75 140.805 C 374.335 140.805 297.92 140.805 221.505 140.805 C 220.493 140.805 220.365 140.676 220.365 139.651 C 220.365 93.474 220.365 47.298 220.365 1.121 C 220.365 0.162 220.526 0 221.473 0"/>
  <path fill="#FFFFFF" opacity="1.000000" stroke="none" d="M 45.435 59.482 L 80.648 113.757 L 58.283 113.783 C 57.412 113.788 56.943 113.507 56.536 112.796 L 32.651 71.922 L 18.404 86.475 C 18.213 86.671 18.101 87.03 18.101 87.313 L 18.088 113.726 L 0 113.726 L 0 24.363 L 18.068 24.363 L 18.068 63.882 L 54.182 24.555 C 54.294 24.432 54.505 24.34 54.671 24.339 L 78.832 24.33 L 45.5 58.869 C 45.384 58.992 45.345 59.343 45.435 59.482 Z"/>
  <path fill="#FFFFFF" opacity="1.000000" stroke="none" d="M 175.29 112.737 L 151.02 48.961 L 169.453 48.951 L 184.876 94.731 L 199.964 48.944 L 217.805 48.932 L 192.289 118.672 C 191.099 122.104 189.816 125.5 188.102 128.709 C 187.195 130.407 186.136 132.008 184.838 133.464 C 183.256 135.237 181.416 136.628 179.298 137.649 C 177.4 138.564 175.365 139.088 173.304 139.511 C 170.139 140.16 166.926 140.135 163.732 139.99 C 161.471 139.886 159.227 139.425 156.977 139.108 L 155.269 125.609 C 156.98 125.804 158.629 126.024 160.284 126.17 C 161.411 126.27 162.553 126.355 163.679 126.293 C 166.702 126.124 169.429 125.172 171.409 122.759 C 172.745 121.13 173.772 119.286 174.549 117.316 C 174.83 116.603 175.026 115.854 175.345 115.16 C 175.729 114.322 175.612 113.562 175.29 112.737 Z"/>
  <path fill="#FFFFFF" opacity="1.000000" stroke="none" d="M 139.868 86.32 C 127.384 86.32 102.434 86.32 102.434 86.32 C 102.489 87.17 102.468 88.003 102.614 88.805 C 102.87 90.217 103.125 91.645 103.568 93.006 C 104.125 94.716 104.998 96.267 106.198 97.661 C 107.894 99.63 109.932 101.026 112.402 101.75 C 115.498 102.657 118.582 102.69 121.532 101.189 C 123.337 100.271 124.694 98.846 125.618 97.059 C 126.272 95.793 126.79 94.455 127.392 93.095 L 144.444 95.967 C 144.342 96.267 144.244 96.569 144.138 96.869 C 143.16 99.634 141.785 102.205 140.046 104.551 C 138.633 106.456 136.973 108.142 135.065 109.602 C 132.82 111.32 130.379 112.622 127.726 113.534 C 125.731 114.22 123.687 114.741 121.574 114.92 C 120.409 115.019 119.245 115.168 118.08 115.238 C 117.056 115.299 116.025 115.351 115.006 115.291 C 113.277 115.188 111.555 114.96 109.828 114.797 C 106.937 114.524 104.196 113.653 101.537 112.56 C 100.237 112.026 98.984 111.308 97.832 110.497 C 96.319 109.435 94.798 108.325 93.509 107.011 C 90.879 104.328 88.964 101.155 87.543 97.659 C 86.557 95.231 85.924 92.722 85.405 90.178 C 85.17 89.024 85.074 87.834 85.007 86.656 C 84.882 84.436 84.688 82.208 84.774 79.992 C 84.866 77.658 85.221 75.33 85.518 73.006 C 85.866 70.266 86.679 67.639 87.731 65.097 C 88.648 62.88 89.776 60.753 91.298 58.889 C 92.523 57.388 93.811 55.921 95.215 54.591 C 97.603 52.328 100.387 50.642 103.455 49.433 C 105.703 48.548 108.025 47.951 110.429 47.769 C 112.536 47.609 114.661 47.436 116.766 47.53 C 119.908 47.67 122.997 48.227 125.988 49.288 C 128.682 50.246 131.173 51.559 133.423 53.301 C 135.718 55.077 137.721 57.154 139.333 59.582 C 141.438 62.75 142.888 66.213 143.729 69.906 C 144.236 72.127 144.608 74.388 144.892 76.65 C 145.137 78.608 145.173 80.594 145.305 82.568 C 145.342 83.118 145.43 83.668 145.423 84.218 C 145.414 84.895 145.331 85.572 145.273 86.32 L 139.868 86.32 M 102.698 75.837 L 128.254 75.837 C 128.082 73.949 127.963 72.141 127.463 70.359 C 126.602 67.286 125.048 64.717 122.418 62.853 C 119.684 60.915 116.618 60.323 113.37 60.855 C 111.366 61.183 109.517 61.977 107.912 63.317 C 106.162 64.778 104.765 66.481 104.029 68.643 C 103.556 70.035 103.17 71.466 102.883 72.906 C 102.695 73.849 102.752 74.84 102.698 75.837 Z"/>
  <path fill="#000000" opacity="1.000000" stroke="none" d="M 398.31 113.735 C 393.072 113.735 382.554 113.735 382.554 113.735 L 382.554 24.384 L 399.63 24.384 C 399.63 24.384 399.63 45.582 399.63 56.266 C 399.705 56.342 399.78 56.317 399.857 56.292 C 402.45 53.441 405.398 51.057 408.948 49.488 C 412.504 47.917 416.233 47.327 420.106 47.583 C 423.936 47.836 427.607 48.671 430.995 50.546 C 436.501 53.592 440.4 58.067 442.821 63.855 C 443.964 66.586 444.703 69.435 445.123 72.356 C 445.353 73.956 445.462 75.577 445.537 77.194 C 445.632 79.232 445.743 81.278 445.658 83.314 C 445.426 88.918 444.596 94.422 442.153 99.542 C 438.911 106.34 433.922 111.327 426.739 113.901 C 422.878 115.284 418.889 115.576 414.86 114.849 C 408.44 113.691 403.272 110.432 399.245 105.326 C 399.031 105.056 398.823 104.781 398.611 104.509 C 398.587 104.479 398.549 104.459 398.425 104.363 C 398.425 104.363 398.425 110.481 398.395 113.577 C 398.339 113.673 398.31 113.735 398.31 113.735 M 425.726 68.037 C 423.707 64.274 420.786 61.683 416.463 60.919 C 414.418 60.556 412.378 60.529 410.358 61.077 C 406.29 62.18 403.483 64.781 401.662 68.505 C 400.311 71.268 399.765 74.237 399.614 77.28 C 399.418 81.229 399.5 85.162 400.378 89.048 C 401.193 92.657 402.807 95.811 405.582 98.292 C 408.615 101.005 412.183 102.2 416.218 101.55 C 421.054 100.771 424.215 97.799 426.179 93.442 C 427.548 90.404 427.903 87.146 428.1 83.871 C 428.297 80.584 428.11 77.311 427.565 74.063 C 427.221 72.01 426.705 70.002 425.726 68.037 Z"/>
  <path fill="#000000" opacity="1.000000" stroke="none" d="M 230.616 113.627 C 230.609 113.369 230.597 113.11 230.597 112.852 C 230.596 83.651 230.596 54.451 230.596 25.251 C 230.596 24.975 230.596 24.699 230.596 24.388 C 236.318 24.388 241.982 24.388 247.723 24.388 C 247.723 35.26 247.723 46.135 247.723 57.01 C 247.771 57.032 247.818 57.054 247.866 57.076 C 248.072 56.846 248.278 56.616 248.486 56.387 C 251.734 52.815 255.527 50.039 260.198 48.647 C 261.705 48.196 263.3 48.035 264.855 47.75 C 267.197 47.321 269.529 47.529 271.857 47.868 C 275.466 48.392 278.774 49.674 281.77 51.767 C 284.419 53.617 286.215 56.129 287.455 59.058 C 288.586 61.732 289.081 64.542 289.226 67.442 C 289.986 82.689 289.389 97.944 289.582 113.194 C 289.584 113.361 289.582 113.529 289.582 113.725 C 283.853 113.725 278.188 113.725 272.422 113.725 C 272.422 113.46 272.422 113.191 272.422 112.921 C 272.411 100.521 272.425 88.121 272.368 75.721 C 272.357 73.352 272.122 70.979 271.881 68.619 C 271.572 65.608 270.064 63.286 267.367 61.905 C 266.227 61.322 264.92 60.901 263.651 60.768 C 260.142 60.4 256.781 60.925 253.782 62.985 C 251.136 64.802 249.61 67.377 248.868 70.409 C 248.416 72.257 248.143 74.163 247.959 76.06 C 247.777 77.937 247.758 79.836 247.755 81.725 C 247.737 92.119 247.746 102.515 247.746 112.909 C 247.746 113.165 247.746 113.421 247.746 113.753 C 242.077 113.753 236.458 113.753 230.766 113.721 C 230.675 113.66 230.649 113.639 230.616 113.627 Z"/>
  <path fill="#000000" opacity="1.000000" stroke="none" d="M 365.477 49.026 L 365.477 113.717 L 349.568 113.717 L 349.568 104.197 C 348.698 105.22 347.935 106.196 347.09 107.095 C 343.904 110.485 340.02 112.75 335.596 114.133 C 332.332 115.153 328.967 115.463 325.604 115.143 C 320.611 114.667 316.077 112.951 312.403 109.375 C 310.052 107.088 308.574 104.287 307.829 101.125 C 307.383 99.239 307.06 97.312 306.846 95.386 C 306.643 93.563 306.587 91.715 306.584 89.879 L 306.573 49.021 L 323.731 49.021 L 323.799 87.541 C 323.814 89.902 324.084 92.282 324.477 94.613 C 325.143 98.571 328.072 101.338 332.2 101.965 C 337.737 102.807 342.238 100.916 345.646 96.491 C 346.822 94.964 347.442 93.187 347.587 91.248 C 347.738 89.23 347.949 87.216 348.091 85.198 L 348.357 49.026 L 365.477 49.026 Z"/>
  <path fill="#BE6400" opacity="1.000000" stroke="none" d="M 399.821 56.29 C 399.78 56.317 399.705 56.342 399.635 56.325 C 399.69 56.285 399.737 56.286 399.821 56.29 Z"/>
  <path fill="#1A0E00" opacity="1.000000" stroke="none" d="M 230.61 113.66 C 230.649 113.639 230.675 113.66 230.707 113.713 C 230.681 113.721 230.643 113.707 230.61 113.66 Z"/>
  <path fill="#2C1700" opacity="1.000000" stroke="none" d="M 398.344 113.737 C 398.321 113.702 398.339 113.673 398.388 113.637 C 398.4 113.663 398.389 113.702 398.344 113.737 Z"/>
  <path fill="#FD8500" opacity="1.000000" stroke="none" d="M 425.745 68.081 C 426.705 70.002 427.221 72.01 427.565 74.063 C 428.11 77.311 428.297 80.584 428.1 83.871 C 427.903 87.146 427.548 90.404 426.179 93.442 C 424.215 97.799 421.054 100.771 416.218 101.55 C 412.183 102.2 408.615 101.005 405.582 98.292 C 402.807 95.811 401.193 92.657 400.378 89.048 C 399.5 85.162 399.418 81.229 399.614 77.28 C 399.765 74.237 400.311 71.268 401.662 68.505 C 403.483 64.781 406.29 62.18 410.358 61.077 C 412.378 60.529 414.418 60.556 416.463 60.919 C 420.786 61.683 423.707 64.274 425.745 68.081 Z"/>
</svg>
