<?xml version="1.0" encoding="utf-8"?>
<svg viewBox="0 0 285.655 101.94" xmlns="http://www.w3.org/2000/svg">
  <g transform="matrix(1, 0, 0, 1, 19.484497483242762, 26.704403489524083)">
    <g>
        <path fill="#FFFFFF" stroke="#231F20" stroke-miterlimit="10" d="M 0 51.539 L 0 0 L 6.82 0 L 6.82 25.559 L 32.415 0 L 41.661 0 L 20.04 20.883 L 42.61 51.539 L 33.61 51.539 L 15.258 25.453 L 6.82 33.68 L 6.82 51.539 L 0 51.539 L 0 51.539 Z"/>
        <path fill="#FFFFFF" stroke="#231F20" stroke-miterlimit="10" d="M 73.055 39.516 L 79.594 40.325 C 78.562 44.145 76.653 47.11 73.864 49.22 C 71.074 51.329 67.512 52.384 63.176 52.384 C 57.715 52.384 53.385 50.702 50.186 47.339 C 46.987 43.976 45.387 39.259 45.387 33.189 C 45.387 26.908 47.004 22.033 50.239 18.564 C 53.474 15.095 57.669 13.361 62.825 13.361 C 67.817 13.361 71.895 15.06 75.059 18.459 C 78.223 21.858 79.805 26.639 79.805 32.803 C 79.805 33.178 79.793 33.741 79.77 34.491 L 51.926 34.491 C 52.16 38.593 53.32 41.733 55.406 43.913 C 57.492 46.093 60.094 47.183 63.211 47.183 C 65.531 47.183 67.512 46.574 69.152 45.355 C 70.793 44.133 72.094 42.188 73.055 39.516 Z M 52.278 29.285 L 73.126 29.285 C 72.845 26.144 72.048 23.789 70.735 22.219 C 68.719 19.781 66.106 18.563 62.895 18.563 C 59.989 18.563 57.545 19.536 55.565 21.481 C 53.584 23.426 52.489 26.027 52.278 29.285 Z"/>
        <path fill="#FFFFFF" stroke="#231F20" stroke-miterlimit="10" d="M 87.258 65.918 L 86.555 59.977 C 87.938 60.352 89.144 60.54 90.176 60.54 C 91.582 60.54 92.707 60.306 93.551 59.837 C 94.395 59.368 95.086 58.712 95.625 57.868 C 96.023 57.235 96.667 55.665 97.559 53.157 C 97.676 52.805 97.863 52.29 98.122 51.61 L 83.954 14.203 L 90.774 14.203 L 98.544 35.824 C 99.551 38.566 100.454 41.449 101.251 44.472 C 101.977 41.566 102.845 38.73 103.853 35.964 L 111.833 14.202 L 118.161 14.202 L 103.957 52.172 C 102.433 56.274 101.25 59.098 100.406 60.645 C 99.281 62.731 97.992 64.26 96.539 65.233 C 95.085 66.206 93.351 66.692 91.336 66.692 C 90.118 66.691 88.758 66.434 87.258 65.918 Z"/>
    </g>
    <g>
        <path fill="#FF8800" stroke="#231F20" stroke-miterlimit="10" d="M 123.323 51.539 L 123.323 0 L 130.143 0 L 130.143 21.164 L 156.932 21.164 L 156.932 0 L 163.752 0 L 163.752 51.539 L 156.932 51.539 L 156.932 27.246 L 130.143 27.246 L 130.143 51.539 L 123.323 51.539 Z"/>
        <path fill="#FF8800" stroke="#231F20" stroke-miterlimit="10" d="M 198.769 51.539 L 198.769 46.055 C 195.863 50.274 191.914 52.383 186.921 52.383 C 184.718 52.383 182.661 51.961 180.751 51.117 C 178.841 50.273 177.423 49.213 176.497 47.935 C 175.571 46.657 174.921 45.093 174.546 43.242 C 174.288 42 174.159 40.031 174.159 37.336 L 174.159 14.203 L 180.487 14.203 L 180.487 34.91 C 180.487 38.215 180.616 40.441 180.874 41.59 C 181.272 43.254 182.116 44.561 183.405 45.51 C 184.694 46.459 186.288 46.934 188.186 46.934 C 190.084 46.934 191.866 46.448 193.53 45.475 C 195.194 44.502 196.372 43.178 197.063 41.502 C 197.754 39.826 198.1 37.395 198.1 34.207 L 198.1 14.203 L 204.428 14.203 L 204.428 51.539 L 198.769 51.539 Z"/>
        <path fill="#FF8800" stroke="#231F20" stroke-miterlimit="10" d="M 220.179 51.54 L 214.308 51.539 L 214.308 0 L 220.636 0 L 220.636 18.387 C 223.308 15.035 226.718 13.36 230.866 13.36 C 233.163 13.36 235.337 13.823 237.387 14.749 C 239.437 15.675 241.125 16.976 242.45 18.651 C 243.775 20.326 244.811 22.348 245.561 24.715 C 246.311 27.082 246.686 29.613 246.686 32.309 C 246.686 38.707 245.104 43.653 241.94 47.145 C 238.776 50.637 234.979 52.383 230.549 52.383 C 226.143 52.383 222.686 50.543 220.178 46.863 L 220.178 51.539 L 220.179 51.539 Z M 220.108 32.59 C 220.108 37.067 220.717 40.301 221.936 42.293 C 223.928 45.551 226.624 47.18 230.022 47.18 C 232.788 47.18 235.178 45.979 237.194 43.576 C 239.21 41.173 240.217 37.594 240.217 32.836 C 240.217 27.961 239.25 24.363 237.317 22.043 C 235.384 19.723 233.046 18.563 230.303 18.563 C 227.537 18.563 225.147 19.764 223.131 22.167 C 221.115 24.57 220.108 28.043 220.108 32.59 Z"/>
    </g>
    <g>
      <g style="" transform="matrix(0.495482, 0, 0, 0.495482, -6.769178, 20.574606)">
        <g stroke-width="2.00" fill="none" stroke-linecap="butt" transform="matrix(0.147721, 0, 0, 0.147721, -13.358498, -8.941003)" style="">
          <path stroke="#4b111e" vector-effect="non-scaling-stroke" d=" M 97.96 343.00 Q 105.45 344.15 105.46 351.75 Q 105.50 420.50 105.71 489.25 Q 105.73 496.98 113.00 496.99 Q 146.37 497.04 179.75 496.96"/>
          <path stroke="#420d1b" vector-effect="non-scaling-stroke" d=" M 179.75 496.96 Q 194.70 497.03 209.68 496.99 C 215.93 496.98 220.44 496.18 220.45 488.99 Q 220.55 439.92 220.49 390.79 Q 220.48 390.27 219.97 390.28 L 181.25 390.29"/>
          <path stroke="#4b111e" vector-effect="non-scaling-stroke" d=" M 181.25 390.29 Q 170.52 390.44 159.82 390.02 C 150.93 389.67 143.84 385.81 140.67 377.40 Q 139.22 373.53 139.23 364.93 Q 139.29 325.60 139.22 286.26 C 139.17 258.39 161.52 262.64 180.75 262.46"/>
          <path stroke="#420d1b" vector-effect="non-scaling-stroke" d=" M 180.75 262.46 L 220.02 262.49 A 0.33 0.32 -89.1 0 0 220.34 262.17 Q 220.99 245.00 219.98 227.86 C 218.60 204.23 207.38 189.81 191.69 171.05 Q 180.84 158.09 180.95 141.77 Q 181.02 132.01 180.91 128.22"/>
          <path stroke="#7c672f" vector-effect="non-scaling-stroke" d=" M 180.91 128.22 L 180.97 62.73 Q 180.97 62.25 180.49 62.25 L 145.63 62.24 Q 145.04 62.24 145.04 62.83 L 145.04 127.75"/>
          <path stroke="#4b111e" vector-effect="non-scaling-stroke" d=" M 145.04 127.75 C 145.36 144.35 145.47 156.43 135.55 169.05 Q 127.12 179.77 118.94 190.69 Q 105.63 208.45 105.56 232.75 Q 105.46 273.50 105.52 314.26 Q 105.54 321.99 98.00 323.29"/>
          <path stroke="#7c672f" vector-effect="non-scaling-stroke" d=" M 181.00 15.43 A 0.43 0.43 0.0 0 0 180.57 15.00 L 145.43 15.00 A 0.43 0.43 0.0 0 0 145.00 15.43 L 145.00 21.83 A 0.43 0.43 0.0 0 0 145.43 22.26 L 180.57 22.26 A 0.43 0.43 0.0 0 0 181.00 21.83 L 181.00 15.43"/>
          <path stroke="#775305" vector-effect="non-scaling-stroke" d=" M 185.00 37.68 A 0.43 0.43 0.0 0 0 184.57 37.25 L 141.19 37.25 A 0.43 0.43 0.0 0 0 140.76 37.68 L 140.76 46.82 A 0.43 0.43 0.0 0 0 141.19 47.25 L 184.57 47.25 A 0.43 0.43 0.0 0 0 185.00 46.82 L 185.00 37.68"/>
          <path stroke="#596c6a" vector-effect="non-scaling-stroke" d=" M 154.26 369.87 C 154.26 373.33 156.38 374.92 159.75 374.94 Q 189.95 375.11 220.00 375.27 A 0.51 0.50 -90.0 0 0 220.50 374.76 L 220.50 277.98 A 0.47 0.46 90.0 0 0 220.04 277.51 Q 190.12 277.46 160.32 277.54 C 155.74 277.55 154.25 279.77 154.25 284.21 Q 154.25 327.05 154.26 369.87"/>
          <path stroke="#be744a" vector-effect="non-scaling-stroke" d=" M 180.91 128.22 L 163.25 128.04"/>
          <path stroke="#c7784d" vector-effect="non-scaling-stroke" d=" M 163.25 128.04 L 145.04 127.75"/>
          <path stroke="#8d1e38" vector-effect="non-scaling-stroke" d=" M 163.25 128.04 Q 162.73 151.55 163.15 175.06 C 163.28 182.16 166.82 187.47 170.65 194.38 C 182.66 216.02 181.49 236.87 180.75 262.46"/>
          <path stroke="#8d1e38" vector-effect="non-scaling-stroke" d=" M 181.25 390.29 C 181.69 423.68 181.00 457.31 181.00 490.75 Q 181.00 492.12 179.75 496.96"/>
          <path stroke="#4b111e" vector-effect="non-scaling-stroke" d=" M 315.04 288.25 Q 313.95 295.72 306.68 295.71 Q 294.73 295.68 282.72 295.79 Q 282.18 295.80 282.16 296.33 C 280.54 331.93 300.73 357.18 333.59 368.48 C 338.80 370.28 345.25 369.46 350.78 369.59"/>
          <path stroke="#420d1b" vector-effect="non-scaling-stroke" d=" M 350.78 369.59 C 379.47 361.62 402.27 340.42 405.89 309.91 C 406.38 305.83 406.17 300.84 406.47 296.26 A 0.46 0.46 0.0 0 0 406.01 295.76 L 366.50 295.79"/>
          <path stroke="#4b111e" vector-effect="non-scaling-stroke" d=" M 366.50 295.79 Q 355.12 295.72 343.75 295.68 Q 336.10 295.65 334.96 288.25"/>
          <path stroke="#73767b" vector-effect="non-scaling-stroke" d=" M 334.96 288.25 C 335.67 282.24 339.47 280.75 345.21 280.76 Q 374.82 280.78 404.54 280.73 Q 405.08 280.73 405.00 280.20 Q 401.15 254.87 392.50 230.76 Q 392.31 230.25 391.77 230.25 L 296.52 230.25 Q 296.12 230.25 295.98 230.63 Q 287.25 254.76 283.42 280.12 Q 283.33 280.68 283.90 280.69 Q 295.29 280.90 306.48 280.70 Q 313.97 280.57 315.04 288.25"/>
          <path stroke="#be8799" vector-effect="non-scaling-stroke" d=" M 334.96 288.25 L 315.04 288.25"/>
          <path stroke="#8d1e38" vector-effect="non-scaling-stroke" d=" M 366.50 295.79 C 367.94 315.75 364.94 333.38 357.75 352.15 Q 354.44 360.79 350.78 369.59"/>
          <path stroke="#73767b" vector-effect="non-scaling-stroke" d=" M 324.30 496.98 L 364.42 497.01 A 0.22 0.21 -30.0 0 0 364.53 496.61 Q 359.11 493.53 353.77 490.34 C 350.24 488.24 343.48 488.94 339.40 488.95 C 335.09 488.96 327.80 494.28 324.16 496.52 Q 323.41 496.98 324.30 496.98"/>
        </g>
        <path fill="#000000" d="M 7.848 -8.941 L 13.61 -8.941 C 15.692 -8.586 15.582 -7.072 15.601 -5.391 C 15.601 -5.342 15.619 -5.301 15.657 -5.267 C 16.489 -4.526 16.187 -2.459 16.183 -1.412 C 16.181 -0.84 16.048 -0.48 15.651 -0.112 C 15.614 -0.077 15.595 -0.035 15.595 0.015 C 15.594 3.897 15.594 7.78 15.596 11.663 C 15.598 12.892 15.74 13.683 16.446 14.582 C 17.684 16.155 19.201 17.928 20.016 19.563 C 20.955 21.445 21.424 23.54 21.425 25.847 C 21.431 37.934 21.432 50.021 21.428 62.108 C 21.428 63.309 21.35 64.134 21.194 64.583 C 20.771 65.793 19.813 66.496 18.319 66.692 L 3.104 66.692 C 1.611 66.505 0.649 65.786 0.22 64.534 C 0.079 64.123 0.009 63.485 0.009 62.62 C 0.011 56.099 0.008 49.578 0 43.057 C -0.001 42.294 0.37 41.85 1.112 41.727 C 1.85 41.841 2.219 42.271 2.22 43.02 C 2.224 49.79 2.236 56.561 2.257 63.332 C 2.259 64.093 2.618 64.474 3.334 64.475 C 6.62 64.48 9.907 64.478 13.194 64.471 C 14.667 64.477 16.14 64.479 17.616 64.475 C 18.539 64.473 19.205 64.355 19.207 63.293 C 19.216 58.461 19.219 53.625 19.213 48.787 C 19.212 48.736 19.186 48.711 19.136 48.712 L 13.416 48.713 C 12.359 48.728 11.304 48.715 10.25 48.673 C 8.937 48.622 7.89 48.051 7.422 46.809 C 7.279 46.428 7.208 45.814 7.209 44.967 C 7.215 41.094 7.214 37.22 7.207 33.346 C 7.2 29.229 10.501 29.856 13.342 29.83 L 19.143 29.834 C 19.169 29.834 19.19 29.813 19.19 29.787 C 19.254 28.096 19.237 26.407 19.137 24.719 C 18.933 21.228 17.276 19.098 14.958 16.327 C 13.89 15.05 13.361 13.609 13.372 12.001 C 13.379 11.04 13.377 10.373 13.366 10 L 13.375 0.326 C 13.375 0.278 13.351 0.255 13.304 0.255 L 8.154 0.253 C 8.096 0.253 8.067 0.282 8.067 0.34 L 8.067 9.93 C 8.114 12.383 8.131 14.167 6.665 16.031 C 5.835 17.087 5.017 18.153 4.212 19.228 C 2.901 20.977 2.242 23.048 2.235 25.441 C 2.225 29.454 2.223 33.468 2.229 37.482 C 2.231 38.243 1.861 38.688 1.118 38.816 C 0.176 38.665 0.013 38.076 0.012 37.181 C 0.009 33.18 0.009 29.181 0.012 25.183 C 0.014 22.936 0.603 20.834 1.78 18.875 C 2.535 17.619 3.808 16.099 4.839 14.752 C 5.451 13.951 5.839 13.18 5.841 12.248 C 5.848 8.169 5.848 4.09 5.842 0.011 C 5.842 -0.04 5.824 -0.083 5.786 -0.118 C 5.421 -0.452 5.235 -0.848 5.228 -1.304 C 5.206 -2.772 4.928 -4.489 5.791 -5.328 C 5.826 -5.362 5.844 -5.404 5.844 -5.453 C 5.854 -7.124 5.777 -8.643 7.848 -8.941 Z M 13.379 -6.662 C 13.379 -6.697 13.351 -6.725 13.316 -6.725 L 8.125 -6.725 C 8.089 -6.725 8.061 -6.697 8.061 -6.662 L 8.061 -5.716 C 8.061 -5.681 8.089 -5.653 8.125 -5.653 L 13.316 -5.653 C 13.351 -5.653 13.379 -5.681 13.379 -5.716 L 13.379 -6.662 Z M 13.97 -3.375 C 13.97 -3.41 13.941 -3.438 13.906 -3.438 L 7.498 -3.438 C 7.463 -3.438 7.435 -3.41 7.435 -3.375 L 7.435 -2.025 C 7.435 -1.99 7.463 -1.961 7.498 -1.961 L 13.906 -1.961 C 13.941 -1.961 13.97 -1.99 13.97 -2.025 L 13.97 -3.375 Z M 9.429 45.697 C 9.429 46.208 9.742 46.443 10.24 46.446 C 13.214 46.462 16.181 46.479 19.14 46.494 C 19.181 46.494 19.214 46.461 19.214 46.419 L 19.214 32.123 C 19.214 32.084 19.184 32.053 19.146 32.053 C 16.2 32.048 13.259 32.05 10.324 32.058 C 9.648 32.059 9.428 32.387 9.428 33.043 C 9.428 37.262 9.428 41.48 9.429 45.697 Z" style=""/>
        <rect fill="#f7ce5e" x="8.061" y="-6.725" width="5.318" height="1.072" rx="0.43" style=""/>
        <rect fill="#eda60a" x="7.435" y="-3.438" width="6.535" height="1.477" rx="0.43" style=""/>
        <path fill="#f7ce5e" d="M 13.366 10 L 10.757 9.973 L 8.067 9.93 L 8.067 0.34 C 8.067 0.282 8.096 0.253 8.154 0.253 L 13.304 0.255 C 13.351 0.255 13.375 0.278 13.375 0.326 L 13.366 10 Z" style=""/>
        <path fill="#96223b" d="M 8.067 9.93 L 10.757 9.973 C 10.706 12.288 10.701 14.604 10.742 16.919 C 10.761 17.968 11.284 18.752 11.85 19.773 C 13.624 22.97 13.451 26.05 13.342 29.83 C 10.501 29.856 7.2 29.229 7.207 33.346 C 7.214 37.22 7.215 41.094 7.209 44.967 C 7.208 45.814 7.279 46.428 7.422 46.809 C 7.89 48.051 8.937 48.622 10.25 48.673 C 11.304 48.715 12.359 48.728 13.416 48.713 C 13.481 53.646 13.379 58.613 13.379 63.553 C 13.379 63.688 13.317 63.994 13.194 64.471 C 9.907 64.478 6.62 64.48 3.334 64.475 C 2.618 64.474 2.259 64.093 2.257 63.332 C 2.236 56.561 2.224 49.79 2.22 43.02 C 2.219 42.271 1.85 41.841 1.112 41.727 L 1.118 38.816 C 1.861 38.688 2.231 38.243 2.229 37.482 C 2.223 33.468 2.225 29.454 2.235 25.441 C 2.242 23.048 2.901 20.977 4.212 19.228 C 5.017 18.153 5.835 17.087 6.665 16.031 C 8.131 14.167 8.114 12.383 8.067 9.93 Z" style=""/>
        <path fill="#841935" d="M 10.757 9.973 L 13.366 10 C 13.377 10.373 13.379 11.04 13.372 12.001 C 13.361 13.609 13.89 15.05 14.958 16.327 C 17.276 19.098 18.933 21.228 19.137 24.719 C 19.237 26.407 19.254 28.096 19.19 29.787 C 19.19 29.813 19.169 29.834 19.143 29.834 L 13.342 29.83 C 13.451 26.05 13.624 22.97 11.85 19.773 C 11.284 18.752 10.761 17.968 10.742 16.919 C 10.701 14.604 10.706 12.288 10.757 9.973 Z" style=""/>
        <path fill="#000000" d="M 44.059 66.692 L 30.912 66.692 C 29.642 66.503 29.274 64.977 30.402 64.295 C 32.198 63.208 34.002 62.135 35.815 61.079 C 35.97 60.989 36.137 60.947 36.311 60.915 C 36.362 60.905 36.387 60.875 36.387 60.823 L 36.387 48.006 C 36.387 47.955 36.362 47.924 36.313 47.911 C 29.998 46.28 25.845 41.466 26.086 34.784 C 26.215 31.229 27.114 27.669 28.271 24.318 C 28.577 23.437 28.803 22.859 29.789 22.857 C 35.014 22.855 40.238 22.855 45.463 22.859 C 45.915 22.859 46.283 23.252 46.448 23.691 C 47.828 27.348 48.856 31.434 48.909 35.374 C 48.995 41.752 44.624 46.364 38.682 47.904 C 38.629 47.917 38.602 47.952 38.602 48.007 L 38.602 60.82 C 38.602 60.872 38.628 60.905 38.678 60.916 C 38.904 60.971 39.072 61.029 39.182 61.091 C 39.889 61.496 41.641 62.526 44.439 64.18 C 45.641 64.89 45.504 66.381 44.059 66.692 Z M 33.18 33.64 C 33.072 34.375 32.661 34.743 31.945 34.742 C 30.768 34.739 29.588 34.743 28.405 34.753 C 28.352 34.754 28.324 34.781 28.323 34.833 C 28.083 40.092 31.066 43.822 35.92 45.491 C 36.69 45.757 37.642 45.636 38.459 45.655 C 42.697 44.478 46.065 41.346 46.6 36.839 C 46.672 36.237 46.641 35.499 46.686 34.823 C 46.689 34.783 46.658 34.749 46.618 34.749 L 40.781 34.753 C 39.661 34.747 38.54 34.741 37.421 34.737 C 36.667 34.734 36.235 34.368 36.122 33.64 C 36.227 32.752 36.788 32.532 37.636 32.533 C 40.552 32.535 43.474 32.534 46.401 32.529 C 46.454 32.529 46.476 32.503 46.469 32.45 C 46.089 29.956 45.474 27.521 44.622 25.147 C 44.603 25.097 44.567 25.072 44.514 25.072 L 30.444 25.072 C 30.404 25.072 30.378 25.091 30.364 25.128 C 29.504 27.504 28.886 29.941 28.509 32.439 C 28.5 32.494 28.523 32.522 28.58 32.523 C 29.701 32.544 30.813 32.544 31.915 32.524 C 32.653 32.511 33.074 32.883 33.18 33.64 Z M 34.548 64.473 L 40.474 64.478 C 40.499 64.477 40.514 64.45 40.502 64.43 C 40.499 64.425 40.495 64.421 40.49 64.419 C 39.957 64.116 39.427 63.807 38.901 63.493 C 38.379 63.182 37.381 63.286 36.778 63.287 C 36.141 63.289 35.065 64.075 34.527 64.406 C 34.453 64.451 34.46 64.473 34.548 64.473 Z" style=""/>
        <path fill="#e5ebf6" d="M 36.122 33.64 L 33.18 33.64 C 33.074 32.883 32.653 32.511 31.915 32.524 C 30.813 32.544 29.701 32.544 28.58 32.523 C 28.523 32.522 28.5 32.494 28.509 32.439 C 28.886 29.941 29.504 27.504 30.364 25.128 C 30.378 25.091 30.404 25.072 30.444 25.072 L 44.514 25.072 C 44.567 25.072 44.603 25.097 44.622 25.147 C 45.474 27.521 46.089 29.956 46.469 32.45 C 46.476 32.503 46.454 32.529 46.401 32.529 C 43.474 32.534 40.552 32.535 37.636 32.533 C 36.788 32.532 36.227 32.752 36.122 33.64 Z" style=""/>
        <path fill="#b2d8d4" d="M 10.24 46.446 C 9.742 46.443 9.429 46.208 9.429 45.697 C 9.428 41.48 9.428 37.262 9.428 33.043 C 9.428 32.387 9.648 32.059 10.324 32.058 C 13.259 32.05 16.2 32.048 19.146 32.053 C 19.184 32.053 19.214 32.084 19.214 32.123 L 19.214 46.419 C 19.214 46.461 19.181 46.494 19.14 46.494 C 16.181 46.479 13.214 46.462 10.24 46.446 Z" style=""/>
        <path fill="#96223b" d="M 33.18 33.64 L 36.122 33.64 C 36.235 34.368 36.667 34.734 37.421 34.737 C 38.54 34.741 39.661 34.747 40.781 34.753 C 40.994 37.702 40.551 40.306 39.489 43.079 C 39.163 43.93 38.82 44.789 38.459 45.655 C 37.642 45.636 36.69 45.757 35.92 45.491 C 31.066 43.822 28.083 40.092 28.323 34.833 C 28.324 34.781 28.352 34.754 28.405 34.753 C 29.588 34.743 30.768 34.739 31.945 34.742 C 32.661 34.743 33.072 34.375 33.18 33.64 Z" style=""/>
        <path fill="#841935" d="M 40.781 34.753 L 46.618 34.749 C 46.658 34.749 46.689 34.783 46.686 34.823 C 46.641 35.499 46.672 36.237 46.6 36.839 C 46.065 41.346 42.697 44.478 38.459 45.655 C 38.82 44.789 39.163 43.93 39.489 43.079 C 40.551 40.306 40.994 37.702 40.781 34.753 Z" style=""/>
        <path fill="#841935" d="M 13.416 48.713 L 19.136 48.712 C 19.186 48.711 19.212 48.736 19.213 48.787 C 19.219 53.625 19.216 58.461 19.207 63.293 C 19.205 64.355 18.539 64.473 17.616 64.475 C 16.14 64.479 14.667 64.477 13.194 64.471 C 13.317 63.994 13.379 63.688 13.379 63.553 C 13.379 58.613 13.481 53.646 13.416 48.713 Z" style=""/>
        <path fill="#e5ebf6" d="M 34.548 64.473 C 34.46 64.473 34.453 64.451 34.527 64.406 C 35.065 64.075 36.141 63.289 36.778 63.287 C 37.381 63.286 38.379 63.182 38.901 63.493 C 39.427 63.807 39.957 64.116 40.49 64.419 C 40.512 64.43 40.511 64.46 40.49 64.473 C 40.485 64.476 40.48 64.478 40.474 64.478 L 34.548 64.473 Z" style=""/>
      </g>
      <g>
        <g stroke-width="2.00" fill="none" stroke-linecap="butt" transform="matrix(0.05072, 0, 0, 0.05072, 235.671911, 30.841908)" style="">
          <path stroke="#9e774b" vector-effect="non-scaling-stroke" d=" M 420.50 401.79 Q 421.11 395.45 426.01 393.85 Q 426.31 393.75 434.55 392.85 Q 450.66 391.07 466.80 389.37 Q 474.34 388.58 477.91 386.81 Q 488.58 381.52 488.57 367.75 Q 488.52 312.37 488.48 256.99 Q 488.48 256.43 487.92 256.46 Q 486.36 256.54 483.00 256.74 Q 348.88 264.88 214.76 273.04 C 209.70 273.35 206.01 272.59 204.96 267.25"/>
          <path stroke="#9e8655" vector-effect="non-scaling-stroke" d=" M 204.96 267.25 C 204.60 260.45 208.70 259.40 214.64 259.04 Q 351.17 250.74 487.53 242.45 A 0.41 0.41 0.0 0 0 487.91 242.00 C 483.63 194.33 463.83 151.88 426.42 121.34 C 395.68 96.24 356.94 81.36 317.73 76.47 Q 317.22 76.41 316.81 76.70 Q 279.46 102.84 242.12 128.90 C 237.62 132.04 233.97 133.15 230.04 128.75"/>
          <path stroke="#ffd273" vector-effect="non-scaling-stroke" d=" M 204.96 267.25 Q 200.61 267.37 196.25 267.33 C 190.90 267.28 185.06 268.45 179.29 268.25"/>
          <path stroke="#9e8655" vector-effect="non-scaling-stroke" d=" M 179.29 268.25 C 177.56 259.47 162.33 259.40 161.46 269.25"/>
          <path stroke="#ffd273" vector-effect="non-scaling-stroke" d=" M 161.46 269.25 L 132.21 271.56"/>
          <path stroke="#9e8655" vector-effect="non-scaling-stroke" d=" M 132.21 271.56 C 131.06 263.01 124.23 264.46 118.00 264.87 Q 80.04 267.37 41.98 269.40 Q 41.08 269.45 41.82 268.94 Q 64.41 253.01 100.44 227.93 C 107.03 223.34 112.18 224.17 119.63 226.10 C 144.02 232.43 181.13 220.41 177.90 189.20 C 177.17 182.08 176.87 177.58 180.85 172.57 C 184.26 168.28 190.23 166.38 186.50 159.29"/>
          <path stroke="#9e8655" vector-effect="non-scaling-stroke" d=" M 200.45 149.56 C 205.88 157.52 219.88 148.62 215.11 139.36"/>
          <path stroke="#9e774b" vector-effect="non-scaling-stroke" d=" M 405.81 403.31 C 404.58 394.20 391.40 395.21 390.71 405.00"/>
          <path stroke="#9e774b" vector-effect="non-scaling-stroke" d=" M 161.46 269.25 C 162.72 278.66 178.65 278.88 179.29 268.25"/>
          <path stroke="#9e774b" vector-effect="non-scaling-stroke" d=" M 132.21 271.56 C 131.51 276.51 128.48 278.15 123.58 278.49 Q 73.80 281.92 24.15 285.14 A 0.70 0.70 0.0 0 0 23.50 285.84 Q 23.49 347.35 23.51 408.72 Q 23.51 419.99 25.04 423.97 C 28.40 432.68 36.78 436.38 45.93 435.39 Q 160.43 423.02 274.93 410.64 C 286.12 409.43 288.75 404.25 294.37 395.56 C 307.69 374.97 336.89 373.30 353.16 391.78 C 358.29 397.60 362.18 400.45 369.77 400.33 C 374.27 400.25 376.86 402.11 377.79 406.50"/>
          <path stroke="#ffd273" vector-effect="non-scaling-stroke" d=" M 323.96 107.00 Q 313.95 109.20 308.46 117.75"/>
          <path stroke="#9e8655" vector-effect="non-scaling-stroke" d=" M 308.46 117.75 C 302.27 117.15 299.23 121.08 299.86 126.98 C 300.80 135.84 307.70 143.36 315.54 146.68 Q 332.35 153.79 349.07 145.57 C 357.45 141.45 363.42 132.24 362.66 122.79 C 361.50 108.44 345.49 99.82 332.40 99.79 C 327.40 99.77 324.28 101.90 323.96 107.00"/>
          <path stroke="#9e774b" vector-effect="non-scaling-stroke" d=" M 308.46 117.75 C 316.38 120.64 312.02 127.69 317.54 131.48 Q 328.49 138.99 340.97 133.87 C 346.68 131.53 351.76 126.11 346.79 120.18 C 343.17 115.87 337.61 114.55 331.91 113.97 C 327.42 113.52 324.55 111.79 323.96 107.00"/>
          <path stroke="#9e8655" vector-effect="non-scaling-stroke" d=" M 303.9598 184.6599 A 31.54 25.14 -0.2 0 0 272.3322 159.6302 A 31.54 25.14 -0.2 0 0 240.8802 184.8801 A 31.54 25.14 -0.2 0 0 272.5078 209.9098 A 31.54 25.14 -0.2 0 0 303.9598 184.6599"/>
          <path stroke="#9e8655" vector-effect="non-scaling-stroke" d=" M 429.89 192.39 A 37.50 29.50 0.0 0 0 392.39 162.89 A 37.50 29.50 0.0 0 0 354.89 192.39 A 37.50 29.50 0.0 0 0 392.39 221.89 A 37.50 29.50 0.0 0 0 429.89 192.39"/>
          <path stroke="#9e8655" vector-effect="non-scaling-stroke" d=" M 215.91 221.42 A 6.90 6.90 0.0 0 0 209.01 214.52 A 6.90 6.90 0.0 0 0 202.11 221.42 A 6.90 6.90 0.0 0 0 209.01 228.32 A 6.90 6.90 0.0 0 0 215.91 221.42"/>
          <path stroke="#9e774b" vector-effect="non-scaling-stroke" d=" M 289.8100 184.7596 A 17.40 10.97 -0.1 0 0 272.3909 173.8200 A 17.40 10.97 -0.1 0 0 255.0100 184.8204 A 17.40 10.97 -0.1 0 0 272.4291 195.7600 A 17.40 10.97 -0.1 0 0 289.8100 184.7596"/>
          <path stroke="#9e774b" vector-effect="non-scaling-stroke" d=" M 415.83 192.40 A 23.43 15.44 0.0 0 0 392.40 176.96 A 23.43 15.44 0.0 0 0 368.97 192.40 A 23.43 15.44 0.0 0 0 392.40 207.84 A 23.43 15.44 0.0 0 0 415.83 192.40"/>
          <path stroke="#9e774b" vector-effect="non-scaling-stroke" d=" M 453.09 312.00 A 29.90 29.90 0.0 0 0 423.19 282.10 A 29.90 29.90 0.0 0 0 393.29 312.00 A 29.90 29.90 0.0 0 0 423.19 341.90 A 29.90 29.90 0.0 0 0 453.09 312.00"/>
          <path stroke="#9e774b" vector-effect="non-scaling-stroke" d=" M 301.54 305.08 A 6.93 6.93 0.0 0 0 294.61 298.15 A 6.93 6.93 0.0 0 0 287.68 305.08 A 6.93 6.93 0.0 0 0 294.61 312.01 A 6.93 6.93 0.0 0 0 301.54 305.08"/>
          <path stroke="#ffb764" vector-effect="non-scaling-stroke" d=" M 115.06 328.18 Q 112.63 319.64 104.25 316.71"/>
          <path stroke="#9e774b" vector-effect="non-scaling-stroke" d=" M 104.25 316.71 C 104.75 311.22 101.43 307.83 95.94 308.19 C 65.81 310.16 61.99 352.12 90.28 359.71 C 106.68 364.11 122.38 352.34 123.48 335.70 C 123.83 330.41 120.19 327.38 115.06 328.18"/>
          <path stroke="#9e6b46" vector-effect="non-scaling-stroke" d=" M 104.25 316.71 C 102.85 321.34 99.94 321.87 95.66 322.61 C 87.84 323.97 83.02 331.02 85.52 338.68 C 89.85 351.97 108.41 348.70 109.63 335.08 Q 110.06 330.24 115.06 328.18"/>
          <path stroke="#9e774b" vector-effect="non-scaling-stroke" d=" M 243.50 345.59 A 33.90 33.90 0.0 0 0 209.60 311.69 A 33.90 33.90 0.0 0 0 175.70 345.59 A 33.90 33.90 0.0 0 0 209.60 379.49 A 33.90 33.90 0.0 0 0 243.50 345.59"/>
          <path stroke="#9e774b" vector-effect="non-scaling-stroke" d=" M 390.72 364.57 A 6.90 6.90 0.0 0 0 383.82 357.67 A 6.90 6.90 0.0 0 0 376.92 364.57 A 6.90 6.90 0.0 0 0 383.82 371.47 A 6.90 6.90 0.0 0 0 390.72 364.57"/>
          <path stroke="#9e774b" vector-effect="non-scaling-stroke" d=" M 119.58 385.79 A 6.95 6.95 0.0 0 0 112.63 378.84 A 6.95 6.95 0.0 0 0 105.68 385.79 A 6.95 6.95 0.0 0 0 112.63 392.74 A 6.95 6.95 0.0 0 0 119.58 385.79"/>
          <path stroke="#9e6b46" vector-effect="non-scaling-stroke" d=" M 439.07 311.97 A 15.90 15.90 0.0 0 0 423.17 296.07 A 15.90 15.90 0.0 0 0 407.27 311.97 A 15.90 15.90 0.0 0 0 423.17 327.87 A 15.90 15.90 0.0 0 0 439.07 311.97"/>
          <path stroke="#9e6b46" vector-effect="non-scaling-stroke" d=" M 229.56 345.60 A 19.92 19.92 0.0 0 0 209.64 325.68 A 19.92 19.92 0.0 0 0 189.72 345.60 A 19.92 19.92 0.0 0 0 209.64 365.52 A 19.92 19.92 0.0 0 0 229.56 345.60"/>
        </g>
        <path fill="#3d2b2d" d="M 257 51.221 C 257.02 51.006 257.113 50.872 257.279 50.818 C 257.289 50.815 257.434 50.798 257.712 50.768 C 258.257 50.707 258.802 50.648 259.348 50.591 C 259.603 50.564 259.791 50.521 259.911 50.461 C 260.273 50.282 260.453 49.96 260.452 49.494 C 260.451 47.622 260.449 45.749 260.448 43.877 C 260.448 43.857 260.438 43.849 260.419 43.849 C 260.366 43.852 260.283 43.857 260.17 43.864 C 255.635 44.139 251.1 44.415 246.565 44.691 C 246.308 44.707 246.121 44.668 246.067 44.397 C 246.049 44.052 246.257 43.999 246.559 43.98 C 251.175 43.7 255.789 43.42 260.4 43.139 C 260.411 43.138 260.42 43.128 260.419 43.116 C 260.202 40.699 259.197 38.545 257.3 36.997 C 255.741 35.723 253.776 34.968 251.787 34.721 C 251.77 34.719 251.755 34.722 251.741 34.732 C 250.478 35.617 249.215 36.499 247.952 37.38 C 247.724 37.539 247.539 37.595 247.339 37.372 C 247.213 37.113 247.326 36.969 247.545 36.815 C 248.862 35.893 250.181 34.973 251.5 34.054 C 251.552 34.018 251.63 34.007 251.736 34.019 C 255.522 34.464 259.149 36.57 260.509 40.28 C 260.972 41.54 261.169 42.881 261.169 44.248 C 261.169 45.905 261.158 47.562 261.137 49.219 C 261.131 49.653 261.1 49.961 261.045 50.142 C 260.835 50.835 260.278 51.201 259.57 51.28 C 258.88 51.358 258.189 51.432 257.497 51.504 C 257.249 51.529 257.083 51.435 257 51.221 Z" style=""/>
        <path fill="#ffe17d" d="M 246.067 44.397 C 245.921 44.401 245.773 44.402 245.626 44.401 C 245.354 44.399 245.059 44.458 244.765 44.448 C 244.678 44.003 243.905 43.999 243.861 44.498 L 242.378 44.616 C 242.319 44.182 241.973 44.256 241.657 44.277 C 240.373 44.361 239.088 44.438 237.801 44.506 C 237.771 44.508 237.768 44.5 237.793 44.483 C 238.557 43.944 239.548 43.251 240.766 42.402 C 241.1 42.17 241.362 42.212 241.74 42.31 C 242.977 42.631 244.859 42.022 244.695 40.438 C 244.658 40.077 244.643 39.849 244.845 39.595 C 245.018 39.377 245.32 39.281 245.131 38.921 L 245.838 38.427 C 246.115 38.832 246.824 38.38 246.582 37.91 L 247.339 37.372 C 247.539 37.595 247.724 37.539 247.952 37.38 C 249.215 36.499 250.478 35.617 251.741 34.732 C 251.755 34.722 251.77 34.719 251.787 34.721 C 253.776 34.968 255.741 35.723 257.3 36.997 C 259.197 38.545 260.202 40.699 260.419 43.116 C 260.42 43.128 260.411 43.138 260.4 43.139 C 255.789 43.42 251.175 43.7 246.559 43.98 C 246.257 43.999 246.049 44.052 246.067 44.397 Z M 252.103 36.269 C 251.765 36.343 251.503 36.525 251.317 36.814 C 251.003 36.784 250.849 36.983 250.881 37.283 C 250.929 37.732 251.278 38.113 251.676 38.281 C 252.245 38.523 252.812 38.503 253.377 38.226 C 253.802 38.017 254.105 37.549 254.066 37.07 C 254.007 36.342 253.196 35.905 252.531 35.903 C 252.278 35.902 252.12 36.011 252.103 36.269 Z M 251.089 40.208 C 251.087 39.504 250.368 38.935 249.485 38.938 C 248.601 38.942 247.887 39.515 247.889 40.219 C 247.892 40.923 248.61 41.491 249.493 41.489 C 250.377 41.486 251.091 40.912 251.089 40.208 Z M 257.476 40.6 C 257.476 39.774 256.625 39.103 255.574 39.103 C 254.524 39.103 253.672 39.774 253.672 40.6 C 253.672 41.426 254.524 42.096 255.574 42.096 C 256.625 42.096 257.476 41.426 257.476 40.6 Z M 246.623 42.072 C 246.623 41.879 246.467 41.723 246.273 41.723 C 246.079 41.723 245.923 41.879 245.923 42.072 C 245.923 42.266 246.079 42.422 246.273 42.422 C 246.467 42.422 246.623 42.266 246.623 42.072 Z" style=""/>
        <path fill="#3d2b2d" d="M 251.317 36.814 C 251.719 36.961 251.498 37.318 251.778 37.51 C 252.148 37.764 252.544 37.805 252.966 37.632 C 253.256 37.513 253.513 37.238 253.262 36.938 C 253.078 36.719 252.796 36.652 252.507 36.622 C 252.279 36.6 252.133 36.512 252.103 36.269 C 252.12 36.011 252.278 35.902 252.531 35.903 C 253.196 35.905 254.007 36.342 254.066 37.07 C 254.105 37.549 253.802 38.017 253.377 38.226 C 252.812 38.503 252.245 38.523 251.676 38.281 C 251.278 38.113 250.929 37.732 250.881 37.283 C 250.849 36.983 251.003 36.784 251.317 36.814 Z" style=""/>
        <path fill="#ffc369" d="M 252.103 36.269 C 252.133 36.512 252.279 36.6 252.507 36.622 C 252.796 36.652 253.078 36.719 253.262 36.938 C 253.513 37.238 253.256 37.513 252.966 37.632 C 252.544 37.805 252.148 37.764 251.778 37.51 C 251.498 37.318 251.719 36.961 251.317 36.814 C 251.503 36.525 251.765 36.343 252.103 36.269 Z" style=""/>
        <path fill="#3d2b2d" d="M 246.582 37.91 C 246.824 38.38 246.115 38.832 245.838 38.427 C 245.619 37.983 246.248 37.613 246.582 37.91 Z" style=""/>
        <path fill="#3d2b2d" d="M 245.131 38.921 C 245.32 39.281 245.018 39.377 244.845 39.595 C 244.643 39.849 244.658 40.077 244.695 40.438 C 244.859 42.022 242.977 42.631 241.74 42.31 C 241.362 42.212 241.1 42.17 240.766 42.402 C 239.548 43.251 238.557 43.944 237.793 44.483 C 237.768 44.5 237.771 44.508 237.801 44.506 C 239.088 44.438 240.373 44.361 241.657 44.277 C 241.973 44.256 242.319 44.182 242.378 44.616 C 242.342 44.867 242.188 44.95 241.94 44.967 C 240.257 45.083 238.576 45.195 236.897 45.304 C 236.879 45.305 236.864 45.321 236.864 45.34 C 236.864 47.42 236.864 49.497 236.864 51.572 C 236.864 51.954 236.89 52.211 236.942 52.346 C 237.112 52.788 237.537 52.975 238.002 52.925 C 241.874 52.507 245.745 52.088 249.616 51.67 C 250.184 51.608 250.318 51.346 250.602 50.905 C 251.278 49.86 252.759 49.776 253.584 50.713 C 253.845 51.009 254.042 51.152 254.427 51.147 C 254.655 51.143 254.787 51.237 254.833 51.46 C 254.811 51.759 254.615 51.852 254.333 51.84 C 253.725 51.814 253.387 51.567 252.996 51.137 C 252.548 50.644 251.745 50.621 251.281 51.123 C 251.132 51.285 251.022 51.559 250.898 51.711 C 250.587 52.088 250.157 52.306 249.611 52.365 C 245.9 52.769 242.189 53.17 238.478 53.57 C 237.985 53.623 237.65 53.633 237.475 53.602 C 236.894 53.497 236.382 53.045 236.21 52.472 C 236.165 52.321 236.142 52.09 236.142 51.778 C 236.141 49.504 236.142 47.229 236.145 44.955 C 236.145 44.758 236.24 44.71 236.407 44.592 C 237.675 43.701 238.945 42.814 240.217 41.929 C 240.632 41.641 240.936 41.491 241.407 41.521 C 241.657 41.537 241.97 41.665 242.231 41.69 C 242.824 41.748 243.886 41.484 243.974 40.742 C 243.978 40.707 243.968 40.574 243.944 40.346 C 243.884 39.761 244.137 39.172 244.633 38.847 C 244.819 38.725 245.001 38.74 245.131 38.921 Z" style=""/>
        <path fill="#3d2b2d" d="M 251.089 40.208 C 251.091 40.912 250.377 41.486 249.493 41.489 C 248.61 41.491 247.892 40.923 247.889 40.219 C 247.887 39.515 248.601 38.942 249.485 38.938 C 250.368 38.935 251.087 39.504 251.089 40.208 Z M 250.371 40.213 C 250.371 39.906 249.975 39.657 249.488 39.658 C 249 39.659 248.606 39.909 248.606 40.216 C 248.606 40.524 249.002 40.772 249.49 40.771 C 249.977 40.77 250.372 40.521 250.371 40.213 Z" style=""/>
        <path fill="#3d2b2d" d="M 257.476 40.6 C 257.476 41.426 256.625 42.096 255.574 42.096 C 254.524 42.096 253.672 41.426 253.672 40.6 C 253.672 39.774 254.524 39.103 255.574 39.103 C 256.625 39.103 257.476 39.774 257.476 40.6 Z M 256.763 40.601 C 256.763 40.168 256.23 39.817 255.574 39.817 C 254.918 39.817 254.386 40.168 254.386 40.601 C 254.386 41.033 254.918 41.383 255.574 41.383 C 256.23 41.383 256.763 41.033 256.763 40.601 Z" style=""/>
        <ellipse fill="#ffc369" transform="matrix(0.999998, -0.001745, 0.001745, 0.999998, 249.832647, 40.237489)" rx="0.876" ry="0.552" style=""/>
        <ellipse fill="#ffc369" cx="255.574" cy="40.601" rx="1.188" ry="0.783" style=""/>
        <circle fill="#3d2b2d" cx="246.273" cy="42.072" r="0.35" style=""/>
        <path fill="#ffc369" d="M 257 51.221 L 256.255 51.298 C 256.193 50.836 255.524 50.887 255.489 51.384 L 254.833 51.46 C 254.787 51.237 254.655 51.143 254.427 51.147 C 254.042 51.152 253.845 51.009 253.584 50.713 C 252.759 49.776 251.278 49.86 250.602 50.905 C 250.318 51.346 250.184 51.608 249.616 51.67 C 245.745 52.088 241.874 52.507 238.002 52.925 C 237.537 52.975 237.112 52.788 236.942 52.346 C 236.89 52.211 236.864 51.954 236.864 51.572 C 236.864 49.497 236.864 47.42 236.864 45.34 C 236.864 45.321 236.879 45.305 236.897 45.304 C 238.576 45.195 240.257 45.083 241.94 44.967 C 242.188 44.95 242.342 44.867 242.378 44.616 L 243.861 44.498 C 243.925 44.976 244.733 44.987 244.765 44.448 C 245.059 44.458 245.354 44.399 245.626 44.401 C 245.773 44.402 245.921 44.401 246.067 44.397 C 246.121 44.668 246.308 44.707 246.565 44.691 C 251.1 44.415 255.635 44.139 260.17 43.864 C 260.283 43.857 260.366 43.852 260.419 43.849 C 260.438 43.849 260.448 43.857 260.448 43.877 C 260.449 45.749 260.451 47.622 260.452 49.494 C 260.453 49.96 260.273 50.282 259.911 50.461 C 259.791 50.521 259.603 50.564 259.348 50.591 C 258.802 50.648 258.257 50.707 257.712 50.768 C 257.434 50.798 257.289 50.815 257.279 50.818 C 257.113 50.872 257.02 51.006 257 51.221 Z M 258.653 46.667 C 258.653 45.829 257.974 45.15 257.136 45.15 C 256.298 45.15 255.62 45.829 255.62 46.667 C 255.62 47.505 256.298 48.183 257.136 48.183 C 257.974 48.183 258.653 47.505 258.653 46.667 Z M 250.966 46.316 C 250.966 46.122 250.808 45.964 250.615 45.964 C 250.421 45.964 250.263 46.122 250.263 46.316 C 250.263 46.51 250.421 46.667 250.615 46.667 C 250.808 46.667 250.966 46.51 250.966 46.316 Z M 241.508 47.487 C 241.426 47.198 241.243 47.004 240.959 46.906 C 240.985 46.627 240.816 46.455 240.538 46.474 C 239.01 46.574 238.816 48.701 240.251 49.086 C 241.083 49.31 241.879 48.713 241.935 47.869 C 241.953 47.6 241.768 47.447 241.508 47.487 Z M 248.023 48.37 C 248.023 47.421 247.253 46.651 246.303 46.651 C 245.353 46.651 244.584 47.421 244.584 48.37 C 244.584 49.32 245.353 50.09 246.303 50.09 C 247.253 50.09 248.023 49.32 248.023 48.37 Z M 255.489 49.333 C 255.489 49.14 255.333 48.983 255.139 48.983 C 254.946 48.983 254.789 49.14 254.789 49.333 C 254.789 49.526 254.946 49.683 255.139 49.683 C 255.333 49.683 255.489 49.526 255.489 49.333 Z M 241.738 50.409 C 241.738 50.215 241.58 50.056 241.385 50.056 C 241.19 50.056 241.032 50.215 241.032 50.409 C 241.032 50.604 241.19 50.762 241.385 50.762 C 241.58 50.762 241.738 50.604 241.738 50.409 Z" style=""/>
        <path fill="#3d2b2d" d="M 244.765 44.448 C 244.733 44.987 243.925 44.976 243.861 44.498 C 243.905 43.999 244.678 44.003 244.765 44.448 Z" style=""/>
        <path fill="#3d2b2d" d="M 258.653 46.667 C 258.653 47.505 257.974 48.183 257.136 48.183 C 256.298 48.183 255.62 47.505 255.62 46.667 C 255.62 45.829 256.298 45.15 257.136 45.15 C 257.974 45.15 258.653 45.829 258.653 46.667 Z M 257.942 46.665 C 257.942 46.22 257.58 45.859 257.135 45.859 C 256.69 45.859 256.329 46.22 256.329 46.665 C 256.329 47.11 256.69 47.472 257.135 47.472 C 257.58 47.472 257.942 47.11 257.942 46.665 Z" style=""/>
        <circle fill="#ffaa5f" cx="257.135" cy="46.665" r="0.806" style=""/>
        <circle fill="#3d2b2d" cx="250.614" cy="46.316" r="0.351" style=""/>
        <path fill="#3d2b2d" d="M 240.959 46.906 C 240.888 47.14 240.741 47.168 240.524 47.205 C 240.127 47.274 239.883 47.631 240.01 48.02 C 240.23 48.694 241.171 48.528 241.233 47.837 C 241.247 47.674 241.339 47.557 241.508 47.487 C 241.768 47.447 241.953 47.6 241.935 47.869 C 241.879 48.713 241.083 49.31 240.251 49.086 C 238.816 48.701 239.01 46.574 240.538 46.474 C 240.816 46.455 240.985 46.627 240.959 46.906 Z" style=""/>
        <path fill="#3d2b2d" d="M 248.023 48.37 C 248.023 49.32 247.253 50.09 246.303 50.09 C 245.353 50.09 244.584 49.32 244.584 48.37 C 244.584 47.421 245.353 46.651 246.303 46.651 C 247.253 46.651 248.023 47.421 248.023 48.37 Z M 247.315 48.371 C 247.315 47.813 246.863 47.361 246.305 47.361 C 245.747 47.361 245.295 47.813 245.295 48.371 C 245.295 48.929 245.747 49.381 246.305 49.381 C 246.863 49.381 247.315 48.929 247.315 48.371 Z" style=""/>
        <path fill="#ffaa5f" d="M 240.959 46.906 C 241.243 47.004 241.426 47.198 241.508 47.487 C 241.339 47.557 241.247 47.674 241.233 47.837 C 241.171 48.528 240.23 48.694 240.01 48.02 C 239.883 47.631 240.127 47.274 240.524 47.205 C 240.741 47.168 240.888 47.14 240.959 46.906 Z" style=""/>
        <circle fill="#ffaa5f" cx="246.305" cy="48.371" r="1.01" style=""/>
        <circle fill="#3d2b2d" cx="255.139" cy="49.333" r="0.35" style=""/>
        <circle fill="#3d2b2d" cx="241.385" cy="50.409" r="0.353" style=""/>
        <path fill="#3d2b2d" d="M 256.255 51.298 C 256.241 51.793 255.616 51.845 255.489 51.384 C 255.524 50.887 256.193 50.836 256.255 51.298 Z" style=""/>
      </g>
    </g>
  </g>
</svg>
