<?xml version="1.0" encoding="utf-8"?>
<svg viewBox="0 0 100 100" xmlns="http://www.w3.org/2000/svg">
  <g transform="matrix(1, 0, 0, 1, 12.891474043347529, 17.31789434894758)">
    <g transform="matrix(0.60162, 0, 0, 0.60162, 0.000002, 0)">
        <path fill="#FFFFFF" stroke="#231F20" stroke-miterlimit="10" d="M 0.005 51.539 L 0.005 0 L 6.825 0 L 6.825 25.559 L 32.419 0 L 41.665 0 L 20.044 20.883 L 42.614 51.539 L 33.614 51.539 L 15.262 25.453 L 6.824 33.68 L 6.824 51.539 L 0.005 51.539 Z"/>
        <path fill="#FFFFFF" stroke="#231F20" stroke-miterlimit="10" d="M 66.075 39.515 L 72.614 40.324 C 71.583 44.144 69.673 47.109 66.884 49.219 C 64.095 51.329 60.532 52.383 56.196 52.383 C 50.735 52.383 46.405 50.701 43.206 47.338 C 40.007 43.975 38.407 39.258 38.407 33.188 C 38.407 26.907 40.024 22.032 43.259 18.563 C 46.494 15.094 50.689 13.36 55.845 13.36 C 60.837 13.36 64.915 15.059 68.079 18.458 C 71.243 21.857 72.825 26.638 72.825 32.802 C 72.825 33.177 72.813 33.74 72.79 34.49 L 44.946 34.49 C 45.18 38.592 46.34 41.732 48.426 43.912 C 50.512 46.092 53.114 47.182 56.231 47.182 C 58.551 47.182 60.532 46.573 62.172 45.354 C 63.812 44.135 65.114 42.187 66.075 39.515 Z M 45.298 29.285 L 66.146 29.285 C 65.865 26.144 65.068 23.789 63.755 22.219 C 61.739 19.781 59.126 18.563 55.915 18.563 C 53.009 18.563 50.565 19.536 48.585 21.481 C 46.604 23.426 45.509 26.027 45.298 29.285 Z"/>
        <path fill="#FFFFFF" stroke="#231F20" stroke-miterlimit="10" d="M 73.294 65.918 L 72.591 59.977 C 73.974 60.352 75.181 60.54 76.212 60.54 C 77.618 60.54 78.743 60.306 79.587 59.837 C 80.431 59.368 81.122 58.712 81.661 57.868 C 82.059 57.235 82.704 55.665 83.595 53.157 C 83.712 52.805 83.9 52.29 84.158 51.61 L 69.989 14.203 L 76.809 14.203 L 84.579 35.824 C 85.587 38.566 86.489 41.449 87.286 44.472 C 88.013 41.566 88.88 38.73 89.888 35.964 L 97.868 14.202 L 104.196 14.202 L 89.993 52.172 C 88.47 56.274 87.286 59.098 86.442 60.645 C 85.317 62.731 84.028 64.26 82.575 65.233 C 81.122 66.206 79.387 66.692 77.372 66.692 C 76.153 66.691 74.794 66.433 73.294 65.918 Z"/>
    </g>
    <g transform="matrix(0.60162, 0, 0, 0.60162, 0.000002, 0)">
        <path fill="#FF8800" stroke="#231F20" stroke-miterlimit="10" d="M 0 107.803 L 0 56.264 L 6.82 56.264 L 6.82 77.428 L 33.609 77.428 L 33.609 56.264 L 40.429 56.264 L 40.429 107.803 L 33.609 107.803 L 33.609 83.51 L 6.82 83.51 L 6.82 107.803 L 0 107.803 Z"/>
        <path fill="#FF8800" stroke="#231F20" stroke-miterlimit="10" d="M 75.444 107.803 L 75.444 102.319 C 72.538 106.538 68.589 108.647 63.596 108.647 C 61.393 108.647 59.337 108.225 57.427 107.381 C 55.516 106.537 54.099 105.477 53.173 104.199 C 52.247 102.922 51.596 101.357 51.222 99.506 C 50.964 98.264 50.835 96.295 50.835 93.6 L 50.835 70.468 L 57.163 70.468 L 57.163 91.175 C 57.163 94.48 57.291 96.706 57.55 97.855 C 57.948 99.519 58.792 100.826 60.081 101.775 C 61.37 102.724 62.963 103.199 64.862 103.199 C 66.761 103.199 68.542 102.713 70.206 101.74 C 71.87 100.767 73.048 99.443 73.739 97.767 C 74.43 96.091 74.776 93.66 74.776 90.472 L 74.776 70.468 L 81.104 70.468 L 81.104 107.804 L 75.444 107.804 L 75.444 107.803 Z"/>
        <path fill="#FF8800" stroke="#231F20" stroke-miterlimit="10" d="M 96.855 107.803 L 90.984 107.803 L 90.984 56.264 L 97.312 56.264 L 97.312 74.651 C 99.984 71.299 103.394 69.624 107.542 69.624 C 109.839 69.624 112.013 70.087 114.063 71.013 C 116.113 71.939 117.801 73.24 119.126 74.915 C 120.451 76.59 121.487 78.612 122.237 80.979 C 122.987 83.346 123.362 85.877 123.362 88.573 C 123.362 94.971 121.78 99.917 118.616 103.409 C 115.452 106.901 111.655 108.647 107.225 108.647 C 102.819 108.647 99.362 106.807 96.854 103.127 L 96.854 107.803 L 96.855 107.803 Z M 96.784 88.854 C 96.784 93.331 97.393 96.565 98.612 98.557 C 100.604 101.815 103.3 103.444 106.698 103.444 C 109.464 103.444 111.854 102.243 113.87 99.84 C 115.886 97.437 116.893 93.858 116.893 89.1 C 116.893 84.225 115.926 80.627 113.993 78.307 C 112.06 75.987 109.722 74.827 106.979 74.827 C 104.213 74.827 101.823 76.028 99.807 78.431 C 97.791 80.834 96.784 84.307 96.784 88.854 Z"/>
    </g>
  </g>
</svg>
