<svg version="1.1" id="Layer_1" xmlns="http://www.w3.org/2000/svg" xmlns:xlink="http://www.w3.org/1999/xlink" x="0px" y="0px"
	 width="100%" viewBox="0 0 6000 6000" enable-background="new 0 0 6000 6000" xml:space="preserve">
<path fill="#231f20" opacity="1.000000" stroke="none" 
	d="
M1703.032349,3613.007812 
	C1689.050781,3593.435547 1676.017944,3574.945312 1662.977905,3556.459961 
	C1630.761353,3510.790039 1598.468262,3465.173828 1566.348633,3419.435547 
	C1546.081177,3390.574707 1526.223389,3361.425781 1505.910034,3332.597412 
	C1475.635254,3289.631592 1445.030518,3246.898193 1414.739502,3203.943604 
	C1394.800293,3175.668701 1375.239014,3147.127686 1355.374756,3118.799561 
	C1336.299438,3091.596680 1317.051758,3064.514893 1297.156738,3036.356445 
	C1293.200439,3038.921387 1289.617310,3040.514404 1286.965210,3043.072754 
	C1245.266724,3083.300049 1203.547363,3123.507568 1162.130737,3164.024414 
	C1133.539673,3191.994385 1106.443604,3221.576172 1076.845093,3248.414795 
	C1019.533630,3300.381836 967.421448,3357.623047 910.794006,3410.166992 
	C880.988464,3437.822998 852.892273,3467.164062 822.927795,3494.560303 
	C811.535645,3504.976318 807.859253,3516.279785 807.874207,3531.413086 
	C808.226135,3886.735840 808.147644,4242.058594 808.141602,4597.381836 
	C808.141479,4604.047363 808.312561,4610.726562 807.954285,4617.375000 
	C807.518250,4625.465332 804.076294,4629.610840 796.033630,4630.891113 
	C790.158508,4631.826660 784.090820,4631.771973 778.108459,4631.780273 
	C733.443237,4631.845215 688.777832,4631.815430 644.112488,4631.815430 
	C554.781738,4631.815430 465.450562,4631.668457 376.120697,4631.946777 
	C359.396179,4631.998535 343.411133,4628.064941 326.354675,4626.406738 
	C325.555206,4622.536133 324.508850,4619.403809 324.337677,4616.224609 
	C324.015533,4610.240723 324.174408,4604.229492 324.174377,4598.229980 
	C324.170898,3535.594482 324.165802,2472.958984 324.256836,1410.323486 
	C324.257629,1401.190552 322.537598,1391.754395 326.707397,1381.833374 
	C330.527802,1381.224487 334.319122,1380.156982 338.126434,1380.096313 
	C352.122589,1379.873169 366.124115,1379.971802 380.123596,1379.971558 
	C513.453003,1379.968262 646.782471,1379.963135 780.111877,1379.985596 
	C788.052979,1379.986938 795.994080,1380.218872 804.633240,1380.354492 
	C805.951782,1384.936890 807.662476,1388.552002 807.918823,1392.267578 
	C808.422424,1399.567749 808.143188,1406.923584 808.143250,1414.256470 
	C808.147339,1892.242432 808.188293,2370.228516 807.996826,2848.214355 
	C807.989075,2867.529541 812.375671,2886.137939 812.929504,2904.478271 
	C817.956482,2907.155029 820.615906,2904.941895 822.980713,2902.649170 
	C832.553284,2893.370361 842.070679,2884.032715 851.497742,2874.605713 
	C1084.838501,2641.269775 1318.141357,2407.895752 1551.500488,2174.578125 
	C1806.073730,1920.050049 2060.676514,1665.551880 2315.374512,1411.148682 
	C2324.761475,1401.772339 2335.041748,1393.229004 2345.420166,1384.941528 
	C2348.786621,1382.253296 2353.687500,1381.003540 2358.086182,1380.224609 
	C2362.615234,1379.422607 2367.388184,1379.973389 2372.054443,1379.973389 
	C2576.048584,1379.969482 2780.042480,1379.970337 2984.036621,1379.970581 
	C2990.572021,1379.970581 2997.107422,1379.970581 3003.038330,1379.970581 
	C3005.488770,1385.451782 3002.376221,1387.589966 3000.173828,1389.790161 
	C2972.821045,1417.118286 2946.606934,1445.744751 2917.681641,1471.300171 
	C2880.158691,1504.451172 2847.098389,1542.102417 2809.865234,1575.343262 
	C2767.060791,1613.557617 2728.826416,1656.421509 2686.278809,1694.710693 
	C2648.582275,1728.634277 2614.749512,1766.447144 2577.040039,1800.151978 
	C2534.754883,1837.946533 2496.992920,1880.340454 2454.895996,1918.133179 
	C2414.178711,1954.687012 2377.705566,1995.512695 2337.110352,2031.997925 
	C2297.416260,2067.673340 2261.753662,2107.451660 2222.082275,2142.953125 
	C2181.801025,2179.000244 2145.850830,2219.409424 2105.739258,2255.432617 
	C2064.541504,2292.431152 2027.536621,2333.694580 1986.421509,2370.582764 
	C1947.677368,2405.343750 1912.984619,2444.175049 1874.351929,2478.854004 
	C1832.651245,2516.286865 1795.163940,2558.010498 1753.601074,2595.395264 
	C1719.367310,2626.187744 1687.745361,2659.497314 1654.549316,2691.257568 
	C1649.778076,2695.822510 1645.430786,2700.830566 1640.786621,2705.739990 
	C1642.532959,2714.541504 1648.214600,2720.366211 1652.811768,2726.650391 
	C1684.618652,2770.128662 1716.500122,2813.553223 1748.515381,2856.878174 
	C1780.923950,2900.735107 1813.587646,2944.403809 1845.996948,2988.260254 
	C1864.971558,3013.936768 1883.543823,3039.910645 1902.516602,3065.588623 
	C1936.505127,3111.589844 1970.751953,3157.399902 2004.714111,3203.420410 
	C2030.781372,3238.742432 2056.495117,3274.325195 2082.516357,3309.681641 
	C2108.532227,3345.030518 2134.882812,3380.133789 2160.821777,3415.538574 
	C2202.482910,3472.403076 2243.754150,3529.553711 2285.516602,3586.343262 
	C2317.822998,3630.273193 2350.728271,3673.762207 2383.174561,3717.589844 
	C2401.777100,3742.716797 2419.961670,3768.152344 2438.397461,3793.403076 
	C2451.724121,3811.655762 2465.153564,3829.833740 2478.537598,3848.044434 
	C2502.958496,3881.271484 2527.276123,3914.575439 2551.826416,3947.707031 
	C2589.039795,3997.927734 2626.551514,4047.927734 2663.670898,4098.217773 
	C2686.974854,4129.789551 2709.583496,4161.875488 2732.873291,4193.458008 
	C2776.685059,4252.868164 2820.953369,4311.941406 2864.671387,4371.420410 
	C2898.547607,4417.509766 2931.716553,4464.117676 2965.498535,4510.276855 
	C2989.850098,4543.550781 3014.720947,4576.443848 3039.290771,4609.559082 
	C3043.552246,4615.302734 3048.138184,4620.940430 3050.039551,4627.345215 
	C3047.642090,4632.034180 3044.056641,4631.587402 3040.850586,4631.717285 
	C3036.191162,4631.906250 3031.519531,4631.812988 3026.853271,4631.812988 
	C2832.858887,4631.815918 2638.864746,4631.818359 2444.870361,4631.812500 
	C2418.996582,4631.811523 2419.240723,4631.619629 2404.336914,4610.354492 
	C2371.876953,4564.039551 2339.075195,4517.963867 2306.545166,4471.697754 
	C2286.643066,4443.391602 2267.135986,4414.807129 2247.182373,4386.537598 
	C2219.559082,4347.400879 2191.594482,4308.504883 2163.951660,4269.381348 
	C2150.128662,4249.817383 2136.853516,4229.866211 2123.055420,4210.284668 
	C2082.813965,4153.177246 2042.365723,4096.215332 2002.137817,4039.098389 
	C1982.215210,4010.810547 1962.741455,3982.207031 1942.810669,3953.925049 
	C1912.149170,3910.416260 1881.214844,3867.099609 1850.507568,3823.622559 
	C1837.837158,3805.683594 1825.556763,3787.469238 1812.919800,3769.506104 
	C1791.099731,3738.489502 1769.061035,3707.626221 1747.265381,3676.592773 
	C1732.700317,3655.854492 1718.397827,3634.932129 1703.032349,3613.007812 
M389.464172,1443.432617 
	C389.136292,1444.950195 388.808411,1446.467896 387.807465,1451.683228 
	C387.778595,1457.017090 387.724487,1462.350830 387.724457,1467.684692 
	C387.720734,2492.958984 387.720825,3518.233398 387.721161,4543.507812 
	C387.721161,4547.507324 387.552429,4551.517090 387.777496,4555.503906 
	C387.990204,4559.270996 388.618744,4563.014648 389.195343,4567.871582 
	C395.608093,4567.871582 400.836487,4567.871094 406.064850,4567.871582 
	C427.396942,4567.871582 448.729065,4567.872070 470.061157,4567.872070 
	C556.056213,4567.872070 642.051331,4567.920410 728.046143,4567.771973 
	C734.391846,4567.760742 741.371948,4570.008789 747.863281,4564.093750 
	C747.863281,4203.389648 747.863281,3842.174805 747.863281,3480.880371 
	C928.707825,3304.540039 1109.105713,3128.633301 1289.511353,2952.734863 
	C1293.326050,2949.015137 1297.220337,2945.376709 1301.103760,2941.728516 
	C1301.575684,2941.285156 1302.175903,2940.882568 1302.786987,2940.710205 
	C1303.404297,2940.536377 1304.108887,2940.672119 1306.645142,2940.672119 
	C1687.696655,3482.310791 2069.395020,4024.869385 2451.405762,4567.871582 
	C2458.022461,4567.871582 2463.955322,4567.871582 2469.888428,4567.871582 
	C2615.880127,4567.871582 2761.871582,4567.878418 2907.863281,4567.844727 
	C2913.181152,4567.843262 2918.499268,4567.438477 2926.354980,4567.621094 
	C2929.923584,4563.741211 2926.915771,4561.872559 2923.094482,4557.430664 
	C2467.354492,3938.438477 2011.614380,3319.446289 1555.459961,2699.891357 
	C1559.409546,2695.691406 1562.400879,2692.249756 1565.662231,2689.086182 
	C1583.275269,2672.000000 1600.958862,2654.986328 1618.611450,2637.941162 
	C1657.842773,2600.059814 1697.070557,2562.175049 1736.298828,2524.290283 
	C1815.313599,2447.981689 1894.327148,2371.671631 1973.342285,2295.363281 
	C2014.967163,2255.164307 2056.598633,2214.972168 2098.220947,2174.770020 
	C2214.144775,2062.801758 2330.068359,1950.833008 2445.985107,1838.857056 
	C2511.655762,1775.419067 2577.416748,1712.074219 2642.939453,1648.483521 
	C2686.419434,1606.285400 2729.389160,1563.561035 2772.898438,1521.393555 
	C2797.260498,1497.783081 2822.289795,1474.862061 2846.911621,1451.517578 
	C2849.039551,1449.500000 2852.611084,1447.507202 2849.427979,1442.346924 
	C2845.516846,1442.346924 2840.892822,1442.347046 2836.268555,1442.347046 
	C2687.642822,1442.346924 2539.016846,1442.456665 2390.391846,1442.131836 
	C2378.845947,1442.106567 2369.564697,1444.484863 2362.526611,1453.812134 
	C2361.732178,1454.864990 2360.649414,1455.699585 2359.706299,1456.641479 
	C2275.375244,1540.855835 2191.044678,1625.071167 2106.713867,1709.285767 
	C1661.053101,2154.333008 1215.394409,2599.382568 769.699280,3044.395264 
	C765.509705,3048.578369 760.835327,3052.276367 753.765930,3056.056641 
	C752.015564,3056.046143 750.265137,3056.035645 747.782288,3052.336182 
	C747.750610,3044.340820 747.691284,3036.345459 747.691223,3028.350098 
	C747.686829,2509.964355 747.687256,1991.578613 747.687134,1473.192871 
	C747.687134,1467.196167 747.851685,1461.192993 747.623474,1455.204956 
	C747.477295,1451.370728 746.749878,1447.558472 746.190186,1442.976074 
	C739.476624,1442.748169 733.562744,1442.374146 727.648804,1442.372192 
	C621.706238,1442.336792 515.763611,1442.327026 409.821075,1442.398071 
	C403.873322,1442.402100 397.926086,1443.154175 389.464172,1443.432617 
z"/>
<path fill="#231f20" opacity="1.000000" stroke="none" 
	d="
M5197.156250,4625.922852 
	C5196.440918,4615.538574 5196.166504,4606.877930 5196.166504,4598.217285 
	C5196.145996,4118.249023 5196.160156,3638.280518 5196.060547,3158.312012 
	C5196.058594,3149.180664 5197.808105,3139.741943 5193.551270,3129.790771 
	C5189.796875,3129.193115 5186.015137,3128.312500 5182.191406,3128.054199 
	C5177.544922,3127.740967 5172.863770,3127.939209 5168.197266,3127.939209 
	C4656.230957,3127.937012 4144.264648,3127.931152 3632.298584,3127.987549 
	C3623.800049,3127.988281 3615.086426,3126.750732 3605.792480,3130.310791 
	C3605.174561,3134.278809 3604.235107,3138.065186 3604.067627,3141.885498 
	C3603.775635,3148.539307 3603.946533,3155.214355 3603.946289,3161.880371 
	C3603.944336,3641.848877 3603.946045,4121.817383 3603.932129,4601.785645 
	C3603.931885,4610.391113 3603.746582,4618.996582 3603.639648,4628.306152 
	C3599.013184,4629.644531 3595.420898,4631.244141 3591.703613,4631.625000 
	C3586.423584,4632.166016 3581.051514,4631.835449 3575.718750,4631.835449 
	C3433.061523,4631.839844 3290.404297,4631.845215 3147.747070,4631.822266 
	C3139.823486,4631.820801 3131.899902,4631.575195 3123.287109,4631.432129 
	C3121.973633,4626.721191 3120.380859,4623.104004 3120.059082,4619.376465 
	C3119.544922,4613.418945 3119.850830,4607.389160 3119.850830,4601.389648 
	C3119.847412,3538.126221 3119.843506,2474.862793 3119.915527,1411.599487 
	C3119.916260,1402.358521 3118.525635,1392.957275 3121.832275,1382.802979 
	C3125.130615,1381.945923 3128.780762,1380.602051 3132.540039,1380.129272 
	C3136.480469,1379.633911 3140.525879,1379.953003 3144.525391,1379.952881 
	C3289.182617,1379.949097 3433.839600,1379.941040 3578.496826,1379.975098 
	C3585.731689,1379.976685 3592.966553,1380.348267 3600.893311,1380.566528 
	C3602.063965,1385.365967 3603.506104,1389.044556 3603.758057,1392.802856 
	C3604.202393,1399.440552 3603.941650,1406.126953 3603.941895,1412.792969 
	C3603.945068,1828.098999 3603.935791,2243.405029 3604.009277,2658.710938 
	C3604.010742,2667.264893 3602.593750,2676.006836 3606.132080,2685.454590 
	C3609.446777,2686.240234 3613.128418,2687.572754 3616.896240,2687.895020 
	C3622.192383,2688.347900 3627.552490,2688.071289 3632.885254,2688.071289 
	C4144.185059,2688.074463 4655.484375,2688.081543 5166.784180,2688.009033 
	C5175.334961,2688.007812 5184.079102,2689.445557 5193.523438,2685.854248 
	C5194.309570,2682.544434 5195.715332,2678.859619 5195.961426,2675.098877 
	C5196.395508,2668.459717 5196.145020,2661.774414 5196.145020,2655.108398 
	C5196.148438,2239.802246 5196.141602,1824.496338 5196.194336,1409.190308 
	C5196.195312,1400.636353 5195.103027,1391.932861 5198.083496,1382.537109 
	C5201.772461,1381.701782 5205.461914,1380.469849 5209.233887,1380.113281 
	C5213.860840,1379.676392 5218.557129,1379.952393 5223.223145,1379.952271 
	C5366.546875,1379.948853 5509.871094,1379.932983 5653.194824,1379.993896 
	C5661.069824,1379.997192 5669.116699,1378.914673 5677.801758,1382.135620 
	C5678.555176,1385.813110 5679.748535,1389.538086 5679.994629,1393.324707 
	C5680.382812,1399.300293 5680.153320,1405.317261 5680.153320,1411.316650 
	C5680.156250,2473.246826 5680.156250,3535.176758 5680.151367,4597.106934 
	C5680.151367,4603.772461 5680.329102,4610.451660 5679.981445,4617.100586 
	C5679.546387,4625.414551 5676.281250,4629.355469 5668.316895,4630.856934 
	C5663.778809,4631.711426 5659.047363,4631.797363 5654.403320,4631.798828 
	C5508.413086,4631.844727 5362.422363,4631.861328 5216.432129,4631.758301 
	C5210.023438,4631.753906 5202.919922,4633.691406 5197.156250,4625.922852 
M3538.104736,4567.521484 
	C3538.691895,4566.343262 3539.279053,4565.164551 3540.540771,4560.290039 
	C3540.601318,4551.628906 3540.714600,4542.967285 3540.714844,4534.306152 
	C3540.723389,4055.017334 3540.722412,3575.728760 3540.722900,3096.439941 
	C3540.722900,3090.440430 3540.582764,3084.436035 3540.790039,3078.443604 
	C3540.921875,3074.632568 3541.575928,3070.839600 3542.037842,3066.657227 
	C3551.560303,3064.018555 3560.225342,3065.075195 3568.740723,3065.074219 
	C4122.688965,3065.021973 4676.637695,3065.026611 5230.585938,3065.027344 
	C5235.918945,3065.027344 5241.260742,3064.846191 5246.581055,3065.109131 
	C5250.411133,3065.298340 5254.211914,3066.087158 5258.137207,3066.623535 
	C5260.920410,3076.006104 5259.747070,3084.682129 5259.748047,3093.209717 
	C5259.808105,3573.831543 5259.800781,4054.453369 5259.802246,4535.075195 
	C5259.802246,4541.741211 5259.640137,4548.414062 5259.894531,4555.070801 
	C5260.038574,4558.852051 5260.876465,4562.607422 5261.351074,4566.011230 
	C5279.790039,4568.541992 5549.493652,4569.852051 5608.240234,4567.817383 
	C5611.414062,4567.707031 5614.569824,4567.076172 5617.650879,4566.698242 
	C5618.524414,4563.787109 5619.561035,4561.946289 5619.561035,4560.105957 
	C5619.610352,3523.538818 5619.590820,2486.971924 5619.498535,1450.404785 
	C5619.498535,1448.559082 5618.416504,1446.713257 5617.719238,1444.481079 
	C5610.737305,1441.266846 5603.331055,1442.540649 5596.178711,1442.533691 
	C5499.520996,1442.440063 5402.863281,1442.469238 5306.205566,1442.472778 
	C5294.873535,1442.473145 5283.537109,1442.342163 5272.210938,1442.606201 
	C5268.487305,1442.693115 5264.788086,1443.835327 5260.194336,1444.651978 
	C5260.052246,1454.355225 5259.816895,1462.929321 5259.816895,1471.503418 
	C5259.798828,1887.464722 5259.800781,2303.426025 5259.799805,2719.387207 
	C5259.799805,2726.053223 5260.049316,2732.734619 5259.666992,2739.379150 
	C5259.453125,2743.101074 5258.177246,2746.761719 5257.176270,2751.391846 
	C5248.312500,2751.391846 5240.369141,2751.391846 5232.425781,2751.391846 
	C4677.810547,2751.391846 4123.195801,2751.392334 3568.580811,2751.390869 
	C3563.248047,2751.390869 3557.889648,2751.681641 3552.591309,2751.249268 
	C3548.859375,2750.944824 3545.208984,2749.642334 3542.052979,2748.908936 
	C3541.612549,2747.070557 3541.450195,2746.423584 3541.304199,2745.773438 
	C3541.158691,2745.124756 3540.987305,2744.477539 3540.905029,2743.819824 
	C3540.822510,2743.160645 3540.825684,2742.489502 3540.809570,2741.823242 
	C3540.777344,2740.490723 3540.735840,2739.157715 3540.735840,2737.824951 
	C3540.729004,2312.531250 3540.724854,1887.237427 3540.720459,1461.943726 
	C3540.720215,1460.610474 3540.716797,1459.277344 3540.712891,1457.944092 
	C3540.710938,1457.277466 3540.711426,1456.610840 3540.697998,1455.944336 
	C3540.671387,1454.611450 3540.645996,1453.278564 3540.599609,1451.946289 
	C3540.576416,1451.281738 3540.529785,1450.616089 3540.451904,1449.955811 
	C3540.373779,1449.294556 3540.282471,1448.629761 3540.124512,1447.984253 
	C3539.971680,1447.358643 3539.813232,1446.706055 3539.498779,1446.156006 
	C3539.173584,1445.587524 3538.656982,1445.128540 3537.502930,1443.776978 
	C3535.826172,1443.484253 3533.301270,1442.658203 3530.776611,1442.657715 
	C3416.790771,1442.636719 3302.804688,1442.679932 3188.818848,1442.802490 
	C3186.952881,1442.804443 3185.087891,1443.877319 3182.872070,1444.557983 
	C3179.111328,1452.806763 3180.840332,1461.575073 3180.839600,1470.055298 
	C3180.758545,2493.959961 3180.762695,3517.864746 3180.763672,4541.769531 
	C3180.763672,4546.435547 3180.483887,4551.127441 3180.881104,4555.760254 
	C3181.203857,4559.520996 3182.348877,4563.211426 3183.330322,4567.891602 
	C3190.102295,4567.891602 3196.060303,4567.891602 3202.018555,4567.891602 
	C3308.008789,4567.891602 3413.998779,4567.900391 3519.989014,4567.864258 
	C3525.310791,4567.862305 3530.632812,4567.475098 3538.104736,4567.521484 
z"/>
<path fill="#ffffff" opacity="1.000000" stroke="none" 
	d="
M756.387268,3056.200684 
	C760.835327,3052.276367 765.509705,3048.578369 769.699280,3044.395264 
	C1215.394409,2599.382568 1661.053101,2154.333008 2106.713867,1709.285767 
	C2191.044678,1625.071167 2275.375244,1540.855835 2359.706299,1456.641479 
	C2360.649414,1455.699585 2361.732178,1454.864990 2362.526611,1453.812134 
	C2369.564697,1444.484863 2378.845947,1442.106567 2390.391846,1442.131836 
	C2539.016846,1442.456665 2687.642822,1442.346924 2836.268555,1442.347046 
	C2840.892822,1442.347046 2845.516846,1442.346924 2849.427979,1442.346924 
	C2852.611084,1447.507202 2849.039551,1449.500000 2846.911621,1451.517578 
	C2822.289795,1474.862061 2797.260498,1497.783081 2772.898438,1521.393555 
	C2729.389160,1563.561035 2686.419434,1606.285400 2642.939453,1648.483521 
	C2577.416748,1712.074219 2511.655762,1775.419067 2445.985107,1838.857056 
	C2330.068359,1950.833008 2214.144775,2062.801758 2098.220947,2174.770020 
	C2056.598633,2214.972168 2014.967163,2255.164307 1973.342285,2295.363281 
	C1894.327148,2371.671631 1815.313599,2447.981689 1736.298828,2524.290283 
	C1697.070557,2562.175049 1657.842773,2600.059814 1618.611450,2637.941162 
	C1600.958862,2654.986328 1583.275269,2672.000000 1565.662231,2689.086182 
	C1562.400879,2692.249756 1559.409546,2695.691406 1555.459961,2699.891357 
	C2011.614380,3319.446289 2467.354492,3938.438477 2923.379395,4559.902344 
	C2923.715332,4563.989746 2923.766357,4565.605957 2923.817139,4567.221680 
	C2918.499268,4567.438477 2913.181152,4567.843262 2907.863281,4567.844727 
	C2761.871582,4567.878418 2615.880127,4567.871582 2469.888428,4567.871582 
	C2463.955322,4567.871582 2458.022461,4567.871582 2451.405762,4567.871582 
	C2069.395020,4024.869385 1687.696655,3482.310791 1306.645142,2940.672119 
	C1304.108887,2940.672119 1303.404297,2940.536377 1302.786987,2940.710205 
	C1302.175903,2940.882568 1301.575684,2941.285156 1301.103760,2941.728516 
	C1297.220337,2945.376709 1293.326050,2949.015137 1289.511353,2952.734863 
	C1109.105713,3128.633301 928.707825,3304.540039 747.863281,3480.880371 
	C747.863281,3842.174805 747.863281,4203.389648 747.863281,4564.093750 
	C741.371948,4570.008789 734.391846,4567.760742 728.046143,4567.771973 
	C642.051331,4567.920410 556.056213,4567.872070 470.061157,4567.872070 
	C448.729065,4567.872070 427.396942,4567.871582 406.064850,4567.871582 
	C400.836487,4567.871094 395.608093,4567.871582 389.195343,4567.871582 
	C388.618744,4563.014648 387.990204,4559.270996 387.777496,4555.503906 
	C387.552429,4551.517090 387.721161,4547.507324 387.721161,4543.507812 
	C387.720825,3518.233398 387.720734,2492.958984 387.724457,1467.684692 
	C387.724487,1462.350830 387.778595,1457.017090 388.930115,1449.270386 
	C391.045380,1445.962402 391.687317,1444.862549 391.978607,1443.558105 
	C397.926086,1443.154175 403.873322,1442.402100 409.821075,1442.398071 
	C515.763611,1442.327026 621.706238,1442.336792 727.648804,1442.372192 
	C733.562744,1442.374146 739.476624,1442.748169 746.190186,1442.976074 
	C746.749878,1447.558472 747.477295,1451.370728 747.623474,1455.204956 
	C747.851685,1461.192993 747.687134,1467.196167 747.687134,1473.192871 
	C747.687256,1991.578613 747.686829,2509.964355 747.691223,3028.350098 
	C747.691284,3036.345459 747.750610,3044.340820 747.797119,3055.368652 
	C748.307495,3062.442139 749.901123,3064.073242 753.316223,3060.647705 
	C754.567444,3059.392090 755.376465,3057.695801 756.387268,3056.200684 
z"/>
<path fill="#ff8800" opacity="1.000000" stroke="none" 
	d="
M3535.954590,4567.267578 
	C3530.632812,4567.475098 3525.310791,4567.862305 3519.989014,4567.864258 
	C3413.998779,4567.900391 3308.008789,4567.891602 3202.018555,4567.891602 
	C3196.060303,4567.891602 3190.102295,4567.891602 3183.330322,4567.891602 
	C3182.348877,4563.211426 3181.203857,4559.520996 3180.881104,4555.760254 
	C3180.483887,4551.127441 3180.763672,4546.435547 3180.763672,4541.769531 
	C3180.762695,3517.864746 3180.758545,2493.959961 3180.839600,1470.055298 
	C3180.840332,1461.575073 3179.111328,1452.806763 3182.872070,1444.557983 
	C3185.087891,1443.877319 3186.952881,1442.804443 3188.818848,1442.802490 
	C3302.804688,1442.679932 3416.790771,1442.636719 3530.776611,1442.657715 
	C3533.301270,1442.658203 3535.826172,1443.484253 3537.502930,1443.776978 
	C3538.656982,1445.128540 3539.173584,1445.587524 3539.498779,1446.156006 
	C3539.813232,1446.706055 3539.971680,1447.358643 3540.124512,1447.984253 
	C3540.282471,1448.629761 3540.373779,1449.294556 3540.451904,1449.955811 
	C3540.529785,1450.616089 3540.576416,1451.281738 3540.599609,1451.946289 
	C3540.645996,1453.278564 3540.671387,1454.611450 3540.697998,1455.944336 
	C3540.711426,1456.610840 3540.710938,1457.277466 3540.712891,1457.944092 
	C3540.716797,1459.277344 3540.720215,1460.610474 3540.720459,1461.943726 
	C3540.724854,1887.237427 3540.729004,2312.531250 3540.735840,2737.824951 
	C3540.735840,2739.157715 3540.777344,2740.490723 3540.809570,2741.823242 
	C3540.825684,2742.489502 3540.822510,2743.160645 3540.905029,2743.819824 
	C3540.987305,2744.477539 3541.158691,2745.124756 3541.304199,2745.773438 
	C3541.450195,2746.423584 3541.612549,2747.070557 3542.052979,2748.908936 
	C3545.208984,2749.642334 3548.859375,2750.944824 3552.591309,2751.249268 
	C3557.889648,2751.681641 3563.248047,2751.390869 3568.580811,2751.390869 
	C4123.195801,2751.392334 4677.810547,2751.391846 5232.425781,2751.391846 
	C5240.369141,2751.391846 5248.312500,2751.391846 5257.176270,2751.391846 
	C5258.177246,2746.761719 5259.453125,2743.101074 5259.666992,2739.379150 
	C5260.049316,2732.734619 5259.799805,2726.053223 5259.799805,2719.387207 
	C5259.800781,2303.426025 5259.798828,1887.464722 5259.816895,1471.503418 
	C5259.816895,1462.929321 5260.052246,1454.355225 5260.194336,1444.651978 
	C5264.788086,1443.835327 5268.487305,1442.693115 5272.210938,1442.606201 
	C5283.537109,1442.342163 5294.873535,1442.473145 5306.205566,1442.472778 
	C5402.863281,1442.469238 5499.520996,1442.440063 5596.178711,1442.533691 
	C5603.331055,1442.540649 5610.737305,1441.266846 5617.719238,1444.481079 
	C5618.416504,1446.713257 5619.498535,1448.559082 5619.498535,1450.404785 
	C5619.590820,2486.971924 5619.610352,3523.538818 5619.561035,4560.105957 
	C5619.561035,4561.946289 5618.524414,4563.787109 5617.650879,4566.698242 
	C5614.569824,4567.076172 5611.414062,4567.707031 5608.240234,4567.817383 
	C5549.493652,4569.852051 5279.790039,4568.541992 5261.351074,4566.011230 
	C5260.876465,4562.607422 5260.038574,4558.852051 5259.894531,4555.070801 
	C5259.640137,4548.414062 5259.802246,4541.741211 5259.802246,4535.075195 
	C5259.800781,4054.453369 5259.808105,3573.831543 5259.748047,3093.209717 
	C5259.747070,3084.682129 5260.920410,3076.006104 5258.137207,3066.623535 
	C5254.211914,3066.087158 5250.411133,3065.298340 5246.581055,3065.109131 
	C5241.260742,3064.846191 5235.918945,3065.027344 5230.585938,3065.027344 
	C4676.637695,3065.026611 4122.688965,3065.021973 3568.740723,3065.074219 
	C3560.225342,3065.075195 3551.560303,3064.018555 3542.037842,3066.657227 
	C3541.575928,3070.839600 3540.921875,3074.632568 3540.790039,3078.443604 
	C3540.582764,3084.436035 3540.722900,3090.440430 3540.722900,3096.439941 
	C3540.722412,3575.728760 3540.723389,4055.017334 3540.714844,4534.306152 
	C3540.714600,4542.967285 3540.601318,4551.628906 3539.413574,4562.505859 
	C3537.281982,4565.361816 3536.504883,4566.210938 3535.954590,4567.267578 
z"/>
</svg>