<?xml version="1.0" encoding="utf-8"?>
<svg viewBox="0 0 285.655 101.94" xmlns="http://www.w3.org/2000/svg">
  <g transform="matrix(1, 0, 0, 1, 19.484497483242762, 26.704403489524083)">
    <g>
        <path fill="#FFFFFF" stroke="#231F20" stroke-miterlimit="10" d="M 0 51.539 L 0 0 L 6.82 0 L 6.82 25.559 L 32.415 0 L 41.661 0 L 20.04 20.883 L 42.61 51.539 L 33.61 51.539 L 15.258 25.453 L 6.82 33.68 L 6.82 51.539 L 0 51.539 L 0 51.539 Z"/>
        <path fill="#FFFFFF" stroke="#231F20" stroke-miterlimit="10" d="M 73.055 39.516 L 79.594 40.325 C 78.562 44.145 76.653 47.11 73.864 49.22 C 71.074 51.329 67.512 52.384 63.176 52.384 C 57.715 52.384 53.385 50.702 50.186 47.339 C 46.987 43.976 45.387 39.259 45.387 33.189 C 45.387 26.908 47.004 22.033 50.239 18.564 C 53.474 15.095 57.669 13.361 62.825 13.361 C 67.817 13.361 71.895 15.06 75.059 18.459 C 78.223 21.858 79.805 26.639 79.805 32.803 C 79.805 33.178 79.793 33.741 79.77 34.491 L 51.926 34.491 C 52.16 38.593 53.32 41.733 55.406 43.913 C 57.492 46.093 60.094 47.183 63.211 47.183 C 65.531 47.183 67.512 46.574 69.152 45.355 C 70.793 44.133 72.094 42.188 73.055 39.516 Z M 52.278 29.285 L 73.126 29.285 C 72.845 26.144 72.048 23.789 70.735 22.219 C 68.719 19.781 66.106 18.563 62.895 18.563 C 59.989 18.563 57.545 19.536 55.565 21.481 C 53.584 23.426 52.489 26.027 52.278 29.285 Z"/>
        <path fill="#FFFFFF" stroke="#231F20" stroke-miterlimit="10" d="M 87.258 65.918 L 86.555 59.977 C 87.938 60.352 89.144 60.54 90.176 60.54 C 91.582 60.54 92.707 60.306 93.551 59.837 C 94.395 59.368 95.086 58.712 95.625 57.868 C 96.023 57.235 96.667 55.665 97.559 53.157 C 97.676 52.805 97.863 52.29 98.122 51.61 L 83.954 14.203 L 90.774 14.203 L 98.544 35.824 C 99.551 38.566 100.454 41.449 101.251 44.472 C 101.977 41.566 102.845 38.73 103.853 35.964 L 111.833 14.202 L 118.161 14.202 L 103.957 52.172 C 102.433 56.274 101.25 59.098 100.406 60.645 C 99.281 62.731 97.992 64.26 96.539 65.233 C 95.085 66.206 93.351 66.692 91.336 66.692 C 90.118 66.691 88.758 66.434 87.258 65.918 Z"/>
    </g>
    <g>
        <path fill="#FF8800" stroke="#231F20" stroke-miterlimit="10" d="M 123.323 51.539 L 123.323 0 L 130.143 0 L 130.143 21.164 L 156.932 21.164 L 156.932 0 L 163.752 0 L 163.752 51.539 L 156.932 51.539 L 156.932 27.246 L 130.143 27.246 L 130.143 51.539 L 123.323 51.539 Z"/>
        <path fill="#FF8800" stroke="#231F20" stroke-miterlimit="10" d="M 198.769 51.539 L 198.769 46.055 C 195.863 50.274 191.914 52.383 186.921 52.383 C 184.718 52.383 182.661 51.961 180.751 51.117 C 178.841 50.273 177.423 49.213 176.497 47.935 C 175.571 46.657 174.921 45.093 174.546 43.242 C 174.288 42 174.159 40.031 174.159 37.336 L 174.159 14.203 L 180.487 14.203 L 180.487 34.91 C 180.487 38.215 180.616 40.441 180.874 41.59 C 181.272 43.254 182.116 44.561 183.405 45.51 C 184.694 46.459 186.288 46.934 188.186 46.934 C 190.084 46.934 191.866 46.448 193.53 45.475 C 195.194 44.502 196.372 43.178 197.063 41.502 C 197.754 39.826 198.1 37.395 198.1 34.207 L 198.1 14.203 L 204.428 14.203 L 204.428 51.539 L 198.769 51.539 Z"/>
        <path fill="#FF8800" stroke="#231F20" stroke-miterlimit="10" d="M 220.179 51.54 L 214.308 51.539 L 214.308 0 L 220.636 0 L 220.636 18.387 C 223.308 15.035 226.718 13.36 230.866 13.36 C 233.163 13.36 235.337 13.823 237.387 14.749 C 239.437 15.675 241.125 16.976 242.45 18.651 C 243.775 20.326 244.811 22.348 245.561 24.715 C 246.311 27.082 246.686 29.613 246.686 32.309 C 246.686 38.707 245.104 43.653 241.94 47.145 C 238.776 50.637 234.979 52.383 230.549 52.383 C 226.143 52.383 222.686 50.543 220.178 46.863 L 220.178 51.539 L 220.179 51.539 Z M 220.108 32.59 C 220.108 37.067 220.717 40.301 221.936 42.293 C 223.928 45.551 226.624 47.18 230.022 47.18 C 232.788 47.18 235.178 45.979 237.194 43.576 C 239.21 41.173 240.217 37.594 240.217 32.836 C 240.217 27.961 239.25 24.363 237.317 22.043 C 235.384 19.723 233.046 18.563 230.303 18.563 C 227.537 18.563 225.147 19.764 223.131 22.167 C 221.115 24.57 220.108 28.043 220.108 32.59 Z"/>
    </g>
  </g>
</svg>
