<?xml version="1.0" encoding="utf-8"?>
<svg viewBox="0.0004 0.0004 499.9996 302.5734" width="500" height="302.573" xmlns="http://www.w3.org/2000/svg">
  <g transform="matrix(1, 0, 0, 1, 0, 2.842170943040401e-14)">
    <g transform="matrix(2.828079, 0, 0, 2.828079, 0.000432, 0.000459)">
      <path fill="#231f20" opacity="1.000000" d="M 43.606 43.233 C 43.249 43.516 43.261 43.778 43.489 44.082 C 44.137 44.95 89.761 106.968 89.761 106.968 L 69.712 106.989 C 69.1 106.991 68.696 106.801 68.358 106.311 L 31.96 54.555 L 16.635 69.336 C 16.104 69.769 15.916 70.287 15.933 70.976 L 15.944 106.921 L 0 106.975 L 0 0 L 15.9 0.014 L 15.934 50.435 C 15.934 50.435 60.139 6.422 66.096 0.503 C 66.447 0.155 66.807 -0.001 67.303 0 L 88.344 0 C 88.344 0 44.279 42.612 43.606 43.233 M 69.641 104.506 C 69.872 104.966 70.299 104.877 70.692 104.877 L 85.665 104.877 C 85.665 104.877 55.496 63.898 40.454 43.466 C 54.672 29.722 83.187 2.152 83.187 2.152 L 68.022 2.149 C 67.467 2.146 67.133 2.383 66.778 2.737 C 58.834 10.673 13.879 55.286 13.879 55.286 L 13.879 2.204 L 2.126 2.204 L 2.126 104.818 L 13.908 104.818 L 13.887 70.476 C 13.884 69.548 14.125 68.9 14.799 68.249 L 32.249 51.347 L 69.641 104.506 Z" style="transform-origin: 44.881px 53.495px;" stroke="none"/>
      <path fill="#ffffff" opacity="1.000000" stroke="none" d="M 69.606 104.451 C 57.14 86.725 32.249 51.347 32.249 51.347 L 14.799 68.249 C 14.125 68.9 13.884 69.548 13.887 70.476 L 13.908 104.818 L 2.126 104.818 C 2.126 70.612 2.126 2.204 2.126 2.204 L 13.879 2.204 C 13.879 2.204 13.88 37.588 13.88 55.284 C 13.933 55.314 58.834 10.673 66.778 2.737 C 67.133 2.383 67.467 2.146 68.022 2.149 L 83.195 2.149 C 83.195 2.149 54.672 29.722 40.454 43.466 C 55.496 63.898 85.665 104.877 85.665 104.877 C 85.665 104.877 75.406 104.878 70.692 104.877 C 70.299 104.877 69.872 104.966 69.606 104.451 Z" style="transform-origin: 43.896px 53.516px;"/>
    </g>
    <g transform="matrix(2.828079, 0, 0, 2.828079, -436.99054, 0.000459)">
      <g>
        <path fill="#231f20" opacity="1.000000" stroke="none" d="M 247.254 0 L 263.157 0 L 263.181 42.947 L 315.495 42.918 L 315.49 0 L 331.317 0 L 331.317 106.66 L 315.506 106.7 L 315.485 57.509 L 263.232 57.467 L 263.206 106.686 L 247.352 106.708 M 317.563 44.954 L 261.077 44.954 L 261.077 2.022 L 249.331 2.072 L 249.331 104.587 L 261.115 104.587 L 261.115 55.311 L 317.567 55.314 L 317.564 104.602 L 329.349 104.593 L 329.345 2.026 L 317.566 2.092 L 317.563 44.954 Z" style="transform-origin: 289.285px 53.354px;"/>
        <path fill="#ff8800" opacity="1.000000" stroke="none" d="M 261.077 44.954 L 317.564 44.954 L 317.566 2.092 L 329.345 2.026 L 329.349 104.594 L 317.564 104.602 L 317.549 55.314 L 261.115 55.311 L 261.115 104.587 L 249.331 104.587 L 249.331 2.072 L 261.077 2.022 L 261.077 44.954 Z" style="transform-origin: 289.34px 53.316px;"/>
      </g>
    </g>
  </g>
</svg>
