<?xml version="1.0" encoding="utf-8"?>
<svg viewBox="0 0 499.9996 137.7714" width="500" height="137.771" xmlns="http://www.w3.org/2000/svg">
  <g>
    <g>
      <path fill="#231f20" opacity="1.000000" d="M 43.606 43.233 C 43.249 43.516 43.261 43.778 43.489 44.082 C 44.137 44.95 89.761 106.968 89.761 106.968 L 69.712 106.989 C 69.1 106.991 68.696 106.801 68.358 106.311 L 31.96 54.555 L 16.635 69.336 C 16.104 69.769 15.916 70.287 15.933 70.976 L 15.944 106.921 L 0 106.975 L 0 0 L 15.9 0.014 L 15.934 50.435 C 15.934 50.435 60.139 6.422 66.096 0.503 C 66.447 0.155 66.807 -0.001 67.303 0 L 88.344 0 C 88.344 0 44.279 42.612 43.606 43.233 M 69.641 104.506 C 69.872 104.966 70.299 104.877 70.692 104.877 L 85.665 104.877 C 85.665 104.877 55.496 63.898 40.454 43.466 C 54.672 29.722 83.187 2.152 83.187 2.152 L 68.022 2.149 C 67.467 2.146 67.133 2.383 66.778 2.737 C 58.834 10.673 13.879 55.286 13.879 55.286 L 13.879 2.204 L 2.126 2.204 L 2.126 104.818 L 13.908 104.818 L 13.887 70.476 C 13.884 69.548 14.125 68.9 14.799 68.249 L 32.249 51.347 L 69.641 104.506 Z" style="transform-origin: 44.881px 53.495px;" stroke="none"/>
      <path fill="#ffffff" opacity="1.000000" stroke="none" d="M 69.606 104.451 C 57.14 86.725 32.249 51.347 32.249 51.347 L 14.799 68.249 C 14.125 68.9 13.884 69.548 13.887 70.476 L 13.908 104.818 L 2.126 104.818 C 2.126 70.612 2.126 2.204 2.126 2.204 L 13.879 2.204 C 13.879 2.204 13.88 37.588 13.88 55.284 C 13.933 55.314 58.834 10.673 66.778 2.737 C 67.133 2.383 67.467 2.146 68.022 2.149 L 83.195 2.149 C 83.195 2.149 54.672 29.722 40.454 43.466 C 55.496 63.898 85.665 104.877 85.665 104.877 C 85.665 104.877 75.406 104.878 70.692 104.877 C 70.299 104.877 69.872 104.966 69.606 104.451 Z" style="transform-origin: 43.896px 53.516px;"/>
    </g>
    <g>
      <path fill="#231f20" opacity="1.000000" stroke="none" d="M 190.813 137.373 C 188.676 137.986 185.431 137.718 185.187 137.684 C 182.667 137.331 180.591 136.914 178.177 136.234 C 177.528 136.051 177.316 135.735 177.253 135.044 L 175.729 121.712 C 175.729 121.712 179.512 122.569 181.08 122.847 C 183.225 123.227 185.389 123.245 187.542 122.861 C 191.397 122.175 193.935 119.841 195.385 116.322 L 199.12 106.484 C 199.218 106.218 199.211 105.849 199.11 105.582 L 170.199 29.014 L 185.316 28.975 C 186.218 28.975 186.214 28.981 186.519 29.834 L 206.776 87.26 L 227.251 29.712 C 227.513 28.988 227.509 28.976 228.286 28.976 L 242.598 28.988 L 209.112 118.068 C 208.397 119.869 207.638 121.66 206.772 123.393 C 205.547 125.842 204.171 128.209 202.397 130.322 C 201.163 131.792 199.826 133.141 198.271 134.277 C 196.304 135.715 193.179 136.842 190.813 137.373 Z M 228.97 31.072 L 206.761 94.101 L 184.773 31.084 L 173.135 31.084 L 201.256 105.371 C 201.426 105.817 201.456 106.215 201.278 106.675 L 196.794 118.138 C 195.048 121.765 192.162 124.083 188.144 124.857 C 185.273 125.41 182.41 125.274 179.555 124.717 C 179.096 124.627 178.636 124.546 178.083 124.443 C 178.483 127.828 178.869 131.097 179.252 134.332 C 181.852 135.311 184.747 135.747 187.89 135.627 C 192.799 135.439 196.868 133.481 200.125 129.81 C 202.247 127.417 203.86 124.7 205.221 121.825 L 210.22 109.732 L 239.625 31.072 L 228.97 31.072 Z" style="transform-origin: 206.399px 83.371px;"/>
      <path fill="#ffffff" opacity="1.000000" stroke="none" d="M 206.761 94.101 L 228.97 31.072 L 239.662 31.07 L 210.22 109.732 C 208.69 113.819 207.088 117.877 205.22 121.825 C 203.86 124.7 202.247 127.417 200.125 129.81 C 196.868 133.481 192.799 135.439 187.89 135.627 C 184.747 135.747 181.852 135.311 179.252 134.332 C 178.869 131.097 178.483 127.828 178.083 124.443 C 180.817 124.948 185.273 125.41 188.144 124.857 C 192.162 124.083 195.048 121.765 196.794 118.138 C 197.928 115.781 201.278 106.675 201.278 106.675 C 201.456 106.215 201.426 105.817 201.256 105.371 L 173.135 31.084 L 184.773 31.084 L 206.761 94.101 Z" style="transform-origin: 206.398px 83.358px;"/>
    </g>
    <g>
      <path fill="#231f20" opacity="1.000000" stroke="none" d="M 153.314 100.851 C 151.121 102.656 148.811 104.164 146.284 105.336 C 143.787 106.494 141.187 107.327 138.483 107.832 C 136.553 108.192 134.619 108.517 132.644 108.538 C 130.963 108.557 129.279 108.748 127.605 108.67 C 121.475 108.387 115.564 107.183 110.131 104.172 C 108.282 103.148 106.509 102.003 104.948 100.568 C 103.772 99.487 102.563 98.429 101.496 97.246 C 100.045 95.638 98.769 93.882 97.698 91.988 C 96.415 89.72 95.353 87.355 94.568 84.871 C 93.819 82.505 93.249 80.098 92.903 77.634 C 92.665 75.942 92.533 74.244 92.378 72.545 C 92.174 70.317 92.274 68.096 92.267 65.873 C 92.264 64.685 92.439 63.493 92.569 62.307 C 92.724 60.895 92.879 59.48 93.1 58.077 C 93.543 55.255 94.255 52.502 95.259 49.822 C 96.316 47 97.659 44.333 99.371 41.854 C 101.067 39.399 103.097 37.256 105.352 35.303 C 108.658 32.439 112.432 30.432 116.544 29.023 C 118.328 28.412 120.186 28.117 122.033 27.755 C 125.114 27.152 128.22 27.23 131.326 27.283 C 132.402 27.302 133.479 27.474 134.547 27.637 C 135.81 27.83 137.084 28.009 138.315 28.34 C 139.797 28.739 141.256 29.242 142.693 29.788 C 145.349 30.797 147.764 32.253 150.029 33.958 C 152.248 35.63 154.205 37.566 155.948 39.737 C 157.585 41.775 158.933 43.981 160.062 46.327 C 161.568 49.455 162.571 52.749 163.224 56.154 C 163.67 58.475 163.935 60.814 164.12 63.174 C 164.346 66.058 164.285 72.087 164.238 72.341 C 145.438 72.341 126.569 72.341 107.727 72.341 C 107.774 73.028 107.78 73.59 107.857 74.142 C 108.374 77.831 109.196 81.431 110.952 84.76 C 112.451 87.602 114.455 90.001 117.009 91.969 C 118.823 93.367 120.816 94.402 122.983 95.048 C 124.529 95.51 126.124 95.872 127.77 95.861 C 128.222 95.857 128.676 96.018 129.125 96.002 C 132.27 95.893 135.363 95.578 138.248 94.122 C 141.483 92.488 143.918 90.049 145.792 86.994 C 146.931 85.135 147.76 83.133 148.555 81.113 C 148.838 80.393 148.857 80.357 149.612 80.421 C 150.745 80.516 151.873 80.678 153.003 80.812 C 154.301 80.965 155.6 81.115 156.898 81.275 C 158.055 81.417 159.21 81.571 160.366 81.721 C 161.41 81.855 162.453 81.99 163.497 82.127 C 163.661 82.149 163.823 82.186 164.012 82.22 C 164.012 82.419 164.046 82.591 164.007 82.744 C 162.887 87.09 161.213 91.199 158.627 94.886 C 157.747 96.141 156.724 97.302 155.708 98.454 C 154.975 99.284 154.145 100.027 153.314 100.851 M 117.704 70.23 C 132.521 70.23 147.338 70.23 162.182 70.23 C 162.2 69.826 162.22 69.542 162.224 69.258 C 162.267 66.03 162.148 62.813 161.715 59.609 C 161.178 55.633 160.251 51.76 158.585 48.102 C 154.675 39.513 148.31 33.596 139.253 30.781 C 133.394 28.96 127.387 28.818 121.387 29.972 C 110.757 32.017 103.129 38.055 98.396 47.738 C 95.579 53.503 94.588 59.712 94.339 66.057 C 94.205 69.481 94.329 72.901 94.78 76.307 C 95.228 79.683 95.972 82.983 97.214 86.158 C 100.31 94.066 105.629 99.916 113.386 103.465 C 117.915 105.537 122.726 106.397 127.669 106.57 C 131.474 106.703 135.256 106.455 138.982 105.611 C 146.478 103.913 152.532 100.033 156.947 93.695 C 159.001 90.747 160.452 87.51 161.518 83.965 C 157.716 83.494 153.971 83.031 150.319 82.579 C 149.499 84.25 148.795 85.843 147.957 87.362 C 145.499 91.822 142.002 95.138 137.127 96.83 C 133.1 98.227 128.965 98.42 124.801 97.611 C 118.024 96.294 113.007 92.469 109.583 86.557 C 106.683 81.551 105.77 76.013 105.509 70.23 C 109.547 70.23 113.54 70.23 117.704 70.23 Z" style="transform-origin: 128.266px 67.968px;"/>
      <path fill="#ffffff" opacity="1.000000" stroke="none" d="M 105.509 70.23 C 105.77 76.013 106.684 81.551 109.583 86.557 C 113.007 92.469 118.024 96.294 124.801 97.611 C 128.965 98.42 133.1 98.227 137.127 96.83 C 142.002 95.138 145.499 91.822 147.957 87.362 C 148.795 85.843 149.499 84.25 150.32 82.579 C 153.971 83.031 157.716 83.494 161.518 83.965 C 160.452 87.51 159.001 90.747 156.947 93.695 C 152.532 100.033 146.478 103.913 138.982 105.611 C 135.256 106.455 131.474 106.703 127.669 106.57 C 122.726 106.397 117.915 105.537 113.386 103.465 C 105.629 99.916 100.31 94.066 97.214 86.158 C 95.972 82.983 95.228 79.683 94.78 76.307 C 94.329 72.901 94.205 69.481 94.339 66.057 C 94.588 59.712 95.579 53.503 98.396 47.738 C 103.129 38.055 110.757 32.017 121.387 29.972 C 127.387 28.818 133.394 28.96 139.253 30.781 C 148.31 33.596 154.675 39.513 158.586 48.102 C 160.251 51.76 161.178 55.633 161.715 59.609 C 162.148 62.813 162.267 66.03 162.224 69.258 C 162.22 69.542 162.2 69.826 162.182 70.23 M 106.755 56.765 C 106.46 58.358 106.238 59.957 106.274 61.62 C 121.108 61.62 135.791 61.62 150.626 61.62 C 150.626 61.377 150.128 55.953 149.478 53.494 C 148.116 48.339 145.247 44.25 140.814 41.278 C 137.553 39.091 133.933 38.038 130.028 37.872 C 126.737 37.733 123.509 38.083 120.464 39.363 C 112.759 42.601 108.382 48.52 106.755 56.765 Z" style="transform-origin: 128.26px 67.918px;"/>
      <path fill="#231f20" opacity="1.000000" stroke="none" d="M 106.77 56.692 C 108.382 48.52 112.759 42.601 120.464 39.363 C 123.509 38.083 126.737 37.733 130.027 37.872 C 133.933 38.038 137.553 39.091 140.814 41.278 C 145.247 44.251 148.116 48.339 149.478 53.494 C 150.128 55.953 150.626 61.377 150.626 61.62 C 135.791 61.62 121.108 61.62 106.274 61.62 C 106.238 59.957 106.46 58.358 106.77 56.692 M 144.984 48.331 C 144.486 47.672 144.034 46.973 143.483 46.364 C 141.569 44.247 139.36 42.528 136.704 41.411 C 134.631 40.538 132.469 40.053 130.239 39.964 C 128.793 39.906 127.333 39.987 125.891 40.126 C 123.98 40.309 122.138 40.83 120.395 41.642 C 117.753 42.871 115.437 44.534 113.562 46.798 C 112.594 47.967 111.728 49.192 111.022 50.537 C 109.913 52.648 109.17 54.885 108.761 57.226 C 108.638 57.93 108.466 59.449 108.466 59.449 C 108.466 59.449 135.208 59.449 148.489 59.449 C 148.508 59.207 147.848 55.523 147.42 53.904 C 146.909 51.972 146.211 50.096 144.984 48.331 Z" style="transform-origin: 128.511px 49.732px;"/>
    </g>
    <g>
      <path fill="#231f20" opacity="1.000000" stroke="none" d="M 247.254 0 L 263.157 0 L 263.181 42.947 L 315.495 42.918 L 315.49 0 L 331.282 0 L 331.317 106.66 L 315.506 106.7 L 315.485 57.509 L 263.232 57.467 L 263.206 106.686 L 247.352 106.708 M 317.563 44.954 L 261.077 44.954 L 261.077 2.022 L 249.331 2.072 L 249.331 104.587 L 261.115 104.587 L 261.115 55.311 L 317.567 55.314 L 317.564 104.602 L 329.349 104.593 L 329.345 2.026 L 317.566 2.092 L 317.563 44.954 Z" style="transform-origin: 289.285px 53.354px;"/>
      <path fill="#ff8800" opacity="1.000000" stroke="none" d="M 261.077 44.954 L 317.564 44.954 L 317.566 2.092 L 329.345 2.026 L 329.349 104.594 L 317.564 104.602 L 317.549 55.314 L 261.115 55.311 L 261.115 104.587 L 249.331 104.587 L 249.331 2.072 L 261.077 2.022 L 261.077 44.954 Z" style="transform-origin: 289.34px 53.316px;"/>
    </g>
    <g>
      <path fill="#231f20" opacity="1.000000" stroke="none" d="M 393.495 103.981 C 391.31 105.37 389.022 106.366 386.611 107.122 C 384.915 107.653 383.19 108.045 381.438 108.206 C 379.318 108.4 377.193 108.552 375.044 108.317 C 373.172 108.111 371.312 107.908 369.488 107.436 C 367.329 106.877 365.252 106.12 363.261 105.094 C 361.709 104.294 360.204 103.442 358.834 102.358 C 356.953 100.869 355.432 99.076 354.248 96.992 C 353.143 95.046 352.289 92.991 351.78 90.816 C 351.424 89.297 351.191 87.745 350.975 86.198 C 350.414 82.196 350.625 28.772 350.625 28.772 L 365.474 28.772 L 365.564 77.681 C 365.567 79.184 365.656 80.514 365.727 82.019 C 365.784 83.22 366.039 84.581 366.398 85.728 C 366.918 87.393 367.612 88.949 368.74 90.341 C 371.054 93.2 374.072 94.647 377.637 95.053 C 379.019 95.21 380.433 95.298 381.815 95.19 C 383.745 95.038 385.633 94.593 387.449 93.862 C 390.023 92.826 392.332 91.404 394.271 89.405 C 395.58 88.056 396.557 86.478 397.229 84.744 C 398.107 82.477 398.557 80.106 398.843 77.684 C 399.151 75.067 399.156 28.899 399.156 28.899 L 414.154 28.825 L 414.236 105.323 C 414.236 106.759 414.302 106.72 412.822 106.717 L 400.546 106.716 C 400.546 106.716 400.528 99.428 400.528 97.798 C 400.368 98.11 396.041 102.438 393.495 103.981 M 401.243 30.827 L 401.055 75.931 C 400.956 78.331 400.574 80.696 399.966 83.021 C 399.072 86.446 397.456 89.476 394.754 91.801 C 389.334 96.463 383.048 98.163 376.019 96.911 C 372.472 96.279 369.484 94.554 367.18 91.748 C 365.138 89.261 364.161 86.344 363.856 83.176 C 363.577 80.276 363.461 30.837 363.461 30.837 L 352.615 30.837 L 352.836 84.024 C 352.908 86.546 353.359 89.01 354.082 91.427 C 355.682 96.773 358.91 100.721 363.958 103.2 C 369.643 105.993 375.605 106.883 381.853 106.059 C 388.136 105.231 393.384 102.419 397.695 97.802 C 399.301 96.082 402.219 91.673 402.608 91.553 C 402.608 92.474 402.646 104.583 402.646 104.583 L 412.075 104.5 L 412.075 30.827 L 401.243 30.827 Z" style="transform-origin: 382.411px 68.604px;"/>
      <path fill="#ff8800" opacity="1.000000" stroke="none" d="M 401.055 75.931 L 401.243 30.827 L 412.075 30.827 L 412.075 104.5 L 402.646 104.583 L 402.608 91.553 C 402.278 91.751 399.301 96.082 397.695 97.802 C 393.384 102.419 388.136 105.231 381.853 106.059 C 375.605 106.883 369.643 105.993 363.958 103.2 C 358.91 100.721 355.682 96.773 354.082 91.427 C 353.359 89.01 352.908 86.546 352.836 84.024 L 352.615 30.837 L 363.461 30.837 C 363.461 30.837 363.577 80.276 363.856 83.176 C 364.161 86.344 365.138 89.26 367.18 91.748 C 369.484 94.554 372.472 96.279 376.019 96.911 C 383.048 98.163 389.334 96.463 394.754 91.801 C 397.456 89.476 399.072 86.446 399.966 83.021 C 400.574 80.696 400.956 78.331 401.055 75.931 Z" style="transform-origin: 382.345px 68.59px;"/>
    </g>
    <g>
      <path fill="#231f20" opacity="1.000000" stroke="none" d="M 499.613 74.271 C 499.384 75.754 499.184 77.162 498.931 78.561 C 498.102 83.147 496.599 87.503 494.32 91.57 C 493.247 93.486 492.011 95.305 490.495 96.914 C 489.733 97.723 489.002 98.564 488.21 99.342 C 486.167 101.351 483.889 103.042 481.392 104.462 C 478.838 105.914 476.143 106.985 473.288 107.616 C 471.822 107.94 470.855 108.112 469.359 108.272 C 468.257 108.39 466.601 108.445 465.494 108.417 C 462.518 108.342 459.612 107.864 456.793 106.85 C 454.736 106.11 452.83 105.099 451.049 103.859 C 449.313 102.65 446.304 99.543 446.18 99.481 L 446.125 105.712 C 446.122 106.674 446.082 106.714 445.095 106.714 L 432.58 106.703 C 432.282 106.68 432.107 106.514 432.089 106.213 L 432.076 0 L 446.96 0 C 446.96 0 446.962 23.479 446.962 35.369 C 447.245 35.157 450.061 32.619 451.436 31.615 C 453.522 30.095 455.831 28.941 458.324 28.245 C 459.935 27.795 461.584 27.413 463.241 27.21 C 465.3 26.958 467.373 26.914 469.464 27.119 C 471.513 27.319 473.532 27.603 475.517 28.133 C 479.562 29.214 483.279 30.965 486.573 33.574 C 489.468 35.867 491.782 38.655 493.668 41.818 C 495.059 44.15 496.241 46.587 497.121 49.15 C 498.101 52.006 498.918 54.916 499.299 57.926 C 499.532 59.758 499.785 61.59 499.941 63.429 C 500.037 64.564 499.992 65.714 499.967 66.856 C 499.926 68.736 499.858 70.616 499.783 72.496 C 499.76 73.063 499.675 73.628 499.613 74.271 M 444.958 41.09 L 444.958 2.014 L 434.206 2.078 L 434.206 104.553 L 444.065 104.48 L 444.065 92.949 C 444.31 93.273 445.939 95.663 446.689 96.671 C 449.719 100.75 453.551 103.746 458.459 105.251 C 461.747 106.259 465.106 106.51 468.53 106.254 C 471.841 106.008 475.03 105.289 478.026 103.877 C 485.613 100.303 491.003 94.581 494.318 86.901 C 496.669 81.455 497.588 75.695 497.873 69.818 C 498.046 66.25 497.931 62.686 497.427 59.139 C 496.727 54.211 495.353 49.492 493.105 45.045 C 491.095 41.07 488.515 37.527 484.874 34.885 C 478.23 30.064 470.79 28.292 462.682 29.374 C 457.56 30.058 453.161 32.316 449.502 35.943 C 448.107 37.325 445.253 40.765 444.958 41.09 Z" style="transform-origin: 466.038px 54.235px;"/>
      <path fill="#ff8800" opacity="1.000000" stroke="none" d="M 444.958 21.166 C 444.958 27.792 444.958 41.09 444.958 41.09 C 445.253 40.765 448.107 37.325 449.502 35.943 C 453.161 32.316 457.56 30.058 462.682 29.374 C 470.79 28.292 478.23 30.064 484.874 34.885 C 488.515 37.527 491.095 41.07 493.105 45.045 C 495.353 49.492 496.727 54.211 497.427 59.139 C 497.931 62.686 498.046 66.25 497.873 69.818 C 497.588 75.695 496.669 81.455 494.318 86.901 C 491.003 94.581 485.613 100.303 478.026 103.877 C 475.03 105.289 471.841 106.007 468.531 106.254 C 465.106 106.51 461.747 106.259 458.459 105.251 C 453.551 103.746 449.72 100.75 446.689 96.671 C 445.94 95.663 444.31 93.273 444.065 92.949 L 444.065 104.48 L 434.206 104.553 L 434.206 2.078 L 444.958 2.014 L 444.958 21.166 M 480.105 44.373 C 479.418 43.688 478.762 42.969 478.04 42.322 C 472.228 37.11 463.766 36.065 456.899 39.776 C 452.651 42.072 449.522 45.499 447.355 49.791 C 444.978 54.496 444.146 59.578 443.95 64.776 C 443.863 67.083 443.996 69.398 444.046 71.71 C 444.103 74.339 444.458 76.935 444.929 79.519 C 445.899 84.841 448.355 89.324 452.334 93.004 C 457.852 98.106 466.179 99.101 472.485 96.281 C 477.402 94.081 480.928 90.401 483.329 85.634 C 485.63 81.064 486.456 76.122 486.725 71.074 C 486.873 68.281 486.852 65.483 486.634 62.686 C 486.442 60.207 486.118 57.752 485.534 55.337 C 484.562 51.317 482.982 47.589 480.105 44.373 Z" style="transform-origin: 466.077px 54.125px;"/>
      <path fill="#231f20" opacity="1.000000" stroke="none" d="M 480.147 44.417 C 482.982 47.589 484.562 51.317 485.534 55.337 C 486.118 57.752 486.441 60.207 486.634 62.686 C 486.852 65.483 486.873 68.281 486.725 71.074 C 486.456 76.122 485.63 81.064 483.329 85.634 C 480.928 90.401 477.402 94.081 472.484 96.281 C 466.179 99.101 457.852 98.106 452.334 93.004 C 448.355 89.324 445.899 84.841 444.929 79.519 C 444.458 76.935 444.103 74.339 444.046 71.71 C 443.996 69.398 443.863 67.083 443.95 64.776 C 444.146 59.578 444.978 54.496 447.355 49.791 C 449.522 45.499 452.651 42.072 456.899 39.776 C 463.766 36.065 472.228 37.11 478.04 42.322 C 478.761 42.969 479.418 43.688 480.147 44.417 M 447.633 81.827 C 448.094 83.02 448.457 84.263 449.036 85.396 C 450.332 87.93 452.047 90.172 454.286 91.951 C 455.577 92.978 456.938 93.927 458.519 94.501 C 459.913 95.006 461.318 95.42 462.803 95.611 C 465.367 95.94 467.868 95.746 470.302 94.907 C 471.978 94.329 473.51 93.481 474.976 92.453 C 476.565 91.34 477.888 89.985 479.105 88.521 C 480.424 86.935 481.382 85.113 482.17 83.207 C 483 81.197 483.577 79.115 483.973 76.978 C 484.389 74.735 484.654 72.477 484.701 70.199 C 484.743 68.172 484.707 66.144 484.705 64.116 C 484.704 63.973 484.71 63.829 484.693 63.688 C 484.472 61.854 484.303 60.013 484.011 58.191 C 483.581 55.508 482.846 52.902 481.679 50.437 C 480.251 47.417 478.154 44.951 475.514 42.906 C 473.092 41.03 470.336 40.028 467.341 39.718 C 465.588 39.536 463.818 39.656 462.067 40.018 C 459.583 40.532 457.387 41.624 455.419 43.181 C 454.572 43.851 453.807 44.627 453.03 45.38 C 450.689 47.652 449.136 50.413 448.02 53.45 C 446.72 56.989 446.185 60.681 446 64.409 C 445.883 66.764 445.818 69.139 446.108 71.504 C 446.292 72.997 446.329 74.508 446.473 76.008 C 446.657 77.938 447.01 79.84 447.633 81.827 Z" style="transform-origin: 465.371px 67.699px;"/>
    </g>
  </g>
</svg>
