<?xml version="1.0" encoding="utf-8"?>
<svg viewBox="0 0 500 500" width="500" height="500" xmlns="http://www.w3.org/2000/svg">
  <path fill="#231f20" opacity="1.000000" d="M 43.606 43.233 C 43.249 43.516 43.261 43.778 43.489 44.082 C 44.137 44.95 89.761 106.968 89.761 106.968 L 69.712 106.989 C 69.1 106.991 68.696 106.801 68.358 106.311 L 31.96 54.555 L 16.635 69.336 C 16.104 69.769 15.916 70.287 15.933 70.976 L 15.944 106.921 L 0 106.975 L 0 0 L 15.9 0.014 L 15.934 50.435 C 15.934 50.435 60.139 6.422 66.096 0.503 C 66.447 0.155 66.807 -0.001 67.303 0 L 88.344 0 C 88.344 0 87.793 0.587 87.64 0.737 C 84.967 3.354 44.279 42.612 43.606 43.233 M 69.641 104.506 C 69.872 104.966 70.299 104.877 70.692 104.877 L 85.665 104.877 C 85.665 104.877 55.496 63.898 40.454 43.466 C 54.672 29.722 83.187 2.152 83.187 2.152 L 68.022 2.149 C 67.467 2.146 67.133 2.383 66.778 2.737 C 58.834 10.673 13.879 55.286 13.879 55.286 L 13.879 2.204 L 2.126 2.204 L 2.126 104.818 L 13.908 104.818 L 13.887 70.476 C 13.884 69.548 14.125 68.9 14.799 68.249 L 32.249 51.347 L 69.641 104.506 Z" style="transform-origin: 44.8805px 53.4945px;" stroke="none"/>
  <path fill="#231f20" opacity="1.000000" stroke="none" d="M 247.254 0.299 L 263.157 0.31 C 263.157 14.531 263.181 43.208 263.181 43.208 L 315.495 43.179 L 315.485 0.35 L 331.282 0.261 L 331.317 106.921 L 315.506 106.961 C 315.506 106.961 315.485 58.13 315.485 57.77 C 314.732 57.556 264.161 57.527 263.232 57.728 C 263.216 58.093 263.206 106.947 263.206 106.947 L 247.352 106.969 M 317.563 45.215 C 315.155 45.215 277.583 45.215 261.077 45.215 C 261.077 30.818 261.077 16.544 261.077 2.283 L 249.331 2.333 C 249.331 36.499 249.331 70.66 249.331 104.848 C 253.262 104.848 257.132 104.848 261.115 104.848 C 261.115 88.389 261.115 71.98 261.115 55.572 C 279.983 55.572 298.845 55.575 317.567 55.575 C 317.573 55.665 317.557 104.836 317.577 104.856 C 319.442 104.856 328.695 104.839 329.349 104.839 C 329.349 70.678 329.345 36.442 329.345 2.287 L 317.566 2.353 C 317.566 2.353 317.568 42.786 317.563 45.215 Z" style="transform-origin: 289.285px 53.615px;"/>
  <path fill="#231f20" opacity="1.000000" stroke="none" d="M 190.813 137.373 C 188.676 137.986 185.431 137.718 185.187 137.684 C 182.667 137.331 180.591 136.914 178.177 136.234 C 177.528 136.051 177.316 135.735 177.253 135.044 C 177.053 132.866 175.746 122.117 175.729 121.712 C 175.992 121.76 179.512 122.569 181.08 122.847 C 183.225 123.227 185.389 123.245 187.542 122.861 C 191.397 122.175 193.935 119.841 195.385 116.322 C 196.72 113.08 197.897 109.772 199.12 106.484 C 199.218 106.218 199.211 105.849 199.11 105.582 C 197.83 102.163 170.257 29.262 170.199 29.014 C 170.502 28.999 180.544 28.973 185.316 28.975 C 186.218 28.975 186.214 28.981 186.519 29.834 C 188.367 34.99 206.669 87.046 206.776 87.26 C 206.968 86.638 226.29 32.368 227.251 29.712 C 227.513 28.988 227.509 28.976 228.286 28.976 C 232.8 28.972 237.314 28.973 241.829 28.976 C 242.049 28.977 242.277 28.959 242.598 28.988 C 242.331 29.748 210.839 113.721 209.112 118.068 C 208.397 119.869 207.638 121.66 206.772 123.393 C 205.547 125.842 204.171 128.209 202.397 130.322 C 201.163 131.792 199.826 133.141 198.271 134.277 C 196.304 135.715 193.179 136.842 190.813 137.373 Z M 228.97 31.072 C 225.882 39.496 207.278 93.689 206.878 95.27 C 206.628 94.941 185.212 32.297 184.773 31.084 C 180.861 31.084 177.027 31.084 173.135 31.084 C 173.229 31.369 196.219 92.097 201.256 105.371 C 201.426 105.817 201.456 106.215 201.278 106.675 C 200.743 108.057 200.28 109.467 199.741 110.848 C 198.788 113.29 197.928 115.78 196.794 118.138 C 195.048 121.765 192.162 124.083 188.144 124.857 C 185.273 125.41 182.41 125.274 179.555 124.717 C 179.096 124.627 178.636 124.546 178.083 124.443 C 178.483 127.828 178.869 131.097 179.252 134.332 C 181.852 135.311 184.747 135.747 187.89 135.627 C 192.799 135.439 196.868 133.481 200.125 129.81 C 202.247 127.417 203.86 124.7 205.221 121.825 C 207.088 117.877 208.69 113.819 210.22 109.732 C 219.936 83.782 239.532 31.352 239.625 31.072 C 236.024 31.072 232.491 31.072 228.97 31.072 Z" style="transform-origin: 206.399px 83.3714px;"/>
  <path fill="#231f20" opacity="1.000000" stroke="none" d="M 393.495 104.242 C 391.31 105.631 389.022 106.627 386.611 107.383 C 384.915 107.914 383.19 108.306 381.438 108.467 C 379.318 108.661 377.193 108.813 375.044 108.578 C 373.172 108.372 371.312 108.169 369.488 107.697 C 367.329 107.138 365.252 106.381 363.261 105.355 C 361.709 104.555 360.204 103.703 358.834 102.619 C 356.953 101.13 355.432 99.337 354.248 97.253 C 353.143 95.307 352.289 93.252 351.78 91.077 C 351.424 89.558 351.191 88.006 350.975 86.459 C 350.414 82.457 350.625 29.033 350.625 29.033 L 365.474 29.033 C 365.474 29.033 365.538 63.226 365.564 77.942 C 365.567 79.445 365.793 80.946 365.864 82.451 C 365.921 83.652 366.039 84.842 366.398 85.989 C 366.918 87.654 367.612 89.21 368.74 90.602 C 371.054 93.461 374.072 94.908 377.637 95.314 C 379.019 95.471 380.433 95.559 381.815 95.451 C 383.745 95.299 385.633 94.854 387.449 94.123 C 390.023 93.087 392.332 91.665 394.271 89.666 C 395.58 88.317 396.557 86.739 397.229 85.005 C 398.107 82.738 398.557 80.367 398.843 77.945 C 399.151 75.328 399.156 29.16 399.156 29.16 L 414.154 29.086 C 414.154 29.086 414.234 80.467 414.236 105.584 C 414.236 107.02 414.302 106.981 412.822 106.978 C 409.107 106.973 400.546 106.977 400.546 106.977 C 400.546 106.977 400.528 99.689 400.528 98.059 C 400.368 98.371 396.041 102.699 393.495 104.242 M 401.243 31.088 C 401.243 33.702 401.159 73.683 401.055 76.192 C 400.956 78.592 400.574 80.957 399.966 83.282 C 399.072 86.707 397.456 89.737 394.754 92.062 C 389.334 96.724 383.048 98.424 376.019 97.172 C 372.472 96.54 369.484 94.815 367.18 92.009 C 365.138 89.522 364.161 86.605 363.856 83.437 C 363.577 80.537 363.461 31.475 363.461 31.098 C 359.793 31.098 356.239 31.098 352.615 31.098 C 352.615 31.528 352.74 80.918 352.836 84.285 C 352.908 86.807 353.359 89.271 354.082 91.688 C 355.682 97.034 358.91 100.982 363.958 103.461 C 369.643 106.254 375.605 107.144 381.853 106.32 C 388.136 105.492 393.384 102.68 397.695 98.063 C 399.301 96.343 402.219 91.934 402.608 91.814 C 402.608 92.735 402.646 104.844 402.646 104.844 L 412.075 104.761 C 412.075 80.21 412.075 55.656 412.075 31.088 C 408.453 31.088 404.895 31.088 401.243 31.088 Z" style="transform-origin: 382.411px 68.8652px;"/>
  <path fill="#231f20" opacity="1.000000" stroke="none" d="M 153.314 100.851 C 151.121 102.656 148.811 104.164 146.284 105.336 C 143.787 106.494 141.187 107.327 138.483 107.832 C 136.553 108.192 134.619 108.517 132.644 108.538 C 130.963 108.557 129.279 108.748 127.605 108.67 C 121.475 108.387 115.564 107.183 110.131 104.172 C 108.282 103.148 106.509 102.003 104.948 100.568 C 103.772 99.487 102.563 98.429 101.496 97.246 C 100.045 95.638 98.769 93.882 97.698 91.988 C 96.415 89.72 95.353 87.355 94.568 84.871 C 93.819 82.505 93.249 80.098 92.903 77.634 C 92.665 75.942 92.533 74.244 92.378 72.545 C 92.174 70.317 92.274 68.096 92.267 65.873 C 92.264 64.685 92.439 63.493 92.569 62.307 C 92.724 60.895 92.879 59.48 93.1 58.077 C 93.543 55.255 94.255 52.502 95.259 49.822 C 96.316 47 97.659 44.333 99.371 41.854 C 101.067 39.399 103.097 37.256 105.352 35.303 C 108.658 32.439 112.432 30.432 116.544 29.023 C 118.328 28.412 120.186 28.117 122.033 27.755 C 125.114 27.152 128.22 27.23 131.326 27.283 C 132.402 27.302 133.479 27.474 134.547 27.637 C 135.81 27.83 137.084 28.009 138.315 28.34 C 139.797 28.739 141.256 29.242 142.693 29.788 C 145.349 30.797 147.764 32.253 150.029 33.958 C 152.248 35.63 154.205 37.566 155.948 39.737 C 157.585 41.775 158.933 43.981 160.062 46.327 C 161.568 49.455 162.571 52.749 163.224 56.154 C 163.67 58.475 163.935 60.814 164.12 63.174 C 164.346 66.058 164.285 72.087 164.238 72.341 C 145.438 72.341 126.569 72.341 107.727 72.341 C 107.774 73.028 107.78 73.59 107.857 74.142 C 108.374 77.831 109.196 81.431 110.952 84.76 C 112.451 87.602 114.455 90.001 117.009 91.969 C 118.823 93.367 120.816 94.402 122.983 95.048 C 124.529 95.51 126.124 95.872 127.77 95.861 C 128.222 95.857 128.676 96.018 129.125 96.002 C 132.27 95.893 135.363 95.578 138.248 94.122 C 141.483 92.488 143.918 90.049 145.792 86.994 C 146.931 85.135 147.76 83.133 148.555 81.113 C 148.838 80.393 148.857 80.357 149.612 80.421 C 150.745 80.516 151.873 80.678 153.003 80.812 C 154.301 80.965 155.6 81.115 156.898 81.275 C 158.055 81.417 159.21 81.571 160.366 81.721 C 161.41 81.855 162.453 81.99 163.497 82.127 C 163.661 82.149 163.823 82.186 164.012 82.22 C 164.012 82.419 164.046 82.591 164.007 82.744 C 162.887 87.09 161.213 91.199 158.627 94.886 C 157.747 96.141 156.724 97.302 155.708 98.454 C 154.975 99.284 154.145 100.027 153.314 100.851 M 117.704 70.23 C 132.521 70.23 147.338 70.23 162.182 70.23 C 162.2 69.826 162.22 69.542 162.224 69.258 C 162.267 66.03 162.148 62.813 161.715 59.609 C 161.178 55.633 160.251 51.76 158.585 48.102 C 154.675 39.513 148.31 33.596 139.253 30.781 C 133.394 28.96 127.387 28.818 121.387 29.972 C 110.757 32.017 103.129 38.055 98.396 47.738 C 95.579 53.503 94.588 59.712 94.339 66.057 C 94.205 69.481 94.329 72.901 94.78 76.307 C 95.228 79.683 95.972 82.983 97.214 86.158 C 100.31 94.066 105.629 99.916 113.386 103.465 C 117.915 105.537 122.726 106.397 127.669 106.57 C 131.474 106.703 135.256 106.455 138.982 105.611 C 146.478 103.913 152.532 100.033 156.947 93.695 C 159.001 90.747 160.452 87.51 161.518 83.965 C 157.716 83.494 153.971 83.031 150.319 82.579 C 149.499 84.25 148.795 85.843 147.957 87.362 C 145.499 91.822 142.002 95.138 137.127 96.83 C 133.1 98.227 128.965 98.42 124.801 97.611 C 118.024 96.294 113.007 92.469 109.583 86.557 C 106.683 81.551 105.77 76.013 105.509 70.23 C 109.547 70.23 113.54 70.23 117.704 70.23 Z" style="transform-origin: 128.266px 67.9681px;"/>
  <path fill="#231f20" opacity="1.000000" stroke="none" d="M 499.613 74.532 C 499.384 76.015 499.184 77.423 498.931 78.822 C 498.102 83.408 496.599 87.764 494.32 91.831 C 493.247 93.747 492.011 95.566 490.495 97.175 C 489.733 97.984 489.002 98.825 488.21 99.603 C 486.167 101.612 483.889 103.303 481.392 104.723 C 478.838 106.175 476.143 107.246 473.288 107.877 C 471.822 108.201 470.315 108.357 468.819 108.517 C 467.717 108.635 466.601 108.706 465.494 108.678 C 462.518 108.603 459.612 108.125 456.793 107.111 C 454.736 106.371 452.83 105.36 451.049 104.12 C 449.313 102.911 446.304 99.804 446.18 99.742 C 446.161 99.978 446.129 104.115 446.125 105.973 C 446.122 106.935 446.082 106.975 445.095 106.975 C 441.095 106.978 432.751 106.978 432.58 106.964 C 432.282 106.941 432.107 106.775 432.089 106.474 C 432.073 106.218 432.076 0.324 432.076 0.324 L 446.962 0.308 C 446.962 0.308 446.962 23.74 446.962 35.63 C 447.245 35.418 450.061 32.88 451.436 31.876 C 453.522 30.356 455.831 29.202 458.324 28.506 C 459.935 28.056 461.584 27.674 463.241 27.471 C 465.3 27.219 467.373 27.175 469.464 27.38 C 471.513 27.58 473.532 27.864 475.517 28.394 C 479.562 29.475 483.279 31.226 486.573 33.835 C 489.468 36.128 491.782 38.916 493.668 42.079 C 495.059 44.411 496.241 46.848 497.121 49.411 C 498.101 52.267 498.918 55.177 499.299 58.187 C 499.532 60.019 499.785 61.851 499.941 63.69 C 500.037 64.825 499.992 65.975 499.967 67.117 C 499.926 68.997 499.858 70.877 499.783 72.757 C 499.76 73.324 499.675 73.889 499.613 74.532 M 444.958 41.351 C 444.958 34.593 444.958 8.62 444.958 2.275 C 443.487 2.087 434.776 2.155 434.206 2.339 C 434.206 36.503 434.206 104.814 434.206 104.814 L 444.065 104.741 C 444.065 104.741 444.065 97.205 444.065 93.21 C 444.31 93.534 445.939 95.924 446.689 96.932 C 449.719 101.011 453.551 104.007 458.459 105.512 C 461.747 106.52 465.106 106.771 468.53 106.515 C 471.841 106.269 475.03 105.55 478.026 104.138 C 485.613 100.564 491.003 94.842 494.318 87.162 C 496.669 81.716 497.588 75.956 497.873 70.079 C 498.046 66.511 497.931 62.947 497.427 59.4 C 496.727 54.472 495.353 49.753 493.105 45.306 C 491.095 41.331 488.515 37.788 484.874 35.146 C 478.23 30.325 470.79 28.553 462.682 29.635 C 457.56 30.319 453.161 32.577 449.502 36.204 C 448.107 37.586 445.253 41.026 444.958 41.351 Z" style="transform-origin: 466.038px 54.496px;"/>
  <path fill="#ffffff" opacity="1.000000" stroke="none" d="M 69.606 104.451 C 57.14 86.725 32.249 51.347 32.249 51.347 L 14.799 68.249 C 14.125 68.9 13.884 69.548 13.887 70.476 L 13.908 104.818 L 2.126 104.818 C 2.126 70.612 2.126 2.204 2.126 2.204 L 13.879 2.204 C 13.879 2.204 13.88 37.588 13.88 55.284 C 13.933 55.314 58.834 10.673 66.778 2.737 C 67.133 2.383 67.467 2.146 68.022 2.149 L 83.195 2.149 C 83.195 2.149 54.672 29.722 40.454 43.466 C 55.496 63.898 85.665 104.877 85.665 104.877 C 85.665 104.877 75.406 104.878 70.692 104.877 C 70.299 104.877 69.872 104.966 69.606 104.451 Z" style="transform-origin: 43.8955px 53.5159px;"/>
  <path fill="#ff8800" opacity="1.000000" stroke="none" d="M 261.077 45.215 C 277.583 45.215 315.155 45.215 317.564 45.215 C 317.568 42.786 317.566 2.353 317.566 2.353 L 329.345 2.287 C 329.345 36.442 329.349 70.694 329.349 104.855 C 328.714 104.845 317.576 104.887 317.564 104.863 C 317.552 104.838 317.597 55.659 317.549 55.575 C 298.827 55.575 279.983 55.572 261.115 55.572 C 261.115 71.98 261.115 88.389 261.115 104.848 C 257.132 104.848 253.262 104.848 249.331 104.848 C 249.331 70.66 249.331 36.499 249.331 2.333 L 261.077 2.283 C 261.077 16.544 261.077 30.818 261.077 45.215 Z" style="transform-origin: 289.34px 53.5768px;"/>
  <path fill="#ffffff" opacity="1.000000" stroke="none" d="M 206.878 95.27 C 207.278 93.689 225.882 39.496 228.97 31.072 C 232.491 31.072 236.061 31.07 239.662 31.07 C 239.569 31.35 219.936 83.782 210.22 109.732 C 208.69 113.819 207.088 117.877 205.22 121.825 C 203.86 124.7 202.247 127.417 200.125 129.81 C 196.868 133.481 192.799 135.439 187.89 135.627 C 184.747 135.747 181.852 135.311 179.252 134.332 C 178.869 131.097 178.483 127.828 178.083 124.443 C 180.817 124.948 185.273 125.41 188.144 124.857 C 192.162 124.083 195.048 121.765 196.794 118.138 C 197.928 115.781 198.788 113.29 199.741 110.848 C 200.28 109.467 200.743 108.057 201.278 106.675 C 201.456 106.215 201.426 105.817 201.256 105.371 C 196.219 92.097 173.229 31.369 173.135 31.084 C 177.027 31.084 180.861 31.084 184.773 31.084 C 185.212 32.297 206.628 94.941 206.878 95.27 Z" style="transform-origin: 206.398px 83.3582px;"/>
  <path fill="#ff8800" opacity="1.000000" stroke="none" d="M 401.055 76.192 C 401.159 73.683 401.243 33.702 401.243 31.088 C 404.895 31.088 408.453 31.088 412.075 31.088 C 412.075 55.656 412.075 80.21 412.075 104.761 L 402.646 104.844 C 402.646 104.844 402.608 92.735 402.608 91.814 C 402.278 92.012 399.301 96.343 397.695 98.063 C 393.384 102.68 388.136 105.492 381.853 106.32 C 375.605 107.144 369.643 106.254 363.958 103.461 C 358.91 100.982 355.682 97.034 354.082 91.688 C 353.359 89.271 352.908 86.807 352.836 84.285 C 352.74 80.918 352.615 31.098 352.615 31.098 L 363.461 31.098 C 363.461 31.098 363.577 80.537 363.856 83.437 C 364.161 86.605 365.138 89.521 367.18 92.009 C 369.484 94.815 372.472 96.54 376.019 97.172 C 383.048 98.424 389.334 96.724 394.754 92.062 C 397.456 89.737 399.072 86.707 399.966 83.282 C 400.574 80.957 400.956 78.592 401.055 76.192 Z" style="transform-origin: 382.345px 68.8513px;"/>
  <path fill="#ffffff" opacity="1.000000" stroke="none" d="M 105.509 70.23 C 105.77 76.013 106.684 81.551 109.583 86.557 C 113.007 92.469 118.024 96.294 124.801 97.611 C 128.965 98.42 133.1 98.227 137.127 96.83 C 142.002 95.138 145.499 91.822 147.957 87.362 C 148.795 85.843 149.499 84.25 150.32 82.579 C 153.971 83.031 157.716 83.494 161.518 83.965 C 160.452 87.51 159.001 90.747 156.947 93.695 C 152.532 100.033 146.478 103.913 138.982 105.611 C 135.256 106.455 131.474 106.703 127.669 106.57 C 122.726 106.397 117.915 105.537 113.386 103.465 C 105.629 99.916 100.31 94.066 97.214 86.158 C 95.972 82.983 95.228 79.683 94.78 76.307 C 94.329 72.901 94.205 69.481 94.339 66.057 C 94.588 59.712 95.579 53.503 98.396 47.738 C 103.129 38.055 110.757 32.017 121.387 29.972 C 127.387 28.818 133.394 28.96 139.253 30.781 C 148.31 33.596 154.675 39.513 158.586 48.102 C 160.251 51.76 161.178 55.633 161.715 59.609 C 162.148 62.813 162.267 66.03 162.224 69.258 C 162.22 69.542 162.2 69.826 162.182 70.23 M 106.755 56.765 C 106.46 58.358 106.238 59.957 106.274 61.62 C 121.108 61.62 135.893 61.62 150.728 61.62 C 150.728 61.377 150.742 61.18 150.726 60.985 C 150.52 58.453 150.128 55.953 149.478 53.494 C 148.116 48.339 145.247 44.25 140.814 41.278 C 137.553 39.091 133.933 38.038 130.028 37.872 C 126.737 37.733 123.509 38.083 120.464 39.363 C 112.759 42.601 108.382 48.52 106.755 56.765 Z" style="transform-origin: 128.26px 67.918px;"/>
  <path fill="#ff8800" opacity="1.000000" stroke="none" d="M 444.958 21.427 C 444.958 28.053 444.958 34.593 444.958 41.351 C 445.253 41.026 448.107 37.586 449.502 36.204 C 453.161 32.577 457.56 30.319 462.682 29.635 C 470.79 28.553 478.23 30.325 484.874 35.146 C 488.515 37.788 491.095 41.331 493.105 45.306 C 495.353 49.753 496.727 54.472 497.427 59.4 C 497.931 62.947 498.046 66.511 497.873 70.079 C 497.588 75.956 496.669 81.716 494.318 87.162 C 491.003 94.842 485.613 100.564 478.026 104.138 C 475.03 105.55 471.841 106.268 468.531 106.515 C 465.106 106.771 461.747 106.52 458.459 105.512 C 453.551 104.007 449.72 101.011 446.689 96.932 C 445.94 95.924 444.31 93.534 444.065 93.21 C 444.065 97.205 444.065 100.985 444.065 104.741 C 443.383 104.929 435.381 104.977 434.206 104.814 C 434.206 70.663 434.206 36.503 434.206 2.339 C 434.776 2.155 443.487 2.087 444.958 2.275 C 444.958 8.62 444.958 14.981 444.958 21.427 M 480.105 44.634 C 479.418 43.949 478.762 43.23 478.04 42.583 C 472.228 37.371 463.766 36.326 456.899 40.037 C 452.651 42.333 449.522 45.76 447.355 50.052 C 444.978 54.757 444.146 59.839 443.95 65.037 C 443.863 67.344 443.996 69.659 444.046 71.971 C 444.103 74.6 444.458 77.196 444.929 79.78 C 445.899 85.102 448.355 89.585 452.334 93.265 C 457.852 98.367 466.179 99.362 472.485 96.542 C 477.402 94.342 480.928 90.662 483.329 85.895 C 485.63 81.325 486.456 76.383 486.725 71.335 C 486.873 68.542 486.852 65.744 486.634 62.947 C 486.442 60.468 486.118 58.013 485.534 55.598 C 484.562 51.578 482.982 47.85 480.105 44.634 Z" style="transform-origin: 466.077px 54.3857px;"/>
  <path fill="#231f20" opacity="1.000000" stroke="none" d="M 106.77 56.692 C 108.382 48.52 112.759 42.601 120.464 39.363 C 123.509 38.083 126.737 37.733 130.027 37.872 C 133.933 38.038 137.553 39.091 140.814 41.278 C 145.247 44.251 148.116 48.339 149.478 53.494 C 150.128 55.953 150.52 58.453 150.726 60.985 C 150.742 61.18 150.751 61.377 150.751 61.62 C 135.916 61.62 121.108 61.62 106.274 61.62 C 106.238 59.957 106.46 58.358 106.77 56.692 M 144.984 48.331 C 144.486 47.672 144.034 46.973 143.483 46.364 C 141.569 44.247 139.36 42.528 136.704 41.411 C 134.631 40.538 132.469 40.053 130.239 39.964 C 128.793 39.906 127.333 39.987 125.891 40.126 C 123.98 40.309 122.138 40.83 120.395 41.642 C 117.753 42.871 115.437 44.534 113.562 46.798 C 112.594 47.967 111.728 49.192 111.022 50.537 C 109.913 52.648 109.17 54.885 108.761 57.226 C 108.638 57.93 108.34 58.655 108.641 59.449 C 121.89 59.449 135.222 59.449 148.503 59.449 C 148.522 59.207 147.848 55.523 147.42 53.904 C 146.909 51.972 146.211 50.096 144.984 48.331 Z" style="transform-origin: 128.511px 49.7318px;"/>
  <path fill="#231f20" opacity="1.000000" stroke="none" d="M 480.147 44.678 C 482.982 47.85 484.562 51.578 485.534 55.598 C 486.118 58.013 486.441 60.468 486.634 62.947 C 486.852 65.744 486.873 68.542 486.725 71.335 C 486.456 76.383 485.63 81.325 483.329 85.895 C 480.928 90.662 477.402 94.342 472.484 96.542 C 466.179 99.362 457.852 98.367 452.334 93.265 C 448.355 89.585 445.899 85.102 444.929 79.78 C 444.458 77.196 444.103 74.6 444.046 71.971 C 443.996 69.659 443.863 67.344 443.95 65.037 C 444.146 59.839 444.978 54.757 447.355 50.052 C 449.522 45.76 452.651 42.333 456.899 40.037 C 463.766 36.326 472.228 37.371 478.04 42.583 C 478.761 43.23 479.418 43.949 480.147 44.678 M 447.633 82.088 C 448.094 83.281 448.457 84.524 449.036 85.657 C 450.332 88.191 452.047 90.433 454.286 92.212 C 455.577 93.239 456.938 94.188 458.519 94.762 C 459.913 95.267 461.318 95.681 462.803 95.872 C 465.367 96.201 467.868 96.007 470.302 95.168 C 471.978 94.59 473.51 93.742 474.976 92.714 C 476.565 91.601 477.888 90.246 479.105 88.782 C 480.424 87.196 481.382 85.374 482.17 83.468 C 483 81.458 483.577 79.376 483.973 77.239 C 484.389 74.996 484.654 72.738 484.701 70.46 C 484.743 68.433 484.707 66.405 484.705 64.377 C 484.704 64.234 484.71 64.09 484.693 63.949 C 484.472 62.115 484.303 60.274 484.011 58.452 C 483.581 55.769 482.846 53.163 481.679 50.698 C 480.251 47.678 478.154 45.212 475.514 43.167 C 473.092 41.291 470.336 40.289 467.341 39.979 C 465.588 39.797 463.818 39.917 462.067 40.279 C 459.583 40.793 457.387 41.885 455.419 43.442 C 454.572 44.112 453.807 44.888 453.03 45.641 C 450.689 47.913 449.136 50.674 448.02 53.711 C 446.72 57.25 446.185 60.942 446 64.67 C 445.883 67.025 445.818 69.4 446.108 71.765 C 446.292 73.258 446.329 74.769 446.473 76.269 C 446.657 78.199 447.01 80.101 447.633 82.088 Z" style="transform-origin: 465.371px 67.96px;"/>
</svg>
