<svg xmlns="http://www.w3.org/2000/svg" xmlns:xlink="http://www.w3.org/1999/xlink" version="1.1" id="Layer_1" x="0px" y="0px" width="100%" viewBox="0 0 6000 1921" enable-background="new 0 0 6000 1921" xml:space="preserve">
<path fill="#231f20" opacity="1.000000" stroke="none" d="
M624.674561,814.356628
	C620.510498,817.661804 620.649841,820.719849 623.302612,824.266846
	C630.869080,834.383911 638.324097,844.584473 645.798035,854.770508
	C674.707458,894.170532 703.559509,933.612854 732.525024,972.971558
	C757.352539,1006.707520 782.325012,1040.336792 807.198242,1074.039185
	C832.860229,1108.810425 858.465881,1143.623291 884.121399,1178.399414
	C920.831726,1228.160278 957.630920,1277.855835 994.267761,1327.670776
	C1024.402954,1368.645386 1054.278198,1409.811157 1084.416504,1450.783569
	C1108.054199,1482.918335 1131.927734,1514.879395 1155.664429,1546.941406
	C1157.760254,1549.772461 1159.619263,1552.778809 1162.592896,1557.195923
	C1157.520874,1557.505005 1154.352905,1557.865234 1151.184814,1557.866577
	C1077.186523,1557.898315 1003.187805,1557.789429 929.190430,1558.053467
	C922.046082,1558.078857 917.335876,1555.856323 913.402161,1550.149536
	C899.053040,1529.332886 884.550049,1508.621338 869.995239,1487.947388
	C846.633972,1454.764526 823.147400,1421.669678 799.786865,1388.486206
	C785.041382,1367.540405 770.494385,1346.454956 755.741821,1325.514160
	C732.369446,1292.338257 708.871582,1259.250610 685.481140,1226.087280
	C671.484009,1206.241943 657.626648,1186.298096 643.641968,1166.443848
	C619.506714,1132.178711 595.280457,1097.977661 571.171936,1063.693726
	C556.629333,1043.013062 542.285156,1022.192871 527.762634,1001.497864
	C514.998779,983.309021 502.110870,965.207153 488.824921,946.426697
	C483.424805,951.021301 478.377136,954.798645 473.932007,959.186340
	C452.819427,980.026001 431.981750,1001.144531 410.837036,1021.951233
	C383.063507,1049.280762 355.131073,1076.449341 327.177551,1103.594971
	C321.699707,1108.914673 315.990082,1114.030518 310.068512,1118.848389
	C303.869873,1123.891602 301.678162,1129.934814 301.870239,1137.975830
	C302.371521,1158.963379 302.039001,1179.970947 302.039001,1200.970459
	C302.039001,1314.967896 302.039001,1428.965210 302.038971,1542.962646
	C302.038971,1547.258179 302.038940,1551.553711 302.038940,1556.948486
	C281.137817,1558.941528 260.935089,1557.588257 240.796539,1557.835083
	C220.133438,1558.088379 199.464844,1557.891235 178.798645,1557.891235
	C158.518433,1557.891235 138.238220,1557.891235 117.524223,1557.891235
	C116.932503,1554.849121 116.292786,1552.678223 116.134430,1550.472778
	C115.920097,1547.487915 116.072128,1544.476685 116.072128,1541.476685
	C116.071663,1137.152588 116.071724,732.828491 116.071709,328.504425
	C116.071709,327.171112 116.069695,325.837830 116.072060,324.504517
	C116.096375,310.793152 116.609192,310.179230 129.924149,310.170532
	C183.589554,310.135406 237.255005,310.145355 290.920410,310.182007
	C294.161621,310.184235 297.402557,310.562836 301.751984,310.835876
	C301.751984,506.363159 301.751984,701.130310 301.751984,895.897461
	C302.423676,896.231262 303.095367,896.565002 303.767090,896.898804
	C306.536621,894.308289 309.384308,891.795959 312.064545,889.116089
	C434.161865,767.031433 556.135071,644.822510 678.371460,522.877258
	C747.719971,453.693939 817.523071,384.966370 887.014709,315.926147
	C891.100830,311.866577 895.299194,310.048798 901.092224,310.059601
	C978.423584,310.203949 1055.755249,310.144653 1133.086792,310.196899
	C1136.237427,310.199036 1139.387695,310.801514 1144.262329,311.300934
	C1141.482788,314.765503 1140.094238,316.910675 1138.313110,318.654694
	C1107.137085,349.178436 1075.954102,379.695282 1044.683838,410.122406
	C1026.552124,427.765106 1008.243652,445.226166 990.049927,462.805237
	C968.979004,483.164246 947.962341,503.579407 926.892883,523.939880
	C908.460754,541.751770 889.971619,559.504639 871.537598,577.314514
	C850.706299,597.440491 829.921387,617.614441 809.091919,637.742371
	C790.418884,655.786499 771.703735,673.786987 753.023804,691.824097
	C732.906372,711.249268 712.837891,730.725342 692.692017,750.120972
	C677.587646,764.662781 662.438049,779.158386 647.222046,793.583313
	C639.971008,800.457581 632.518616,807.119507 624.674561,814.356628
M928.360229,1529.088257
	C931.059082,1534.457642 936.034302,1533.416626 940.619141,1533.417236
	C995.613892,1533.423950 1050.608643,1533.421387 1105.603394,1533.421265
	C1108.124268,1533.421265 1110.645142,1533.421265 1115.272339,1533.421265
	C938.697815,1293.573853 763.364014,1055.411743 587.906982,817.082275
	C753.750061,656.754028 918.830261,497.163483 1083.889771,337.551483
	C1084.018188,337.427307 1083.868164,336.971222 1083.788208,336.687012
	C1083.698853,336.369263 1083.541016,336.070770 1083.334961,335.576294
	C1081.434570,335.486084 1079.447510,335.309906 1077.460449,335.309357
	C1021.465820,335.294037 965.470459,335.423279 909.477417,335.124084
	C902.999573,335.089447 899.104736,337.851196 894.970093,341.981628
	C802.301697,434.556274 709.525879,527.023376 616.838928,619.579346
	C507.170319,729.092896 397.567627,838.672485 287.925781,948.212769
	C285.265686,950.870300 282.479279,953.401428 279.751770,955.991516
	C279.140442,955.646179 278.529083,955.300781 277.917725,954.955444
	C277.917725,748.540649 277.917725,542.125916 277.917725,335.772217
	C231.710617,335.772217 186.484833,335.772217 140.822845,335.772217
	C140.822845,734.989807 140.822845,1133.730957 140.822845,1532.727783
	C186.844147,1532.727783 232.277847,1532.727783 278.255859,1532.727783
	C278.255859,1528.391113 278.255859,1524.746338 278.255859,1521.101562
	C278.255859,1391.447266 278.391083,1261.792603 278.009064,1132.139404
	C277.977142,1121.316284 280.781891,1113.760132 288.646240,1106.163574
	C355.526123,1041.561279 421.985229,976.523376 488.588715,911.634827
	C489.460205,910.785706 490.569061,910.180298 492.197876,909.006653
	C637.527100,1115.572021 782.537842,1321.684814 928.360229,1529.088257
z"/>
<path fill="#231f20" opacity="1.000000" stroke="none" d="
M2999.951904,328.148956
	C3000.016357,323.509888 3000.018066,319.842712 3000.189209,316.183472
	C3000.232422,315.258301 3000.817627,314.358521 3001.118652,313.542664
	C3009.445068,311.345978 3175.767090,311.254822 3185.660645,313.678772
	C3185.660645,479.563690 3185.660645,645.738953 3185.660645,810.805298
	C3187.059570,812.140198 3187.291992,812.380554 3187.544189,812.597595
	C3187.791992,812.810669 3188.035156,813.118225 3188.323975,813.179443
	C3189.617920,813.454285 3190.927734,813.855591 3192.231689,813.855774
	C3391.563232,813.881836 3590.894531,813.878418 3790.226074,813.845276
	C3791.518311,813.845032 3792.810547,813.414856 3795.268799,812.978455
	C3795.527832,809.237244 3796.019287,805.406494 3796.023926,801.575134
	C3796.077393,755.908875 3796.059082,710.242615 3796.059082,664.576294
	C3796.059082,551.910522 3796.059082,439.244720 3796.059082,326.578949
	C3796.059082,322.312469 3796.058838,318.045990 3796.058838,314.137695
	C3804.053711,311.500854 3968.897949,310.891815 3980.321289,313.110016
	C3982.514404,320.443634 3982.923096,1546.220581 3980.530029,1557.262207
	C3977.589844,1557.464355 3974.373047,1557.876099 3971.155518,1557.878418
	C3916.822510,1557.918091 3862.489746,1557.906860 3808.156738,1557.906616
	C3807.489990,1557.906616 3806.822998,1557.919678 3806.156738,1557.901489
	C3797.250000,1557.659180 3796.335449,1556.806396 3796.073975,1548.269897
	C3795.992432,1545.605713 3796.059082,1542.936890 3796.059082,1540.270264
	C3796.058838,1359.271729 3796.059082,1178.273071 3796.059082,997.274536
	C3796.059082,992.700073 3796.058838,988.125549 3796.058838,983.923767
	C3787.275635,981.434143 3197.375244,981.099365 3186.547119,983.436096
	C3186.354004,987.695312 3185.968018,992.242554 3185.967041,996.789734
	C3185.936768,1177.454956 3185.941162,1358.120239 3185.941162,1538.785522
	C3185.941162,1541.118774 3185.955566,1543.452271 3185.938477,1545.785400
	C3185.853760,1557.322144 3185.413086,1557.881470 3174.328125,1557.889160
	C3119.661865,1557.927246 3064.995605,1557.915894 3010.329346,1557.880249
	C3007.408447,1557.878296 3004.487549,1557.497803 3002.351318,1557.348511
	C3001.373779,1556.417114 3001.088135,1556.217529 3000.903809,1555.948608
	C3000.721191,1555.682373 3000.530518,1555.346436 3000.530273,1555.041016
	C3000.327148,1146.401978 3000.139648,737.762878 2999.951904,328.148956
M3737.000000,837.476379
	C3545.471191,837.476379 3353.942383,837.476379 3161.399902,837.476379
	C3161.399902,669.547302 3161.399902,503.041565 3161.399902,336.695923
	C3147.294922,334.549500 3030.891113,335.229492 3024.388916,337.269958
	C3024.388916,735.809875 3024.388916,1134.282593 3024.388916,1533.074097
	C3070.241699,1533.074097 3115.392090,1533.074097 3161.846191,1533.074097
	C3161.846191,1341.089966 3161.846191,1149.688965 3161.846191,958.286133
	C3381.941406,958.286133 3600.729736,958.286133 3819.119141,958.286133
	C3819.674072,959.266235 3819.873779,959.528870 3819.976074,959.825134
	C3820.083984,960.135681 3820.106445,960.477356 3820.152100,960.807434
	C3820.197998,961.136658 3820.235352,961.467712 3820.259033,961.799194
	C3820.282471,962.131470 3820.293945,962.465271 3820.293945,962.798401
	C3820.306152,1150.117798 3820.316650,1337.437256 3820.327881,1524.756714
	C3820.327881,1525.756592 3820.334229,1526.756592 3820.340820,1527.756470
	C3820.343262,1528.089600 3820.339111,1528.424438 3820.368408,1528.755615
	C3820.427002,1529.416748 3820.494141,1530.077881 3820.583740,1530.735474
	C3820.628662,1531.064087 3820.679688,1531.410522 3820.823242,1531.701904
	C3820.963379,1531.986084 3821.215332,1532.219727 3821.437500,1532.457520
	C3821.663818,1532.699219 3821.914062,1532.918701 3822.153809,1533.147827
	C3843.301270,1534.881470 3950.372314,1534.088013 3957.733154,1532.121826
	C3957.733154,1133.643311 3957.733154,735.143066 3957.733154,336.736725
	C3944.749512,334.639923 3828.010254,335.202057 3820.327148,337.507233
	C3820.327148,364.911377 3820.326904,392.529541 3820.326904,420.147705
	C3820.326904,448.145660 3820.326904,476.143585 3820.326904,504.141541
	C3820.326904,531.806152 3820.326904,559.470825 3820.326904,587.135437
	C3820.326904,614.800049 3820.326904,642.464722 3820.326904,670.129333
	C3820.326904,698.127258 3820.331055,726.125244 3820.325928,754.123169
	C3820.320801,781.631226 3820.351562,809.140137 3820.301270,837.476074
	C3792.210449,837.476074 3765.605225,837.476074 3737.000000,837.476379
z"/>
<path fill="#231f20" opacity="1.000000" stroke="none" d="
M2344.201660,1912.279297
	C2334.497314,1913.628174 2325.644531,1914.913940 2316.761230,1915.935913
	C2310.182129,1916.692749 2303.566406,1917.502441 2296.961426,1917.550415
	C2291.370850,1917.591187 2285.774902,1916.129028 2280.177002,1916.097900
	C2250.481934,1915.933105 2222.560547,1907.118774 2194.406738,1899.183960
	C2186.827393,1897.047607 2184.361084,1893.371338 2183.621826,1885.307129
	C2181.292236,1859.902710 2177.444580,1834.640381 2174.400146,1809.297241
	C2172.699219,1795.136963 2171.508301,1780.916382 2169.925293,1766.740967
	C2169.042725,1758.837036 2167.718994,1750.982788 2166.810791,1743.081299
	C2166.368896,1739.236328 2166.423584,1735.334229 2166.216553,1730.614746
	C2169.443848,1730.800781 2171.679443,1730.638062 2173.779053,1731.096680
	C2191.943604,1735.064209 2209.968506,1739.792358 2228.258789,1743.032227
	C2253.284668,1747.465454 2278.529053,1747.673828 2303.645752,1743.200684
	C2348.609619,1735.192749 2378.217041,1707.963257 2395.122803,1666.924194
	C2410.702637,1629.103271 2424.433105,1590.517334 2438.690430,1552.161377
	C2439.843506,1549.058838 2439.752686,1544.761108 2438.583252,1541.639282
	C2423.644775,1501.757568 2408.342285,1462.012573 2393.258789,1422.185059
	C2380.767578,1389.202637 2368.491943,1356.138794 2356.033447,1323.144043
	C2342.987305,1288.593262 2329.844727,1254.078857 2316.729248,1219.554199
	C2304.559570,1187.518555 2292.315430,1155.511108 2280.201172,1123.454468
	C2257.265625,1062.763794 2234.440430,1002.031494 2211.493652,941.345093
	C2187.605225,878.167969 2163.650391,815.015991 2139.678467,751.870544
	C2127.515869,719.832153 2115.235840,687.838318 2103.071777,655.800415
	C2102.272949,653.696228 2102.012451,651.387634 2101.345215,648.497375
	C2104.869629,648.321655 2107.783203,648.050964 2110.697021,648.049622
	C2166.355469,648.024475 2222.014160,648.021118 2277.672607,648.039917
	C2288.195312,648.043518 2288.148438,648.113098 2291.713623,658.063599
	C2313.266846,718.213379 2334.817383,778.364197 2356.421631,838.495728
	C2371.500000,880.463684 2386.648438,922.406677 2401.792725,964.351013
	C2421.682617,1019.438843 2441.753174,1074.461914 2461.452393,1129.617676
	C2475.782715,1169.741089 2490.001221,1209.912231 2503.567871,1250.297729
	C2511.720703,1274.566162 2518.522949,1299.288208 2525.958008,1323.798584
	C2526.217529,1324.654785 2526.750000,1325.428101 2527.995361,1327.923706
	C2530.239746,1320.666748 2532.190430,1314.859253 2533.833740,1308.966187
	C2546.980713,1261.820801 2561.967285,1215.284790 2579.136719,1169.436768
	C2590.572754,1138.898560 2601.326904,1108.105713 2612.548096,1077.486084
	C2625.945068,1040.929932 2639.561768,1004.454468 2652.994873,967.911621
	C2663.788086,938.551331 2674.396973,909.123230 2685.183105,879.760193
	C2701.131348,836.343506 2717.224854,792.980408 2733.138428,749.551086
	C2744.473145,718.618469 2755.625244,687.618774 2766.832520,656.639587
	C2769.885498,648.200500 2769.842529,648.060120 2778.901611,648.052856
	C2831.560547,648.010803 2884.219482,648.022705 2936.878418,648.061279
	C2939.442383,648.063171 2942.006104,648.488159 2945.748779,648.821045
	C2942.631104,657.694885 2939.939697,665.805298 2936.944580,673.802063
	C2923.409668,709.942078 2909.766846,746.041748 2896.204102,782.171448
	C2878.429199,829.522461 2860.670898,876.879700 2842.946777,924.249756
	C2828.023193,964.135193 2813.181641,1004.051453 2798.262207,1043.938477
	C2780.542236,1091.311035 2762.762207,1138.661133 2745.038086,1186.032104
	C2732.213623,1220.307861 2719.456055,1254.608521 2706.635742,1288.885742
	C2688.802246,1336.567505 2670.926025,1384.233398 2653.090820,1431.914673
	C2640.268555,1466.194336 2627.731689,1500.583496 2614.622314,1534.752930
	C2595.079102,1585.691406 2575.395508,1636.579346 2555.253418,1687.283081
	C2546.906982,1708.293701 2538.051270,1729.187134 2527.950439,1749.395630
	C2513.666992,1777.971924 2497.614746,1805.577637 2476.920898,1830.228638
	C2462.527100,1847.374878 2446.935303,1863.108398 2428.795898,1876.364990
	C2405.843750,1893.138794 2380.395752,1904.025024 2352.793213,1910.218872
	C2350.198486,1910.801025 2347.623779,1911.472900 2344.201660,1912.279297
M2678.568604,967.637695
	C2658.668945,1021.967407 2639.007324,1076.385864 2618.812256,1130.605469
	C2590.010986,1207.930786 2563.372314,1285.930908 2543.194580,1366.017456
	C2538.545898,1384.469116 2533.855957,1402.910400 2529.185059,1421.356445
	C2526.273193,1417.520020 2525.031494,1413.546265 2523.996338,1409.519409
	C2505.612061,1338.000854 2485.025391,1267.146484 2460.053711,1197.617676
	C2402.394775,1037.079346 2344.712158,876.549744 2287.030518,716.019653
	C2281.776367,701.396606 2276.463379,686.794617 2271.345703,672.647583
	C2225.710205,672.647583 2180.990234,672.647583 2135.587158,672.647583
	C2136.685059,675.964905 2137.415527,678.481079 2138.340820,680.923401
	C2188.053955,812.155457 2237.785156,943.380737 2287.510742,1074.608032
	C2346.192383,1229.470703 2404.856201,1384.340454 2463.614502,1539.174072
	C2465.591309,1544.383179 2465.938721,1549.020630 2463.862305,1554.391235
	C2457.628662,1570.514526 2452.231689,1586.962402 2445.943848,1603.063110
	C2434.819092,1631.550781 2424.790771,1660.604004 2411.559082,1688.099854
	C2391.195557,1730.414917 2357.532959,1757.453735 2310.660156,1766.477539
	C2277.173096,1772.924561 2243.776367,1771.336914 2210.477295,1764.843384
	C2205.124512,1763.799805 2199.754150,1762.848999 2193.303467,1761.653564
	C2197.970215,1801.134155 2202.476807,1839.260132 2206.937744,1876.999878
	C2237.271484,1888.423096 2271.042969,1893.503784 2307.697021,1892.104004
	C2364.960938,1889.917114 2412.430908,1867.075439 2450.414307,1824.247803
	C2475.166016,1796.339722 2493.984619,1764.649048 2509.855225,1731.105469
	C2531.639404,1685.063477 2550.321533,1637.721802 2568.169189,1590.052979
	C2681.503906,1287.353394 2794.766357,984.626770 2908.036621,681.903015
	C2909.169678,678.874939 2910.090332,675.767212 2911.172119,672.510010
	C2869.171875,672.510010 2827.961914,672.510010 2786.891357,672.510010
	C2750.868896,770.772888 2715.044189,868.496399 2678.568604,967.637695
z"/>
<path fill="#231f20" opacity="1.000000" stroke="none" d="
M4706.019043,1526.013672
	C4680.534180,1542.212402 4653.846680,1553.830688 4625.712891,1562.647095
	C4605.937012,1568.844360 4585.816895,1573.413086 4565.381836,1575.289429
	C4540.648438,1577.560303 4515.864258,1579.333496 4490.787109,1576.583496
	C4468.955078,1574.189453 4447.258789,1571.815063 4425.980957,1566.311035
	C4400.795898,1559.796265 4376.570801,1550.964233 4353.344238,1538.990845
	C4335.242188,1529.659058 4317.693848,1519.721191 4301.711426,1507.075195
	C4279.770508,1489.714478 4262.029297,1468.799927 4248.218750,1444.490967
	C4235.319824,1421.786377 4225.366211,1397.809326 4219.426270,1372.443726
	C4215.276367,1354.723145 4212.559570,1336.622437 4210.030762,1318.575317
	C4203.490234,1271.892822 4206.107422,1224.885498 4206.043945,1178.004761
	C4205.812012,1006.020386 4205.951660,834.035583 4205.952148,662.050903
	C4205.952148,657.827332 4205.952148,653.603821 4205.952148,648.724487
	C4264.257324,648.724487 4321.095703,648.724487 4379.156738,648.724487
	C4379.420410,652.273438 4379.886719,655.772949 4379.906250,659.275024
	C4379.989258,674.273254 4379.938965,689.272156 4379.941895,704.270813
	C4379.976562,875.921936 4379.903809,1047.573242 4380.211914,1219.223877
	C4380.243652,1236.758301 4382.882324,1254.273315 4383.715332,1271.825684
	C4384.379883,1285.837158 4385.751953,1299.711060 4389.934082,1313.089844
	C4396.005859,1332.513062 4404.106445,1350.663574 4417.254883,1366.905762
	C4444.248535,1400.250854 4479.452148,1417.130981 4521.038086,1421.865234
	C4537.159668,1423.700684 4553.659180,1424.726196 4569.778320,1423.461426
	C4592.287598,1421.695190 4614.311523,1416.500244 4635.491211,1407.974609
	C4665.518555,1395.887329 4692.448730,1379.304077 4715.070312,1355.986084
	C4730.339355,1340.245972 4741.735352,1321.847534 4749.574707,1301.614014
	C4759.817383,1275.177246 4765.066895,1247.516724 4768.397949,1219.263550
	C4771.998047,1188.732300 4772.045410,1158.222778 4772.049316,1127.638672
	C4772.068359,972.652466 4772.058105,817.666321 4772.058105,662.680115
	C4772.058105,658.408752 4772.057617,654.137390 4772.057617,650.206787
	C4780.004883,647.595093 4934.868652,646.995789 4946.993652,649.344604
	C4947.288574,651.652649 4947.708496,654.188660 4947.907227,656.741882
	C4948.061523,658.729736 4947.941406,660.739075 4947.941406,662.738892
	C4947.941406,955.712769 4947.936035,1248.686646 4947.956543,1541.660522
	C4947.957520,1558.419678 4948.728516,1557.955566 4931.456543,1557.930908
	C4888.126953,1557.868896 4844.797852,1557.910400 4801.468262,1557.910400
	C4797.553711,1557.910400 4793.639648,1557.910278 4788.262207,1557.910278
	C4787.870605,1539.908081 4788.109375,1523.037842 4788.066895,1506.179077
	C4788.024902,1489.539062 4788.057617,1472.898804 4788.057617,1453.890869
	C4784.623535,1457.133423 4782.440918,1458.824219 4780.704590,1460.890015
	C4759.352539,1486.297852 4734.528809,1507.722168 4706.019043,1526.013672
M4796.398926,764.999939
	C4796.398926,880.317322 4796.535645,995.635010 4796.303711,1110.951904
	C4796.245117,1140.243896 4795.414551,1169.549805 4794.206055,1198.819214
	C4793.051270,1226.806274 4788.586914,1254.403442 4781.504883,1281.517700
	C4771.070312,1321.465698 4752.219727,1356.817139 4720.700195,1383.932739
	C4657.485352,1438.316528 4584.162109,1458.144165 4502.161133,1443.539551
	C4460.787109,1436.170898 4425.931641,1416.046387 4399.056152,1383.311401
	C4375.237793,1354.300415 4363.840332,1320.283936 4360.285156,1283.328857
	C4357.029297,1249.493774 4355.677734,1215.570679 4355.678711,1181.586182
	C4355.684570,1016.275696 4355.681152,850.965149 4355.681152,685.654663
	C4355.681152,681.432678 4355.681152,677.210632 4355.681152,672.812988
	C4312.897949,672.812988 4271.440918,672.812988 4229.161621,672.812988
	C4229.161621,677.829163 4229.161621,682.124695 4229.161621,686.420166
	C4229.161621,849.397644 4229.003906,1012.375427 4229.276855,1175.352417
	C4229.342773,1214.644653 4230.623535,1253.940674 4231.743652,1293.223511
	C4232.582520,1322.638672 4237.845215,1351.381592 4246.281738,1379.574951
	C4264.941895,1441.933472 4302.595215,1487.984741 4361.472656,1516.903931
	C4427.790039,1549.477783 4497.338867,1559.856323 4570.222656,1550.249146
	C4643.505371,1540.589233 4704.724609,1507.786377 4755.013672,1453.932861
	C4773.743164,1433.875610 4789.223633,1411.387207 4804.737305,1388.890747
	C4806.611328,1386.172974 4807.779297,1382.440308 4812.318848,1381.045288
	C4812.318848,1391.789062 4812.318848,1401.771118 4812.318848,1411.753052
	C4812.318848,1422.084961 4812.318848,1432.416870 4812.318848,1442.748779
	C4812.318848,1452.747437 4812.318848,1462.745972 4812.318848,1472.744629
	C4812.318848,1483.076538 4812.228516,1493.409424 4812.345703,1503.740112
	C4812.457031,1513.566772 4811.800781,1523.451172 4812.757812,1533.035034
	C4834.625000,1534.856567 4915.262207,1534.085083 4922.748535,1532.060669
	C4922.748535,1245.687744 4922.748535,959.265076 4922.748535,672.691772
	C4880.498047,672.691772 4838.996582,672.691772 4796.399414,672.691772
	C4796.399414,703.187805 4796.399414,733.093872 4796.398926,764.999939
z"/>
<path fill="#231f20" opacity="1.000000" stroke="none" d="
M1904.385986,1486.455688
	C1878.800659,1507.511230 1851.854004,1525.105713 1822.380249,1538.773926
	C1793.253784,1552.280762 1762.920166,1561.997559 1731.388672,1567.881348
	C1708.874146,1572.082642 1686.311035,1575.872437 1663.271851,1576.126465
	C1643.669800,1576.342529 1624.016235,1578.567871 1604.488770,1577.664917
	C1532.987305,1574.359131 1464.045166,1560.311401 1400.666504,1525.196411
	C1379.100342,1513.247559 1358.419556,1499.895264 1340.204712,1483.148682
	C1326.492188,1470.541504 1312.390747,1458.204224 1299.945068,1444.409424
	C1283.016846,1425.646118 1268.135742,1405.160889 1255.634155,1383.066528
	C1240.670532,1356.620728 1228.286987,1329.031494 1219.124878,1300.059082
	C1210.394775,1272.453125 1203.742676,1244.374512 1199.707764,1215.638794
	C1196.936157,1195.900146 1195.393066,1176.098755 1193.578735,1156.277710
	C1191.199829,1130.290649 1192.370972,1104.378540 1192.291260,1078.450684
	C1192.248779,1064.586914 1194.297729,1050.691162 1195.812378,1036.854736
	C1197.616333,1020.375854 1199.430176,1003.877625 1202.002686,987.507690
	C1207.175293,954.591980 1215.478760,922.481689 1227.192505,891.212708
	C1239.522217,858.299561 1255.187012,827.194031 1275.159302,798.278564
	C1294.938232,769.642822 1318.617188,744.642517 1344.915527,721.858887
	C1383.482300,688.446350 1427.505249,665.036560 1475.475220,648.607300
	C1496.278320,641.482483 1517.960205,638.034851 1539.494019,633.818848
	C1575.437866,626.781616 1611.669556,627.686401 1647.893799,628.309692
	C1660.444824,628.525513 1673.018311,630.534058 1685.472900,632.436096
	C1700.204468,634.685913 1715.070068,636.771423 1729.418701,640.633301
	C1746.709106,645.286865 1763.734619,651.159973 1780.486694,657.526733
	C1811.468018,669.301392 1839.648804,686.275635 1866.060913,706.169983
	C1891.947510,725.668457 1914.774780,748.253906 1935.104492,773.574768
	C1954.196655,797.354126 1969.926514,823.081238 1983.099609,850.446045
	C2000.667969,886.941589 2012.364990,925.364319 2019.983154,965.080200
	C2025.177002,992.157898 2028.275635,1019.436951 2030.429443,1046.963135
	C2033.062012,1080.605835 2031.162720,1114.182617 2031.853516,1147.776855
	C2031.885986,1149.350098 2031.311890,1150.935913 2030.764648,1153.899902
	C1811.475830,1153.899902 1592.410400,1153.899902 1372.621948,1153.899902
	C1373.178101,1161.907349 1373.242554,1168.464722 1374.144287,1174.904785
	C1380.168213,1217.928345 1389.759155,1259.923340 1410.241089,1298.759766
	C1427.725586,1331.912354 1451.102905,1359.896484 1480.895142,1382.854736
	C1502.052979,1399.158936 1525.303833,1411.226440 1550.576050,1418.767456
	C1568.615723,1424.150391 1587.223511,1428.381226 1606.425049,1428.245117
	C1611.687622,1428.207764 1616.982544,1430.074341 1622.221924,1429.892700
	C1658.909302,1428.620483 1694.990845,1424.944946 1728.636719,1407.961060
	C1766.382202,1388.907471 1794.776611,1360.453613 1816.634521,1324.815430
	C1829.929565,1303.138306 1839.595947,1279.777100 1848.871460,1256.213379
	C1852.174805,1247.821411 1852.397827,1247.399902 1861.194092,1248.141968
	C1874.413330,1249.257202 1887.567627,1251.141846 1900.749146,1252.702393
	C1915.896606,1254.495728 1931.050293,1256.238403 1946.189087,1258.103638
	C1959.682007,1259.765991 1973.158447,1261.562622 1986.641602,1263.304321
	C1998.815308,1264.877075 2010.989746,1266.442383 2023.159546,1268.044922
	C2025.074585,1268.297241 2026.965942,1268.729370 2029.167725,1269.133179
	C2029.167725,1271.452759 2029.569092,1273.460205 2029.109253,1275.245850
	C2016.052612,1325.936890 1996.524292,1373.865723 1966.354004,1416.880127
	C1956.086792,1431.518311 1944.162231,1445.060913 1932.303589,1458.494019
	C1923.759888,1468.171997 1914.071289,1476.839233 1904.385986,1486.455688
M1488.999512,1129.276611
	C1661.836792,1129.276611 1834.673950,1129.276611 2007.826050,1129.276611
	C2008.032471,1124.557739 2008.265015,1121.245850 2008.309326,1117.931519
	C2008.812622,1080.284912 2007.431396,1042.758301 2002.378052,1005.380554
	C1996.107544,959.000549 1985.303833,913.824402 1965.871826,871.150085
	C1920.254639,770.971619 1846.010620,701.943481 1740.363647,669.107971
	C1672.016357,647.865540 1601.949097,646.215515 1531.965332,659.678589
	C1407.967163,683.532654 1318.991211,753.959229 1263.782593,866.914856
	C1230.915649,934.159424 1219.358887,1006.576294 1216.461182,1080.594116
	C1214.897461,1120.537720 1216.342163,1160.429199 1221.604858,1200.156372
	C1226.822266,1239.541504 1235.500977,1278.035767 1249.994385,1315.062256
	C1286.105347,1407.315063 1348.153564,1475.545776 1438.634644,1516.941162
	C1491.466553,1541.112061 1547.585571,1551.152100 1605.242554,1553.168823
	C1649.620361,1554.720947 1693.738892,1551.827393 1737.201172,1541.982056
	C1824.638794,1522.175293 1895.256592,1476.919434 1946.757690,1402.987915
	C1970.717651,1368.592529 1987.640259,1330.833496 2000.076660,1289.480347
	C1955.728516,1283.993164 1912.051147,1278.588867 1869.452026,1273.318115
	C1859.885620,1292.807251 1851.664307,1311.387817 1841.894409,1329.114990
	C1813.224854,1381.134399 1772.427002,1419.817627 1715.562500,1439.548340
	C1668.588867,1455.847046 1620.360352,1458.101318 1571.782715,1448.660522
	C1492.736816,1433.298096 1434.217163,1388.686279 1394.270630,1319.716309
	C1360.451660,1261.326050 1349.791992,1196.731934 1346.755737,1129.276611
	C1393.853516,1129.276611 1440.426392,1129.276611 1488.999512,1129.276611
z"/>
<path fill="#231f20" opacity="1.000000" stroke="none" d="
M5943.857910,1179.457520
	C5941.186523,1196.746216 5938.850586,1213.175171 5935.900391,1229.492920
	C5926.228516,1282.983643 5908.696777,1333.794556 5882.114258,1381.237183
	C5869.590820,1403.589233 5855.177734,1424.803589 5837.496094,1443.573486
	C5828.604492,1453.012207 5820.079590,1462.820557 5810.840332,1471.903564
	C5787.009766,1495.331787 5760.435059,1515.060547 5731.312012,1531.619995
	C5701.522461,1548.558716 5670.086914,1561.049316 5636.776367,1568.409668
	C5619.678711,1572.187622 5602.097168,1574.005859 5584.645508,1575.876343
	C5571.793945,1577.253784 5558.778320,1578.078125 5545.870605,1577.754883
	C5511.152344,1576.885376 5477.255371,1571.298096 5444.372070,1559.471436
	C5420.379883,1550.842407 5398.144043,1539.054077 5377.372070,1524.590454
	C5357.114746,1510.485718 5338.859863,1493.967773 5323.119141,1474.820190
	C5322.757324,1474.379272 5322.024902,1474.242798 5320.573730,1473.520386
	C5320.347168,1476.276123 5319.974121,1478.739624 5319.968750,1481.203735
	C5319.921875,1502.868286 5319.978516,1524.533081 5319.926270,1546.197510
	C5319.899414,1557.423706 5319.432129,1557.887085 5307.920410,1557.895142
	C5261.258301,1557.927979 5214.595703,1557.910278 5167.933594,1557.903564
	C5165.934570,1557.903198 5163.928223,1557.922485 5161.938477,1557.764038
	C5158.459473,1557.487183 5156.415527,1555.558472 5156.204102,1552.046753
	C5156.024414,1549.056274 5156.063477,1546.050781 5156.063477,1543.051880
	C5156.058105,1137.423340 5156.058594,731.794800 5156.058594,326.166290
	C5156.058594,321.935852 5156.058594,317.705414 5156.058594,313.842896
	C5165.564453,311.347351 5319.842285,311.258179 5329.692383,313.656464
	C5329.692383,450.180145 5329.692383,586.977722 5329.692383,725.669250
	C5332.995117,723.196289 5334.777832,722.013794 5336.388672,720.631287
	C5351.512207,707.654785 5365.838867,693.591797 5381.887695,681.888794
	C5406.212891,664.150085 5433.152832,650.692688 5462.225098,642.572144
	C5481.020996,637.321960 5500.251465,632.867798 5519.586426,630.502014
	C5543.601562,627.563599 5567.787598,627.049194 5592.172852,629.434143
	C5616.074707,631.771851 5639.628906,635.085388 5662.785156,641.270508
	C5709.970215,653.873779 5753.320312,674.296936 5791.746582,704.738220
	C5825.509277,731.485168 5852.508301,764.008667 5874.505859,800.894226
	C5890.730957,828.100281 5904.523438,856.532104 5914.780762,886.421997
	C5926.213867,919.735901 5935.742676,953.683655 5940.193359,988.792664
	C5942.902344,1010.164612 5945.862305,1031.527100 5947.681152,1052.981079
	C5948.803223,1066.222168 5948.273926,1079.633545 5947.982422,1092.957275
	C5947.501953,1114.892944 5946.714355,1136.823730 5945.834961,1158.747681
	C5945.569824,1165.362427 5944.573242,1171.947876 5943.857910,1179.457520
M5306.315430,559.000000
	C5306.315430,484.805542 5306.315430,410.611053 5306.315430,336.599640
	C5289.158203,334.402222 5187.554199,335.192383 5180.897461,337.347412
	C5180.897461,735.856201 5180.897461,1134.321289 5180.897461,1532.684448
	C5194.605957,1534.586182 5287.945312,1534.020264 5295.901367,1531.833252
	C5295.901367,1488.016479 5295.901367,1443.923950 5295.901367,1397.324097
	C5298.759277,1401.103638 5300.151855,1402.818481 5301.408203,1404.627808
	C5309.770508,1416.669434 5317.768066,1428.980957 5326.506836,1440.742065
	C5361.860840,1488.322266 5406.558594,1523.272339 5463.804688,1540.822510
	C5502.152832,1552.578979 5541.337402,1555.505127 5581.284668,1552.527588
	C5619.904785,1549.649048 5657.096680,1541.268555 5692.046875,1524.802246
	C5780.547852,1483.105957 5843.419434,1416.364380 5882.089844,1326.776733
	C5909.511719,1263.247559 5920.226562,1196.060547 5923.554688,1127.511841
	C5925.575684,1085.885498 5924.232422,1044.321899 5918.353027,1002.946960
	C5910.184082,945.464111 5894.161133,890.415466 5867.935059,838.543762
	C5844.490723,792.173767 5814.393066,750.849243 5771.929688,720.032654
	C5694.430664,663.789185 5607.643555,643.121277 5513.068848,655.744995
	C5453.313965,663.721008 5402.000000,690.062195 5359.325195,732.366760
	C5343.055664,748.494751 5328.950195,766.804810 5313.844238,784.108215
	C5311.844727,786.398926 5309.761230,788.616638 5306.315430,792.411011
	C5306.315430,713.576172 5306.315430,637.288086 5306.315430,559.000000
z"/>
<path fill="#ffffff" opacity="1.000000" stroke="none" d="
M927.954468,1528.442871
	C782.537842,1321.684814 637.527100,1115.572021 492.197876,909.006653
	C490.569061,910.180298 489.460205,910.785706 488.588715,911.634827
	C421.985229,976.523376 355.526123,1041.561279 288.646240,1106.163574
	C280.781891,1113.760132 277.977142,1121.316284 278.009064,1132.139404
	C278.391083,1261.792603 278.255859,1391.447266 278.255859,1521.101562
	C278.255859,1524.746338 278.255859,1528.391113 278.255859,1532.727783
	C232.277847,1532.727783 186.844147,1532.727783 140.822845,1532.727783
	C140.822845,1133.730957 140.822845,734.989807 140.822845,335.772217
	C186.484833,335.772217 231.710617,335.772217 277.917725,335.772217
	C277.917725,542.125916 277.917725,748.540649 277.917725,954.955444
	C278.529083,955.300781 279.140442,955.646179 279.751770,955.991516
	C282.479279,953.401428 285.265686,950.870300 287.925781,948.212769
	C397.567627,838.672485 507.170319,729.092896 616.838928,619.579346
	C709.525879,527.023376 802.301697,434.556274 894.970093,341.981628
	C899.104736,337.851196 902.999573,335.089447 909.477417,335.124084
	C965.470459,335.423279 1021.465820,335.294037 1077.460449,335.309357
	C1079.447510,335.309906 1081.434570,335.486084 1083.334961,335.576294
	C1083.541016,336.070770 1083.698853,336.369263 1083.788208,336.687012
	C1083.868164,336.971222 1084.018188,337.427307 1083.889771,337.551483
	C918.830261,497.163483 753.750061,656.754028 587.906982,817.082275
	C763.364014,1055.411743 938.697815,1293.573853 1115.272339,1533.421265
	C1110.645142,1533.421265 1108.124268,1533.421265 1105.603394,1533.421265
	C1050.608643,1533.421387 995.613892,1533.423950 940.619141,1533.417236
	C936.034302,1533.416626 931.059082,1534.457642 927.954468,1528.442871
z"/>
<path fill="#ff8800" opacity="1.000000" stroke="none" d="
M3738.000000,837.476196
	C3765.605225,837.476074 3792.210449,837.476074 3820.301270,837.476074
	C3820.351562,809.140137 3820.320801,781.631226 3820.325928,754.123169
	C3820.331055,726.125244 3820.326904,698.127258 3820.326904,670.129333
	C3820.326904,642.464722 3820.326904,614.800049 3820.326904,587.135437
	C3820.326904,559.470825 3820.326904,531.806152 3820.326904,504.141541
	C3820.326904,476.143585 3820.326904,448.145660 3820.326904,420.147705
	C3820.326904,392.529541 3820.327148,364.911377 3820.327148,337.507233
	C3828.010254,335.202057 3944.749512,334.639923 3957.733154,336.736725
	C3957.733154,735.143066 3957.733154,1133.643311 3957.733154,1532.121826
	C3950.372314,1534.088013 3843.301270,1534.881470 3822.153809,1533.147827
	C3821.914062,1532.918701 3821.663818,1532.699219 3821.437500,1532.457520
	C3821.215332,1532.219727 3820.963379,1531.986084 3820.823242,1531.701904
	C3820.679688,1531.410522 3820.628662,1531.064087 3820.583740,1530.735474
	C3820.494141,1530.077881 3820.427002,1529.416748 3820.368408,1528.755615
	C3820.339111,1528.424438 3820.343262,1528.089600 3820.340820,1527.756470
	C3820.334229,1526.756592 3820.327881,1525.756592 3820.327881,1524.756714
	C3820.316650,1337.437256 3820.306152,1150.117798 3820.293945,962.798401
	C3820.293945,962.465271 3820.282471,962.131470 3820.259033,961.799194
	C3820.235352,961.467712 3820.197998,961.136658 3820.152100,960.807434
	C3820.106445,960.477356 3820.083984,960.135681 3819.976074,959.825134
	C3819.873779,959.528870 3819.674072,959.266235 3819.119141,958.286133
	C3600.729736,958.286133 3381.941406,958.286133 3161.846191,958.286133
	C3161.846191,1149.688965 3161.846191,1341.089966 3161.846191,1533.074097
	C3115.392090,1533.074097 3070.241699,1533.074097 3024.388916,1533.074097
	C3024.388916,1134.282593 3024.388916,735.809875 3024.388916,337.269958
	C3030.891113,335.229492 3147.294922,334.549500 3161.399902,336.695923
	C3161.399902,503.041565 3161.399902,669.547302 3161.399902,837.476379
	C3353.942383,837.476379 3545.471191,837.476379 3738.000000,837.476196
z"/>
<path fill="#ffffff" opacity="1.000000" stroke="none" d="
M2678.894043,966.928833
	C2715.044189,868.496399 2750.868896,770.772888 2786.891357,672.510010
	C2827.961914,672.510010 2869.171875,672.510010 2911.172119,672.510010
	C2910.090332,675.767212 2909.169678,678.874939 2908.036621,681.903015
	C2794.766357,984.626770 2681.503906,1287.353394 2568.169189,1590.052979
	C2550.321533,1637.721802 2531.639404,1685.063477 2509.855225,1731.105469
	C2493.984619,1764.649048 2475.166016,1796.339722 2450.414307,1824.247803
	C2412.430908,1867.075439 2364.960938,1889.917114 2307.697021,1892.104004
	C2271.042969,1893.503784 2237.271484,1888.423096 2206.937744,1876.999878
	C2202.476807,1839.260132 2197.970215,1801.134155 2193.303467,1761.653564
	C2199.754150,1762.848999 2205.124512,1763.799805 2210.477295,1764.843384
	C2243.776367,1771.336914 2277.173096,1772.924561 2310.660156,1766.477539
	C2357.532959,1757.453735 2391.195557,1730.414917 2411.559082,1688.099854
	C2424.790771,1660.604004 2434.819092,1631.550781 2445.943848,1603.063110
	C2452.231689,1586.962402 2457.628662,1570.514526 2463.862305,1554.391235
	C2465.938721,1549.020630 2465.591309,1544.383179 2463.614502,1539.174072
	C2404.856201,1384.340454 2346.192383,1229.470703 2287.510742,1074.608032
	C2237.785156,943.380737 2188.053955,812.155457 2138.340820,680.923401
	C2137.415527,678.481079 2136.685059,675.964905 2135.587158,672.647583
	C2180.990234,672.647583 2225.710205,672.647583 2271.345703,672.647583
	C2276.463379,686.794617 2281.776367,701.396606 2287.030518,716.019653
	C2344.712158,876.549744 2402.394775,1037.079346 2460.053711,1197.617676
	C2485.025391,1267.146484 2505.612061,1338.000854 2523.996338,1409.519409
	C2525.031494,1413.546265 2526.273193,1417.520020 2529.185059,1421.356445
	C2533.855957,1402.910400 2538.545898,1384.469116 2543.194580,1366.017456
	C2563.372314,1285.930908 2590.010986,1207.930786 2618.812256,1130.605469
	C2639.007324,1076.385864 2658.668945,1021.967407 2678.894043,966.928833
z"/>
<path fill="#ff8800" opacity="1.000000" stroke="none" d="
M4796.399414,763.999878
	C4796.399414,733.093872 4796.399414,703.187805 4796.399414,672.691772
	C4838.996582,672.691772 4880.498047,672.691772 4922.748535,672.691772
	C4922.748535,959.265076 4922.748535,1245.687744 4922.748535,1532.060669
	C4915.262207,1534.085083 4834.625000,1534.856567 4812.757812,1533.035034
	C4811.800781,1523.451172 4812.457031,1513.566772 4812.345703,1503.740112
	C4812.228516,1493.409424 4812.318848,1483.076538 4812.318848,1472.744629
	C4812.318848,1462.745972 4812.318848,1452.747437 4812.318848,1442.748779
	C4812.318848,1432.416870 4812.318848,1422.084961 4812.318848,1411.753052
	C4812.318848,1401.771118 4812.318848,1391.789062 4812.318848,1381.045288
	C4807.779297,1382.440308 4806.611328,1386.172974 4804.737305,1388.890747
	C4789.223633,1411.387207 4773.743164,1433.875610 4755.013672,1453.932861
	C4704.724609,1507.786377 4643.505371,1540.589233 4570.222656,1550.249146
	C4497.338867,1559.856323 4427.790039,1549.477783 4361.472656,1516.903931
	C4302.595215,1487.984741 4264.941895,1441.933472 4246.281738,1379.574951
	C4237.845215,1351.381592 4232.582520,1322.638672 4231.743652,1293.223511
	C4230.623535,1253.940674 4229.342773,1214.644653 4229.276855,1175.352417
	C4229.003906,1012.375427 4229.161621,849.397644 4229.161621,686.420166
	C4229.161621,682.124695 4229.161621,677.829163 4229.161621,672.812988
	C4271.440918,672.812988 4312.897949,672.812988 4355.681152,672.812988
	C4355.681152,677.210632 4355.681152,681.432678 4355.681152,685.654663
	C4355.681152,850.965149 4355.684570,1016.275696 4355.678711,1181.586182
	C4355.677734,1215.570679 4357.029297,1249.493774 4360.285156,1283.328857
	C4363.840332,1320.283936 4375.237793,1354.300415 4399.056152,1383.311401
	C4425.931641,1416.046387 4460.787109,1436.170898 4502.161133,1443.539551
	C4584.162109,1458.144165 4657.485352,1438.316528 4720.700195,1383.932739
	C4752.219727,1356.817139 4771.070312,1321.465698 4781.504883,1281.517700
	C4788.586914,1254.403442 4793.051270,1226.806274 4794.206055,1198.819214
	C4795.414551,1169.549805 4796.245117,1140.243896 4796.303711,1110.951904
	C4796.535645,995.635010 4796.398926,880.317322 4796.399414,763.999878
z"/>
<path fill="#ffffff" opacity="1.000000" stroke="none" d="
M1487.999512,1129.276611
	C1440.426392,1129.276611 1393.853516,1129.276611 1346.755737,1129.276611
	C1349.791992,1196.731934 1360.451660,1261.326050 1394.270630,1319.716309
	C1434.217163,1388.686279 1492.736816,1433.298096 1571.782715,1448.660522
	C1620.360352,1458.101318 1668.588867,1455.847046 1715.562500,1439.548340
	C1772.427002,1419.817627 1813.224854,1381.134399 1841.894409,1329.114990
	C1851.664307,1311.387817 1859.885620,1292.807251 1869.452026,1273.318115
	C1912.051147,1278.588867 1955.728516,1283.993164 2000.076660,1289.480347
	C1987.640259,1330.833496 1970.717651,1368.592529 1946.757690,1402.987915
	C1895.256592,1476.919434 1824.638794,1522.175293 1737.201172,1541.982056
	C1693.738892,1551.827393 1649.620361,1554.720947 1605.242554,1553.168823
	C1547.585571,1551.152100 1491.466553,1541.112061 1438.634644,1516.941162
	C1348.153564,1475.545776 1286.105347,1407.315063 1249.994385,1315.062256
	C1235.500977,1278.035767 1226.822266,1239.541504 1221.604858,1200.156372
	C1216.342163,1160.429199 1214.897461,1120.537720 1216.461182,1080.594116
	C1219.358887,1006.576294 1230.915649,934.159424 1263.782593,866.914856
	C1318.991211,753.959229 1407.967163,683.532654 1531.965332,659.678589
	C1601.949097,646.215515 1672.016357,647.865540 1740.363647,669.107971
	C1846.010620,701.943481 1920.254639,770.971619 1965.871826,871.150085
	C1985.303833,913.824402 1996.107544,959.000549 2002.378052,1005.380554
	C2007.431396,1042.758301 2008.812622,1080.284912 2008.309326,1117.931519
	C2008.265015,1121.245850 2008.032471,1124.557739 2007.826050,1129.276611
	C1834.673950,1129.276611 1661.836792,1129.276611 1487.999512,1129.276611
M1361.283936,972.200195
	C1357.845825,990.782715 1355.250854,1009.440735 1355.678711,1028.838013
	C1528.708740,1028.838013 1701.170288,1028.838013 1874.213989,1028.838013
	C1874.213989,1026.002563 1874.374512,1023.702820 1874.189697,1021.431152
	C1871.787109,991.899719 1867.217407,962.730042 1859.637695,934.054382
	C1843.743286,873.922485 1810.283936,826.228088 1758.571533,791.551025
	C1720.539673,766.047729 1678.311157,753.759888 1632.751465,751.830688
	C1594.364380,750.205261 1556.715454,754.289062 1521.191528,769.217407
	C1431.324707,806.982361 1380.265259,876.025085 1361.283936,972.200195
z"/>
<path fill="#ff8800" opacity="1.000000" stroke="none" d="
M5306.315430,560.000000
	C5306.315430,637.288086 5306.315430,713.576172 5306.315430,792.411011
	C5309.761230,788.616638 5311.844727,786.398926 5313.844238,784.108215
	C5328.950195,766.804810 5343.055664,748.494751 5359.325195,732.366760
	C5402.000000,690.062195 5453.313965,663.721008 5513.068848,655.744995
	C5607.643555,643.121277 5694.430664,663.789185 5771.929688,720.032654
	C5814.393066,750.849243 5844.490723,792.173767 5867.935059,838.543762
	C5894.161133,890.415466 5910.184082,945.464111 5918.353027,1002.946960
	C5924.232422,1044.321899 5925.575684,1085.885498 5923.554688,1127.511841
	C5920.226562,1196.060547 5909.511719,1263.247559 5882.089844,1326.776733
	C5843.419434,1416.364380 5780.547852,1483.105957 5692.046875,1524.802246
	C5657.096680,1541.268555 5619.904785,1549.649048 5581.284668,1552.527588
	C5541.337402,1555.505127 5502.152832,1552.578979 5463.804688,1540.822510
	C5406.558594,1523.272339 5361.860840,1488.322266 5326.506836,1440.742065
	C5317.768066,1428.980957 5309.770508,1416.669434 5301.408203,1404.627808
	C5300.151855,1402.818481 5298.759277,1401.103638 5295.901367,1397.324097
	C5295.901367,1443.923950 5295.901367,1488.016479 5295.901367,1531.833252
	C5287.945312,1534.020264 5194.605957,1534.586182 5180.897461,1532.684448
	C5180.897461,1134.321289 5180.897461,735.856201 5180.897461,337.347412
	C5187.554199,335.192383 5289.158203,334.402222 5306.315430,336.599640
	C5306.315430,410.611053 5306.315430,484.805542 5306.315430,560.000000
M5716.294434,830.704773
	C5708.285645,822.709412 5700.625488,814.324646 5692.212402,806.780212
	C5624.416016,745.982971 5525.711914,733.791870 5445.607910,777.083069
	C5396.057617,803.861755 5359.559570,843.833984 5334.275391,893.899597
	C5306.556152,948.786255 5296.848145,1008.057312 5294.560547,1068.693604
	C5293.545410,1095.602051 5295.097168,1122.613647 5295.680664,1149.574219
	C5296.344238,1180.243530 5300.481445,1210.523926 5305.977051,1240.671631
	C5317.292480,1302.742432 5345.942871,1355.041138 5392.358887,1397.962524
	C5456.720703,1457.478271 5553.859863,1469.087280 5627.406738,1436.186157
	C5684.764648,1410.527222 5725.894531,1367.609741 5753.898438,1312.002930
	C5780.746094,1258.691895 5790.379883,1201.039307 5793.513672,1142.165161
	C5795.247559,1109.586182 5794.999023,1076.943237 5792.460938,1044.322754
	C5790.210938,1015.404785 5786.433594,986.762939 5779.623535,958.591003
	C5768.290527,911.703674 5749.854004,868.215393 5716.294434,830.704773
z"/>
<path fill="#231f20" opacity="1.000000" stroke="none" d="
M1361.459229,971.358398
	C1380.265259,876.025085 1431.324707,806.982361 1521.191528,769.217407
	C1556.715454,754.289062 1594.364380,750.205261 1632.751465,751.830688
	C1678.311157,753.759888 1720.539673,766.047729 1758.571533,791.551025
	C1810.283936,826.228088 1843.743286,873.922485 1859.637695,934.054382
	C1867.217407,962.730042 1871.787109,991.899719 1874.189697,1021.431152
	C1874.374512,1023.702820 1874.213989,1026.002563 1874.213989,1028.838013
	C1701.170288,1028.838013 1528.708740,1028.838013 1355.678711,1028.838013
	C1355.250854,1009.440735 1357.845825,990.782715 1361.459229,971.358398
M1807.209473,873.821655
	C1801.407959,866.144409 1796.138306,857.986267 1789.708740,850.877075
	C1767.380615,826.188354 1741.613159,806.137878 1710.629395,793.100708
	C1686.447876,782.925720 1661.234131,777.270630 1635.220093,776.224243
	C1618.355835,775.545837 1601.319946,776.494385 1584.495605,778.112915
	C1562.212646,780.256714 1540.727539,786.330688 1520.394531,795.795410
	C1489.577515,810.140259 1462.557373,829.532593 1440.692017,855.939087
	C1429.395508,869.581726 1419.299072,883.871460 1411.059326,899.552490
	C1398.117676,924.181274 1389.452148,950.277649 1384.682617,977.578613
	C1383.247925,985.790405 1379.774414,994.254272 1383.290527,1003.509399
	C1537.831543,1003.509399 1692.168335,1003.509399 1847.085083,1003.509399
	C1847.303467,1000.691467 1847.983276,998.375610 1847.567627,996.276733
	C1843.768555,977.089233 1840.620972,957.716797 1835.627563,938.836243
	C1829.665405,916.293213 1821.528320,894.419067 1807.209473,873.821655
z"/>
<path fill="#231f20" opacity="1.000000" stroke="none" d="
M5716.785645,831.214417
	C5749.854004,868.215393 5768.290527,911.703674 5779.623535,958.591003
	C5786.433594,986.762939 5790.210938,1015.404785 5792.460938,1044.322754
	C5794.999023,1076.943237 5795.247559,1109.586182 5793.513672,1142.165161
	C5790.379883,1201.039307 5780.746094,1258.691895 5753.898438,1312.002930
	C5725.894531,1367.609741 5684.764648,1410.527222 5627.406738,1436.186157
	C5553.859863,1469.087280 5456.720703,1457.478271 5392.358887,1397.962524
	C5345.942871,1355.041138 5317.292480,1302.742432 5305.977051,1240.671631
	C5300.481445,1210.523926 5296.344238,1180.243530 5295.680664,1149.574219
	C5295.097168,1122.613647 5293.545410,1095.602051 5294.560547,1068.693604
	C5296.848145,1008.057312 5306.556152,948.786255 5334.275391,893.899597
	C5359.559570,843.833984 5396.057617,803.861755 5445.607910,777.083069
	C5525.711914,733.791870 5624.416016,745.982971 5692.212402,806.780212
	C5700.625488,814.324646 5708.285645,822.709412 5716.785645,831.214417
M5337.516602,1267.586548
	C5342.897461,1281.503540 5347.134766,1296.005371 5353.891602,1309.218628
	C5369.008301,1338.777466 5389.011230,1364.928711 5415.123047,1385.685425
	C5430.189941,1397.662354 5446.066895,1408.734497 5464.505371,1415.423950
	C5480.770020,1421.325073 5497.150879,1426.147705 5514.474609,1428.373779
	C5544.383301,1432.217163 5573.551270,1429.946655 5601.951660,1420.160278
	C5621.500000,1413.424316 5639.364746,1403.526001 5656.475098,1391.537109
	C5675.008301,1378.551392 5690.434570,1362.751099 5704.631348,1345.679443
	C5720.018066,1327.176636 5731.187500,1305.916626 5740.379395,1283.685059
	C5750.069824,1260.245239 5756.791504,1235.960083 5761.416992,1211.023193
	C5766.270020,1184.866333 5769.356445,1158.521606 5769.905273,1131.955566
	C5770.393066,1108.311646 5769.975586,1084.649048 5769.949707,1060.994629
	C5769.947754,1059.329590 5770.017578,1057.647705 5769.818848,1056.001953
	C5767.242188,1034.617432 5765.266113,1013.134705 5761.861328,991.881531
	C5756.848145,960.582825 5748.265137,930.193176 5734.659668,901.436096
	C5717.996094,866.214417 5693.537598,837.447144 5662.746582,813.592224
	C5634.494141,791.704346 5602.344727,780.019043 5567.407715,776.399597
	C5546.962891,774.281555 5526.312500,775.678833 5505.887207,779.903259
	C5476.915527,785.894958 5451.293945,798.630981 5428.338867,816.795532
	C5418.463867,824.609497 5409.536621,833.660095 5400.474121,842.453857
	C5373.173340,868.946350 5355.049316,901.155212 5342.038086,936.581543
	C5326.876465,977.862061 5320.635254,1020.926880 5318.474609,1064.413818
	C5317.109375,1091.888184 5316.350586,1119.589722 5319.736816,1147.171387
	C5321.875977,1164.595337 5322.312988,1182.220947 5323.987305,1199.710938
	C5326.143066,1222.230347 5330.250000,1244.413452 5337.516602,1267.586548
z"/>
</svg>