<svg version="1.1" id="Layer_1" xmlns="http://www.w3.org/2000/svg" xmlns:xlink="http://www.w3.org/1999/xlink" x="0px" y="0px"
	 width="100%" viewBox="0 0 6000 6000" enable-background="new 0 0 6000 6000" xml:space="preserve">
<path fill="#231f20" opacity="1.000000" stroke="none" 
	d="
M1888.000000,3091.866699 
	C1967.324707,3091.946289 2044.649414,3092.016846 2121.974121,3092.158936 
	C2123.914795,3092.162354 2125.854004,3092.956055 2128.840576,3093.610596 
	C2129.773193,3096.926270 2131.335938,3100.541748 2131.709961,3104.276367 
	C2132.239258,3109.558838 2131.914795,3114.928955 2131.914795,3120.261719 
	C2131.918701,3868.202393 2131.919434,4616.143066 2131.902832,5364.083496 
	C2131.902588,5372.023438 2131.668945,5379.963379 2131.533203,5388.603027 
	C2126.950195,5389.927734 2123.349365,5391.473633 2119.617676,5391.918945 
	C2115.013672,5392.467773 2110.300537,5392.125488 2105.634521,5392.125977 
	C2004.309204,5392.130859 1902.984009,5392.141113 1801.658691,5392.105957 
	C1794.406372,5392.103027 1787.154175,5391.760254 1779.218262,5391.557617 
	C1777.982300,5386.877441 1776.429443,5383.225586 1776.158813,5379.481445 
	C1775.679443,5372.848145 1775.956299,5366.159180 1775.956177,5359.493164 
	C1775.952515,5025.519531 1775.963989,4691.546387 1775.889893,4357.572754 
	C1775.887939,4349.010254 1777.271484,4340.270020 1773.822998,4330.817871 
	C1770.524658,4330.010254 1766.851074,4328.636230 1763.085693,4328.303711 
	C1757.791992,4327.837402 1752.430176,4328.124023 1747.097412,4328.124023 
	C1375.793579,4328.121582 1004.489685,4328.110840 633.185852,4328.187988 
	C624.645142,4328.189941 615.897095,4326.720215 606.454773,4330.429688 
	C605.693054,4333.754883 604.335571,4337.447266 604.097900,4341.209961 
	C603.678467,4347.851074 603.921753,4354.534668 603.921692,4361.200684 
	C603.918518,4695.174316 603.927368,5029.147949 603.871704,5363.121582 
	C603.870239,5371.659180 605.002319,5380.363281 601.854919,5389.729004 
	C598.088684,5390.511230 594.371643,5391.542969 590.585632,5391.990723 
	C587.296387,5392.379883 583.928955,5392.125977 580.596069,5392.125977 
	C477.270935,5392.129395 373.945770,5392.156250 270.620728,5392.065918 
	C264.102234,5392.060059 257.280243,5393.455078 249.923553,5388.910156 
	C249.391617,5386.007324 248.317276,5382.252441 248.095108,5378.447266 
	C247.745911,5372.467285 247.955017,5366.454102 247.954987,5360.454590 
	C247.952621,4614.513672 247.948227,3868.572998 248.004929,3122.632324 
	C248.005615,3113.449707 246.774445,3104.084473 250.049057,3094.099609 
	C253.991486,3093.353271 257.738800,3092.465820 261.537598,3091.986328 
	C264.164520,3091.654785 266.862610,3091.871338 269.528900,3091.871338 
	C373.520630,3091.867920 477.512390,3091.841553 581.504028,3091.931152 
	C588.009338,3091.936768 594.845581,3090.490967 602.130127,3095.216064 
	C602.620056,3098.189209 603.613403,3101.970215 603.790283,3105.789062 
	C604.098450,3112.441650 603.916931,3119.117432 603.916992,3125.783447 
	C603.919312,3413.093994 603.906433,3700.404541 603.980225,3987.715088 
	C603.982361,3996.208740 602.554749,4004.952637 606.430603,4014.258057 
	C610.220520,4014.885498 613.993225,4015.799805 617.811340,4016.067871 
	C622.455811,4016.393799 627.138550,4016.191162 631.804688,4016.191162 
	C1003.775146,4016.193848 1375.745605,4016.203613 1747.716064,4016.128662 
	C1756.192017,4016.126953 1764.950195,4017.643799 1774.151489,4013.534668 
	C1774.740234,4009.692871 1775.666992,4005.896484 1775.832642,4002.067139 
	C1776.120605,3995.412842 1775.951172,3988.738281 1775.951172,3982.072266 
	C1775.953247,3694.761719 1775.940552,3407.451172 1776.014282,3120.140625 
	C1776.016479,3111.657959 1774.582886,3102.913086 1778.628906,3093.369141 
	C1784.439697,3092.868164 1790.228271,3091.966309 1796.021118,3091.937988 
	C1826.013428,3091.791260 1856.006958,3091.867920 1888.000000,3091.866699 
M1800.968140,4061.801758 
	C1396.321655,4061.802490 991.675293,4061.803711 587.028870,4061.803467 
	C581.695801,4061.803467 576.354248,4061.970703 571.032593,4061.720459 
	C567.200623,4061.540527 563.395203,4060.795166 559.459900,4060.286621 
	C556.514954,4051.567139 557.663757,4043.542236 557.662048,4035.693848 
	C557.597900,3746.374268 557.608337,3457.054443 557.605835,3167.734863 
	C557.605774,3161.068604 557.782959,3154.392578 557.474976,3147.739746 
	C557.301086,3143.983643 556.304626,3140.265625 555.745850,3136.930908 
	C538.013245,3134.511719 354.207031,3133.264404 304.792084,3135.129639 
	C301.596344,3135.250244 298.426117,3136.046875 295.305786,3136.519775 
	C294.457214,3139.081543 293.312439,3140.923828 293.312195,3142.766113 
	C293.226318,3875.392578 293.217102,4608.019043 293.287750,5340.645508 
	C293.287903,5342.473633 294.479004,5344.301758 295.398285,5346.949219 
	C299.192566,5347.329590 303.044159,5348.050293 306.896332,5348.053223 
	C386.225861,5348.113281 465.555420,5348.118164 544.884827,5348.000000 
	C548.669861,5347.994629 552.453064,5346.747070 557.347412,5345.881348 
	C557.438904,5336.575684 557.597107,5327.969727 557.597412,5319.363770 
	C557.609924,4984.046387 557.607788,4648.728516 557.609924,4313.411133 
	C557.609924,4307.411621 557.450134,4301.403320 557.728210,4295.416016 
	C557.876953,4292.213867 558.802551,4289.047363 559.619080,4284.527832 
	C568.015869,4284.390625 575.886230,4284.150391 583.756592,4284.149902 
	C987.070862,4284.131836 1390.385132,4284.133789 1793.699463,4284.134766 
	C1798.365845,4284.134766 1803.042969,4283.959473 1807.695435,4284.218262 
	C1811.514160,4284.430664 1815.303589,4285.168945 1819.569946,4285.735840 
	C1822.038696,4305.201660 1820.514160,4323.801270 1820.786011,4342.330078 
	C1821.059814,4360.991699 1820.846436,4379.660645 1820.846436,4398.326172 
	C1820.846436,4416.992188 1820.846436,4435.657715 1820.846436,4454.323730 
	C1820.846436,4472.989258 1820.846436,4491.655273 1820.846436,4510.320801 
	C1820.846436,4528.319824 1820.846436,4546.319336 1820.846436,4564.318359 
	C1820.846436,4582.984375 1820.846436,4601.649902 1820.846436,4620.315918 
	C1820.846436,4638.981445 1820.846436,4657.647461 1820.846436,4676.312988 
	C1820.846436,4694.979004 1820.846436,4713.644531 1820.846436,4732.310547 
	C1820.846436,4750.976074 1820.846436,4769.642090 1820.846436,4788.307617 
	C1820.846436,4806.973633 1820.846436,4825.639160 1820.846436,4844.305176 
	C1820.846436,4862.971191 1820.846436,4881.636719 1820.846436,4900.302734 
	C1820.846436,4918.968262 1820.846436,4937.634277 1820.846436,4956.299805 
	C1820.846436,4974.965820 1820.846436,4993.631348 1820.846436,5012.297363 
	C1820.846436,5030.962891 1820.846436,5049.628906 1820.846436,5068.294434 
	C1820.846436,5086.293457 1820.846436,5104.292969 1820.846436,5122.291992 
	C1820.846436,5140.958008 1820.846436,5159.623535 1820.846436,5178.289551 
	C1820.846436,5196.955078 1820.846436,5215.621094 1820.846436,5234.286621 
	C1820.846436,5252.952637 1820.715210,5271.619141 1820.883545,5290.283691 
	C1821.050293,5308.780273 1820.107788,5327.330566 1821.656250,5346.750977 
	C1827.418579,5347.281250 1831.894775,5348.048340 1836.371704,5348.052734 
	C1914.368042,5348.124023 1992.364258,5348.128418 2070.360596,5348.029785 
	C2074.821045,5348.023926 2079.280762,5347.000977 2085.025635,5346.293457 
	C2085.149414,5336.855469 2085.359863,5328.291016 2085.360107,5319.726562 
	C2085.375244,4601.093750 2085.374268,3882.461182 2085.372070,3163.828613 
	C2085.372070,3158.495605 2085.557373,3153.150391 2085.256104,3147.833740 
	C2085.042969,3144.061768 2084.155029,3140.328369 2083.628662,3136.962646 
	C2063.953613,3134.220947 1909.590210,3133.129395 1834.714722,3135.100586 
	C1830.854248,3135.202393 1827.011597,3135.977051 1822.640259,3136.500977 
	C1819.739014,3145.479004 1820.899902,3154.163574 1820.898071,3162.664795 
	C1820.835938,3451.984375 1820.846436,3741.304199 1820.845947,4030.623779 
	C1820.845947,4036.623535 1821.025757,4042.631104 1820.772339,4048.620117 
	C1820.610840,4052.439209 1819.804810,4056.230957 1819.213135,4060.584473 
	C1813.847290,4061.031250 1809.272217,4061.412109 1800.968140,4061.801758 
z"/>
<path fill="#231f20" opacity="1.000000" stroke="none" 
	d="
M1690.383423,2189.675293 
	C1712.735107,2218.723633 1734.401855,2246.489502 1755.793457,2274.465820 
	C1766.691406,2288.718262 1777.033936,2303.394287 1787.744507,2317.791992 
	C1794.487305,2326.855713 1801.420532,2335.778320 1808.312988,2344.729736 
	C1837.510254,2382.649170 1866.849731,2420.459961 1895.885986,2458.501953 
	C1913.632690,2481.752930 1930.731567,2505.498291 1948.474365,2528.752197 
	C1965.003052,2550.414795 1982.169067,2571.590576 1998.742310,2593.219971 
	C2016.537598,2616.443848 2033.824219,2640.057129 2051.600586,2663.295654 
	C2068.550293,2685.454102 2085.987305,2707.239746 2102.948730,2729.389404 
	C2120.322754,2752.077637 2137.344971,2775.034912 2154.584717,2797.826416 
	C2174.235352,2823.804443 2193.891357,2849.779297 2213.674561,2875.656250 
	C2223.768311,2888.858887 2234.254639,2901.761230 2244.312012,2914.990723 
	C2246.539551,2917.920654 2247.705078,2921.658203 2249.675781,2925.667725 
	C2242.072510,2929.296875 2235.388184,2927.959717 2228.979248,2927.967529 
	C2149.655762,2928.061768 2070.332031,2928.029297 1991.008545,2928.029297 
	C1930.349365,2928.029297 1869.690308,2928.030762 1809.031128,2928.026123 
	C1804.365234,2928.025635 1799.697510,2927.886719 1795.034058,2927.980225 
	C1788.493164,2928.111572 1783.911987,2925.413330 1780.010864,2919.985107 
	C1766.036621,2900.539551 1751.612305,2881.418457 1737.418335,2862.130371 
	C1704.308594,2817.137939 1671.153198,2772.179199 1638.166260,2727.096924 
	C1601.644897,2677.184326 1565.256592,2627.173828 1528.877808,2577.156982 
	C1511.276733,2552.957764 1493.985596,2528.531494 1476.279907,2504.409912 
	C1440.085571,2455.099854 1403.651001,2405.965820 1367.441040,2356.667480 
	C1358.387207,2344.340820 1350.016357,2331.512451 1340.969116,2319.180908 
	C1324.866699,2297.233154 1308.410767,2275.545410 1292.256592,2253.635254 
	C1283.969360,2242.395020 1276.113159,2230.837891 1267.890625,2219.549072 
	C1244.401123,2187.300049 1220.771484,2155.153076 1197.295410,2122.894287 
	C1172.640015,2089.014893 1148.148438,2055.015869 1123.488525,2021.139648 
	C1109.007202,2001.246094 1094.268555,1981.540283 1079.767944,1961.660645 
	C1057.820312,1931.571533 1036.000854,1901.389160 1014.085938,1871.276123 
	C997.660828,1848.706543 981.186707,1826.172607 964.659241,1803.677979 
	C963.939148,1802.697998 962.468140,1802.269653 960.279297,1800.931641 
	C957.541565,1802.736572 954.131042,1804.562134 951.237183,1807.001099 
	C947.681030,1809.997803 944.602173,1813.554321 941.237854,1816.786743 
	C903.788086,1852.767700 867.072205,1889.562744 828.540161,1924.345459 
	C809.747253,1941.310059 792.432190,1959.864624 773.073425,1976.032837 
	C749.985657,1995.315552 730.291748,2018.069336 707.625366,2037.568970 
	C682.828491,2058.901367 660.184937,2082.339600 636.587036,2104.846191 
	C628.904297,2112.173828 620.481628,2118.726562 612.379761,2125.613037 
	C606.397339,2130.697754 603.541504,2137.017822 604.014771,2144.976074 
	C604.330750,2150.289551 604.058167,2155.637695 604.058167,2160.970459 
	C604.057129,2406.939941 604.073303,2652.909668 603.989868,2898.879150 
	C603.987000,2907.416504 605.466370,2916.165039 602.310364,2924.103760 
	C597.002502,2929.379639 590.704102,2927.932129 584.893005,2927.958984 
	C554.230774,2928.100830 523.567566,2928.028809 492.904663,2928.029053 
	C419.580383,2928.029541 346.256073,2928.072754 272.931946,2927.960205 
	C265.735596,2927.948975 258.279541,2929.413574 250.192749,2925.219971 
	C249.568649,2922.194824 248.366455,2918.470703 248.118713,2914.683838 
	C247.727859,2908.708984 247.959396,2902.692139 247.959381,2896.693115 
	C247.956558,2149.452148 247.952072,1402.211182 248.010925,654.970215 
	C248.011642,645.787720 246.749634,636.418701 249.612350,627.789062 
	C256.839539,622.505371 264.413300,624.319824 271.524963,624.294312 
	C317.518707,624.129150 363.513275,624.209473 409.507599,624.209473 
	C466.167267,624.209473 522.827026,624.151550 579.486389,624.282349 
	C586.654785,624.298889 594.131287,622.785095 602.184265,627.268860 
	C602.719299,630.413879 603.741333,634.178528 603.922729,637.983215 
	C604.239868,644.634644 604.055115,651.310669 604.055176,657.976379 
	C604.057556,1000.600708 604.057190,1343.224976 604.057190,1685.849365 
	C604.057190,1693.076904 604.057190,1700.304443 604.057190,1706.939941 
	C609.358521,1709.466064 611.523071,1706.418335 613.784546,1704.241455 
	C652.161499,1667.296997 690.531555,1630.345093 728.803528,1593.292114 
	C741.254211,1581.238159 752.827332,1568.214844 765.826294,1556.801880 
	C807.923462,1519.841064 845.244812,1477.903442 886.727356,1440.449707 
	C922.384521,1408.255859 954.467224,1372.485229 990.251343,1340.628662 
	C1029.117676,1306.028320 1063.787720,1267.137085 1102.505615,1232.585693 
	C1138.359131,1200.590454 1170.331909,1164.710938 1206.071411,1132.798828 
	C1242.392822,1100.367188 1274.961060,1064.081543 1311.270142,1031.842651 
	C1342.716309,1003.921631 1370.666382,972.507751 1402.067993,944.754211 
	C1442.561768,908.964905 1478.460815,868.466064 1518.602295,832.502686 
	C1554.387573,800.442261 1586.412720,764.612793 1622.172852,732.731262 
	C1658.024658,700.768066 1691.268311,666.245239 1725.508911,632.697510 
	C1731.713379,626.618347 1738.307495,623.511047 1746.879761,624.175171 
	C1750.192505,624.431763 1753.542358,624.209534 1756.875244,624.209534 
	C1902.857178,624.209229 2048.839111,624.203369 2194.821045,624.227234 
	C2202.037354,624.228394 2209.253662,624.489502 2215.426758,624.609314 
	C2218.917236,629.562317 2216.998779,632.282837 2214.680664,634.764954 
	C2211.953613,637.685181 2209.388428,640.939087 2206.146973,643.166077 
	C2188.960693,654.973022 2176.254150,671.652832 2160.497803,684.896973 
	C2135.973389,705.511108 2114.604980,729.443054 2090.505127,750.339233 
	C2074.367188,764.331909 2059.853760,779.963745 2043.654297,793.713318 
	C2019.743530,814.008118 1998.779175,837.421753 1975.092285,857.758484 
	C1956.335205,873.862549 1939.371826,891.661072 1921.219727,908.279114 
	C1897.686646,929.823303 1873.586060,950.748840 1850.113037,972.357056 
	C1836.388916,984.990967 1823.573242,998.605713 1810.062744,1011.478821 
	C1786.456421,1033.971313 1763.422607,1057.165527 1738.608032,1078.252197 
	C1722.824341,1091.664551 1708.889893,1106.920410 1693.140381,1120.171997 
	C1668.625122,1140.799072 1647.296143,1164.791016 1623.177368,1185.650757 
	C1604.995605,1201.375732 1588.927246,1219.247192 1570.593140,1234.576782 
	C1548.558350,1253.000732 1529.547729,1274.577271 1507.814819,1293.090332 
	C1489.505737,1308.686890 1473.426392,1326.529053 1455.189575,1341.978394 
	C1434.309082,1359.667236 1416.002808,1380.064575 1395.234985,1397.644165 
	C1377.377686,1412.760376 1361.348267,1429.603149 1344.180176,1445.321411 
	C1319.666016,1467.765747 1294.556763,1489.565308 1270.237793,1512.215942 
	C1251.758545,1529.427368 1233.788452,1547.218262 1215.698120,1566.498291 
	C1219.526367,1572.711426 1222.497803,1578.576416 1226.412354,1583.723877 
	C1261.014771,1629.224854 1295.813965,1674.576050 1330.495361,1720.017212 
	C1355.901855,1753.306274 1381.154663,1786.712891 1406.593140,1819.977417 
	C1433.247070,1854.831543 1460.076782,1889.550903 1486.761963,1924.380981 
	C1507.776489,1951.809448 1528.684448,1979.319458 1549.645996,2006.788574 
	C1588.760742,2058.045898 1627.839722,2109.330566 1667.033936,2160.527100 
	C1674.308838,2170.029785 1682.055542,2179.171387 1690.383423,2189.675293 
M1418.804810,992.799622 
	C1142.161499,1259.003418 865.520325,1525.209351 588.864380,1791.400024 
	C580.702637,1799.252808 572.389160,1806.947876 564.132996,1814.702393 
	C563.664001,1815.142944 563.103088,1815.692993 562.533142,1815.761597 
	C561.940369,1815.832764 561.284607,1815.381470 560.656372,1815.158691 
	C560.170349,1814.801758 559.543274,1814.536499 559.235596,1814.063477 
	C558.887573,1813.528809 558.788574,1812.815674 558.651306,1812.165161 
	C558.514893,1811.519165 558.442932,1810.856812 558.384583,1810.197754 
	C558.325867,1809.534424 558.310242,1808.866699 558.291504,1808.200439 
	C558.272827,1807.534302 558.272156,1806.867676 558.266846,1806.201172 
	C558.261475,1805.534668 558.258850,1804.868042 558.257141,1804.201538 
	C558.255432,1803.534912 558.256470,1802.868408 558.256409,1802.201782 
	C558.256348,1800.868652 558.256409,1799.535522 558.256409,1798.202393 
	C558.256531,1429.589111 558.256592,1060.975830 558.256592,692.362610 
	C558.256592,691.696045 558.256470,691.029480 558.256226,690.362915 
	C558.255981,689.696350 558.255981,689.029724 558.255127,688.363159 
	C558.253418,687.030029 558.252014,685.696899 558.248596,684.363770 
	C558.246887,683.697205 558.242676,683.030701 558.237000,682.364136 
	C558.231323,681.697571 558.231750,681.030762 558.212158,680.364563 
	C558.192627,679.698730 558.159546,679.033142 558.117920,678.368286 
	C558.076294,677.703125 558.082520,677.025208 557.946472,676.378357 
	C557.813354,675.745117 557.563843,675.127625 557.298279,674.533203 
	C557.027222,673.926331 556.674377,673.356018 555.840088,671.813110 
	C551.931763,671.458435 547.424133,670.745605 542.907532,670.683777 
	C424.977509,669.066528 310.783142,669.963684 293.813141,672.823364 
	C292.813965,680.892334 293.264954,689.490540 293.264679,698.026550 
	C293.243866,1417.922241 293.245453,2137.817871 293.245789,2857.713623 
	C293.245789,2862.379639 293.024353,2867.060059 293.322968,2871.707031 
	C293.568451,2875.526855 294.433899,2879.306885 295.040771,2883.208496 
	C298.553680,2883.558594 301.180267,2884.048096 303.807129,2884.049561 
	C385.128632,2884.090088 466.450195,2884.096924 547.771667,2884.028076 
	C550.829956,2884.025391 553.887573,2883.213623 558.227478,2882.596680 
	C558.282898,2844.784668 558.250366,2808.218750 558.255737,2771.653564 
	C558.261108,2734.992188 558.256958,2698.330811 558.256958,2661.669434 
	C558.256958,2625.008057 558.256958,2588.346924 558.256958,2551.685547 
	C558.256958,2515.690674 558.256958,2479.696045 558.256958,2443.701172 
	C558.256958,2407.039795 558.256958,2370.378418 558.256958,2333.717041 
	C558.256958,2297.055664 558.254150,2260.394287 558.257751,2223.732910 
	C558.261353,2187.131348 558.271362,2150.529785 558.278503,2114.217041 
	C694.316040,1986.584351 829.423645,1859.823364 964.546082,1733.078247 
	C965.016174,1732.637207 965.676880,1732.234741 966.291199,1732.158813 
	C966.906555,1732.082520 967.575378,1732.438721 970.037292,1733.074463 
	C1249.615723,2115.980469 1530.050537,2500.059326 1810.453491,2884.094482 
	C1817.569702,2884.094482 1823.542114,2884.098145 1829.514526,2884.093994 
	C1938.161865,2884.021240 2046.809204,2883.947998 2155.456543,2883.862793 
	C2156.116455,2883.862061 2156.896240,2883.870361 2157.401611,2883.540283 
	C2157.878418,2883.228760 2158.066650,2882.476074 2159.407471,2880.098633 
	C2139.426025,2853.193604 2118.281006,2826.073486 2097.427002,2798.741211 
	C2076.407471,2771.191650 2055.368652,2743.656738 2034.337769,2716.115967 
	C2013.307007,2688.575439 1992.275879,2661.035400 1971.243530,2633.496094 
	C1950.211060,2605.956787 1929.180542,2578.416260 1908.142700,2550.881104 
	C1887.104736,2523.345459 1866.055420,2495.818604 1845.017090,2468.283447 
	C1823.978516,2440.748047 1802.948486,2413.206299 1781.912476,2385.669189 
	C1760.876465,2358.132080 1739.846069,2330.590820 1718.797852,2303.062988 
	C1698.154541,2276.064453 1677.483521,2249.087158 1656.840088,2222.088867 
	C1635.791992,2194.561279 1614.761475,2167.020020 1593.725464,2139.483154 
	C1572.689575,2111.946533 1551.653931,2084.409424 1530.622681,2056.869141 
	C1509.591431,2029.328857 1488.572388,2001.779297 1467.535400,1974.243408 
	C1446.498413,1946.707275 1425.443481,1919.184692 1404.401245,1891.652466 
	C1383.359009,1864.120117 1362.318970,1836.585938 1341.284668,1809.047485 
	C1320.250610,1781.509155 1299.228149,1753.962158 1278.194214,1726.423706 
	C1257.159790,1698.885010 1236.064819,1671.392456 1215.093384,1643.805908 
	C1194.266602,1616.409424 1172.872314,1589.428833 1152.049561,1560.707764 
	C1160.673706,1552.589844 1168.356079,1545.288208 1176.113281,1538.066895 
	C1305.396729,1417.714111 1434.677734,1297.358643 1563.984009,1177.030151 
	C1692.314575,1057.609863 1820.675781,938.222717 1949.016846,818.813660 
	C1996.839478,774.319092 2044.682739,729.846069 2092.381104,685.218506 
	C2096.357910,681.497620 2102.027832,678.596558 2103.164795,670.639099 
	C2096.738525,670.639099 2091.486328,670.639099 2086.234375,670.639038 
	C1980.916260,670.638550 1875.598267,670.638123 1770.280151,670.637695 
	C1768.947021,670.637695 1767.604980,670.738708 1766.282104,670.622803 
	C1757.835815,669.882996 1750.434082,671.665527 1745.066895,678.904175 
	C1743.891235,680.489868 1742.247314,681.730713 1740.805908,683.116760 
	C1634.145386,785.681213 1527.483643,888.244263 1418.804810,992.799622 
z"/>
<path fill="#231f20" opacity="1.000000" stroke="none" 
	d="
M3899.299316,3231.372803 
	C3918.801758,3218.015625 3933.562256,3201.742432 3947.625000,3184.856689 
	C3965.330322,3163.596436 3976.026123,3138.210938 3986.788086,3113.233154 
	C4003.371582,3074.744385 4018.373047,3035.564209 4033.591064,2996.500244 
	C4043.496338,2971.073730 4052.552002,2945.316895 4062.080566,2919.742188 
	C4064.518066,2913.199707 4064.740967,2906.731689 4062.252686,2900.235107 
	C4059.395752,2892.776123 4056.398193,2885.371094 4053.474121,2877.937500 
	C4021.559082,2796.803711 3989.659912,2715.664062 3957.728760,2634.536621 
	C3923.114746,2546.591553 3888.439453,2458.670410 3853.852295,2370.714355 
	C3827.059814,2302.581299 3800.359131,2234.411621 3773.622070,2166.256836 
	C3746.885010,2098.101318 3720.059814,2029.980347 3693.450439,1961.775146 
	C3673.860840,1911.563843 3654.826660,1861.134888 3635.062500,1810.993042 
	C3605.777588,1736.695923 3575.896240,1662.633911 3546.593506,1588.343750 
	C3526.568848,1537.576904 3507.250000,1486.532227 3487.326660,1435.725098 
	C3473.233398,1399.785889 3458.589844,1364.062988 3444.321533,1328.192139 
	C3436.204102,1307.784912 3428.223877,1287.320801 3420.462891,1266.776245 
	C3418.656494,1261.994995 3417.992432,1256.782104 3416.637451,1251.070923 
	C3420.131104,1249.844116 3422.466553,1248.451782 3424.885010,1248.287964 
	C3430.859863,1247.882935 3436.873047,1247.982666 3442.870850,1247.981934 
	C3544.857422,1247.969849 3646.843750,1247.959473 3748.830322,1247.999878 
	C3756.727783,1248.003052 3764.625244,1248.386108 3773.263672,1248.611938 
	C3778.944580,1262.298584 3784.652832,1274.982422 3789.520996,1287.980835 
	C3804.228027,1327.247803 3818.500000,1366.677368 3833.147217,1405.966553 
	C3847.794189,1445.255371 3862.759277,1484.425415 3877.452148,1523.697144 
	C3887.714844,1551.128052 3897.713867,1578.657471 3907.902100,1606.116333 
	C3929.434814,1664.149658 3951.008057,1722.168091 3972.576172,1780.188232 
	C3993.913330,1837.585815 4015.119873,1895.032593 4036.650146,1952.357788 
	C4058.413086,2010.301636 4080.686279,2068.053955 4102.387695,2126.020752 
	C4118.022461,2167.783691 4133.315918,2209.678711 4148.342773,2251.664795 
	C4164.944336,2298.048340 4181.524414,2344.449219 4197.243164,2391.135498 
	C4208.068848,2423.289795 4217.356445,2455.960449 4227.486816,2488.351807 
	C4228.805176,2492.565186 4231.050781,2496.488037 4234.051270,2503.192383 
	C4240.464844,2482.610596 4246.022949,2464.928955 4251.474121,2447.214111 
	C4254.016602,2438.951172 4256.196289,2430.574951 4258.808105,2422.334961 
	C4268.855469,2390.634521 4278.279297,2358.711182 4289.303223,2327.351562 
	C4304.532227,2284.029541 4320.899414,2241.105713 4336.963379,2198.080078 
	C4349.300781,2165.035645 4361.939453,2132.103516 4374.414062,2099.110107 
	C4386.418457,2067.359131 4398.344238,2035.578369 4410.377930,2003.838379 
	C4420.287109,1977.701782 4430.305176,1951.606567 4440.271973,1925.492065 
	C4451.899902,1895.025391 4463.539062,1864.562988 4475.147949,1834.088989 
	C4484.861816,1808.588013 4494.504395,1783.059937 4504.239746,1757.567383 
	C4516.111816,1726.480103 4528.139648,1695.452026 4539.933105,1664.334961 
	C4553.850098,1627.614380 4567.499512,1590.792236 4581.432617,1554.077881 
	C4592.766602,1524.209961 4604.395996,1494.454346 4615.807617,1464.615479 
	C4628.883789,1430.425293 4641.834961,1396.186890 4654.895020,1361.990356 
	C4667.954590,1327.794922 4681.067871,1293.619751 4694.203613,1259.453613 
	C4695.387207,1256.374512 4696.910645,1253.426392 4698.618652,1249.662720 
	C4703.054199,1249.109741 4707.571289,1248.058838 4712.089844,1248.054688 
	C4814.742676,1247.960815 4917.395996,1247.959473 5020.048828,1248.055054 
	C5024.452637,1248.059204 5028.855469,1249.156006 5034.875488,1249.959717 
	C5030.317871,1263.133911 5026.629395,1275.072021 5022.096680,1286.680664 
	C4999.342285,1344.959595 4976.261719,1403.111328 4953.496094,1461.386230 
	C4925.403809,1533.298828 4897.485840,1605.279663 4869.537109,1677.248291 
	C4843.997559,1743.013184 4818.540039,1808.810181 4793.005859,1874.576904 
	C4765.306641,1945.919189 4737.502441,2017.220825 4709.851074,2088.581787 
	C4686.524414,2148.781982 4663.412598,2209.065430 4640.090820,2269.267578 
	C4622.060059,2315.810547 4603.739746,2362.241211 4585.761719,2408.804199 
	C4574.015625,2439.227783 4562.904785,2469.898193 4551.054688,2500.280762 
	C4532.676758,2547.400391 4513.731934,2594.298584 4495.366211,2641.423096 
	C4479.415527,2682.350830 4463.994141,2723.484863 4448.222656,2764.482666 
	C4439.861328,2786.216553 4431.229980,2807.846436 4422.757812,2829.537598 
	C4407.260742,2869.214844 4391.818848,2908.913818 4376.303711,2948.584229 
	C4358.368164,2994.443848 4340.843262,3040.471436 4322.260254,3086.067383 
	C4308.448242,3119.957031 4293.564941,3153.424072 4278.552246,3186.806396 
	C4262.989258,3221.412109 4247.677734,3256.190430 4230.446777,3289.969971 
	C4212.924316,3324.320557 4192.220215,3356.848389 4170.418945,3388.813965 
	C4143.860352,3427.753662 4110.663574,3460.252686 4076.946045,3492.356201 
	C4056.670410,3511.661621 4032.749512,3526.533691 4008.046631,3539.608398 
	C3989.833984,3549.248291 3971.182373,3558.595459 3951.764648,3565.280518 
	C3929.210693,3573.045166 3905.735107,3578.327393 3882.413330,3583.597656 
	C3866.918457,3587.099121 3851.006836,3588.793701 3835.249512,3591.073486 
	C3830.656250,3591.738037 3825.953857,3591.795654 3821.297852,3591.850098 
	C3809.300781,3591.990479 3797.295166,3591.729004 3785.305176,3592.068115 
	C3755.937500,3592.898682 3727.012207,3590.045166 3698.076416,3584.716797 
	C3663.355225,3578.323242 3629.087891,3570.552734 3595.639160,3559.254883 
	C3591.852051,3557.975830 3587.720215,3557.209229 3584.423584,3555.132812 
	C3581.277588,3553.150879 3578.227783,3550.168701 3576.562256,3546.899658 
	C3574.490234,3542.832520 3573.330078,3538.090332 3572.744141,3533.515869 
	C3570.973877,3519.696045 3569.780273,3505.803467 3568.161621,3491.962646 
	C3565.774170,3471.545410 3563.112793,3451.159912 3560.760254,3430.738525 
	C3559.013428,3415.573730 3557.782715,3400.348145 3555.937256,3385.196533 
	C3554.012695,3369.398682 3551.540527,3353.668457 3549.468262,3337.887695 
	C3547.567627,3323.411865 3545.910889,3308.904053 3544.081543,3294.418457 
	C3543.416748,3289.155029 3542.791748,3283.869385 3541.746094,3278.674805 
	C3539.894775,3269.477783 3539.149414,3260.363281 3541.570312,3251.185791 
	C3547.510986,3246.989258 3553.164307,3248.452637 3559.085938,3249.838379 
	C3590.130859,3257.103760 3621.026855,3265.275146 3652.380371,3270.847168 
	C3671.204102,3274.192627 3690.354492,3277.393799 3709.858398,3276.355225 
	C3725.146484,3275.541260 3740.512207,3276.220215 3755.843506,3276.178711 
	C3793.620850,3276.076416 3829.853760,3267.866455 3864.444092,3253.323730 
	C3876.508789,3248.251221 3886.982666,3239.395020 3899.299316,3231.372803 
M4641.192383,1527.369873 
	C4640.765137,1528.635986 4640.378906,1529.917603 4639.904297,1531.165527 
	C4566.046875,1725.284302 4492.183594,1919.401123 4418.319336,2113.517578 
	C4387.308594,2195.015137 4355.632324,2276.259277 4327.851562,2358.957031 
	C4294.332520,2458.733887 4266.168945,2560.037354 4240.145996,2661.973389 
	C4238.750000,2667.440674 4236.732910,2672.749756 4233.887695,2681.614258 
	C4229.885254,2667.694336 4226.781250,2657.547119 4224.049805,2647.300781 
	C4185.613281,2503.119385 4140.491699,2361.123291 4088.062500,2221.361084 
	C3974.431885,1918.452148 3861.735352,1615.192627 3748.637451,1312.083984 
	C3746.344727,1305.940063 3743.812256,1299.885742 3740.902588,1292.558105 
	C3711.990723,1292.499634 3683.435303,1292.535889 3654.880859,1292.529785 
	C3626.217041,1292.523560 3597.551514,1292.349243 3568.889648,1292.579102 
	C3540.530762,1292.806396 3512.126953,1291.549927 3483.643555,1293.371216 
	C3482.291016,1302.486328 3486.810059,1308.816650 3489.390625,1315.385742 
	C3692.151855,1831.513672 3895.073730,2347.578369 4097.972656,2863.652344 
	C4104.041016,2879.087891 4109.997559,2894.567139 4115.572266,2908.909424 
	C4098.936035,2953.334229 4083.334229,2996.544678 4066.569580,3039.299561 
	C4051.750977,3077.092529 4036.198730,3114.624756 4019.842529,3151.775879 
	C4012.367432,3168.754150 4003.548828,3185.487549 3992.993652,3200.704346 
	C3941.774658,3274.544189 3869.875732,3312.341553 3781.119141,3319.957520 
	C3725.586670,3324.722900 3670.630127,3321.011230 3616.114258,3309.672607 
	C3609.091064,3308.211914 3601.940430,3307.364014 3593.155518,3305.962158 
	C3595.769043,3342.480713 3601.419434,3377.149658 3605.278564,3411.986328 
	C3609.225342,3447.615723 3614.197266,3483.131348 3618.733398,3518.798828 
	C3623.601074,3520.591309 3627.237793,3522.179688 3631.015869,3523.284912 
	C3699.442139,3543.295166 3768.738281,3552.979492 3840.267822,3544.697510 
	C3922.182129,3535.212158 3994.616699,3505.408936 4056.004639,3449.819824 
	C4088.305176,3420.570068 4115.804688,3387.249756 4140.292969,3351.310547 
	C4169.645508,3308.232422 4193.688477,3262.227539 4215.545898,3215.034180 
	C4258.097656,3123.159424 4295.462891,3029.122070 4332.081543,2934.775146 
	C4511.046875,2473.674805 4690.031738,2012.582275 4869.022461,1551.491821 
	C4899.857422,1472.059448 4930.767090,1392.656006 4961.588867,1313.218506 
	C4963.934082,1307.174194 4965.854004,1300.964722 4968.038086,1294.640381 
	C4951.199219,1292.004883 4752.378906,1291.658691 4730.294922,1294.211548 
	C4700.827637,1370.370850 4671.743652,1447.496460 4641.192383,1527.369873 
z"/>
<path fill="#231f20" opacity="1.000000" stroke="none" 
	d="
M2580.709473,3711.970703 
	C2684.503418,3711.970947 2786.377930,3711.967529 2888.831055,3711.971680 
	C2890.162109,3717.403564 2891.609131,3721.079102 2891.862549,3724.835205 
	C2892.310547,3731.472168 2892.053467,3738.158447 2892.054199,3744.823975 
	C2892.086914,4074.115479 2892.113037,4403.406738 2892.156250,4732.698242 
	C2892.157471,4743.336914 2891.732422,4753.952637 2894.924561,4764.417969 
	C2896.243896,4768.742188 2895.660156,4773.666016 2895.819580,4778.321777 
	C2896.636963,4802.219727 2895.065674,4826.102051 2899.277344,4850.013672 
	C2901.782227,4864.234375 2901.831299,4879.030273 2903.338135,4893.572754 
	C2906.049316,4919.741211 2913.203613,4944.477051 2922.494141,4968.723145 
	C2936.509766,5005.299316 2957.573975,5037.490723 2986.391357,5064.065918 
	C3013.516602,5089.081543 3044.047119,5108.976562 3078.999756,5121.752441 
	C3107.251465,5132.079590 3136.460693,5138.304199 3165.982178,5143.337891 
	C3170.541504,5144.115723 3175.282959,5143.989746 3179.940674,5143.998535 
	C3206.603516,5144.049805 3233.331787,5145.159668 3259.907959,5143.638672 
	C3280.355957,5142.468750 3300.824951,5138.962891 3320.913818,5134.734375 
	C3378.968994,5122.514648 3432.186768,5098.475098 3481.303223,5065.514648 
	C3516.464355,5041.919922 3546.214844,5012.224609 3570.497803,4977.741699 
	C3591.293701,4948.209473 3605.463623,4915.079590 3616.043945,4880.438965 
	C3624.417725,4853.022949 3629.105713,4824.815430 3634.649170,4796.816895 
	C3637.731201,4781.250977 3637.627930,4765.078613 3640.210449,4749.385254 
	C3644.670898,4722.277344 3641.479980,4694.716309 3644.793701,4667.828125 
	C3649.636230,4628.531738 3647.602783,4589.343262 3647.656006,4550.144043 
	C3648.022461,4280.178711 3647.838135,4010.213135 3647.902100,3740.247559 
	C3647.904053,3731.756592 3646.626709,3723.035645 3649.995361,3714.615723 
	C3657.315918,3710.799316 3664.758057,3712.033691 3671.914795,3712.025879 
	C3752.571289,3711.937012 3833.227539,3711.969238 3913.884033,3711.969971 
	C3929.882080,3711.969971 3945.881592,3711.841309 3961.876953,3712.052002 
	C3967.019287,3712.119873 3972.149658,3713.086182 3977.649658,3713.680664 
	C3978.544922,3717.140869 3979.753174,3719.629883 3979.753418,3722.118896 
	C3979.838379,4275.377441 3979.840576,4828.636230 3979.761963,5381.895020 
	C3979.761475,5384.387695 3978.566895,5386.880859 3977.705566,5390.252930 
	C3973.560791,5390.900879 3969.752441,5392.012695 3965.942871,5392.016602 
	C3873.954834,5392.112305 3781.966797,5392.102539 3689.978760,5392.038086 
	C3686.702637,5392.035645 3683.427246,5391.282715 3680.507568,5390.923340 
	C3673.982910,5384.510742 3676.182373,5376.759277 3676.155029,5369.713867 
	C3675.965576,5321.054199 3676.078857,5272.393555 3676.023438,5223.732910 
	C3676.016113,5217.272949 3675.604004,5210.813477 3675.279785,5201.490723 
	C3671.488525,5204.875977 3669.597168,5206.265625 3668.065918,5207.977539 
	C3649.425049,5228.816895 3630.610596,5249.421875 3608.311768,5266.590820 
	C3597.268555,5275.093262 3587.029297,5284.640625 3576.437988,5293.728027 
	C3550.030762,5316.385742 3520.611328,5334.447266 3490.153320,5351.062500 
	C3453.794434,5370.897461 3416.058594,5387.457520 3376.337646,5399.096680 
	C3345.104736,5408.248535 3313.425049,5415.298340 3281.197754,5420.778809 
	C3235.536133,5428.543457 3189.792236,5427.999512 3143.920166,5428.130371 
	C3133.921875,5428.158691 3123.919189,5427.865723 3113.925049,5428.056641 
	C3092.539062,5428.464355 3071.613525,5424.461426 3050.604736,5421.482910 
	C3033.535400,5419.062500 3016.522949,5416.076172 2999.629395,5412.633301 
	C2985.321045,5409.717773 2971.132812,5406.103516 2957.042725,5402.245605 
	C2926.842529,5393.976074 2897.502441,5383.486816 2868.720215,5370.901367 
	C2831.978271,5354.835938 2796.516602,5336.768066 2763.418945,5314.133789 
	C2737.531738,5296.429688 2712.661621,5277.387695 2691.997070,5253.640625 
	C2669.255371,5227.507324 2648.758545,5199.708496 2632.394287,5168.978027 
	C2618.580811,5143.037598 2606.558838,5116.218262 2597.202148,5088.512207 
	C2585.940186,5055.164551 2576.722900,5021.105469 2571.816162,4986.035645 
	C2567.950195,4958.404785 2566.304199,4930.543945 2563.106689,4902.927246 
	C2559.325195,4870.270508 2560.043213,4837.778320 2560.019043,4805.237305 
	C2559.758545,4449.282715 2559.848877,4093.328125 2559.876709,3737.373535 
	C2559.877441,3730.142334 2560.280273,3722.911133 2560.451172,3717.170166 
	C2566.662354,3710.649170 2572.978516,3712.441650 2580.709473,3711.970703 
M3566.188721,5244.222656 
	C3608.692627,5208.315918 3645.462891,5167.157715 3677.983154,5122.113281 
	C3690.077637,5105.360352 3702.060791,5088.526855 3714.251221,5071.844727 
	C3715.981689,5069.476074 3717.388916,5065.591309 3723.220459,5067.993652 
	C3723.220459,5073.978516 3723.220215,5080.479004 3723.220215,5086.979980 
	C3723.220459,5166.308594 3723.196045,5245.637207 3723.263672,5324.965820 
	C3723.269775,5332.107422 3722.398193,5339.427246 3724.938721,5346.884277 
	C3728.206299,5347.343750 3730.747070,5348.012207 3733.288574,5348.013184 
	C3797.949707,5348.039062 3862.611084,5348.008301 3927.271973,5347.892090 
	C3929.114746,5347.889160 3930.955322,5346.842773 3933.528076,5346.060059 
	C3936.319336,5337.787109 3935.053955,5329.096680 3935.054932,5320.604980 
	C3935.116699,4808.635742 3935.110352,4296.666992 3935.109131,3784.697998 
	C3935.109131,3779.364990 3935.387695,3774.009521 3934.984131,3768.706543 
	C3934.697998,3764.945557 3933.480469,3761.255371 3932.664551,3757.467529 
	C3928.385498,3757.124268 3925.088135,3756.623779 3921.791504,3756.630371 
	C3847.145508,3756.780029 3772.499756,3756.983887 3697.853760,3757.200195 
	C3697.216064,3757.202148 3696.515625,3757.406738 3695.959961,3757.720703 
	C3695.397705,3758.038818 3694.979004,3758.611084 3693.356689,3760.163574 
	C3691.407715,3766.667480 3692.395996,3774.666016 3692.394287,3782.511230 
	C3692.338379,4055.827881 3692.295898,4329.144531 3692.390625,4602.461426 
	C3692.409668,4657.153809 3690.799561,4711.716309 3684.622803,4766.129395 
	C3680.179688,4805.269043 3673.612061,4843.955566 3663.391602,4881.984375 
	C3636.535156,4981.912109 3578.830078,5058.858887 3490.815186,5113.186523 
	C3453.193604,5136.408691 3413.341797,5154.741699 3371.090576,5167.714844 
	C3311.235107,5186.092773 3250.088379,5192.979004 3187.511719,5189.209961 
	C3138.443115,5186.255371 3090.949463,5177.011719 3046.208252,5156.487305 
	C2940.661621,5108.067383 2878.433838,5026.236816 2859.577637,4911.613281 
	C2852.205078,4866.796875 2850.253174,4821.484375 2848.515625,4776.212891 
	C2847.288574,4744.248535 2847.064941,4712.229980 2847.047852,4680.235840 
	C2846.889404,4382.920410 2846.873291,4085.605469 2846.813477,3788.290283 
	C2846.812012,3781.624023 2847.107178,3774.935059 2846.639160,3768.300781 
	C2846.379150,3764.617920 2844.823242,3761.026367 2843.936279,3757.709961 
	C2840.822021,3757.253174 2838.855713,3756.714600 2836.889160,3756.712891 
	C2762.894287,3756.653809 2688.899414,3756.621582 2614.904541,3756.706543 
	C2611.789307,3756.709961 2608.675537,3757.868164 2604.891602,3758.621826 
	C2604.614502,3765.370117 2604.159424,3771.275879 2604.159424,3777.181396 
	C2604.156250,4107.161133 2604.195801,4437.141113 2604.217773,4767.121094 
	C2604.221436,4822.470703 2606.552979,4877.699219 2611.366455,4932.857910 
	C2616.148682,4987.660156 2628.220947,5040.666992 2647.532959,5092.134766 
	C2681.398682,5182.387695 2739.226562,5251.840332 2823.898682,5299.022949 
	C2912.730957,5348.523926 3007.764648,5376.686035 3108.973877,5383.346680 
	C3164.238770,5386.983398 3219.454102,5385.255371 3274.450684,5376.666504 
	C3383.093750,5359.699219 3479.823975,5316.902344 3566.188721,5244.222656 
z"/>
<path fill="#231f20" opacity="1.000000" stroke="none" 
	d="
M3308.348145,2360.073730 
	C3325.332031,2361.763184 3340.534180,2363.225586 3355.687012,2365.091064 
	C3373.458252,2367.279297 3391.197998,2369.736084 3408.929932,2372.229492 
	C3424.692627,2374.446045 3440.420410,2376.907959 3456.176270,2379.175049 
	C3459.464600,2379.648193 3462.803955,2379.926514 3466.125244,2379.981689 
	C3486.786621,2380.324951 3507.021240,2384.247559 3527.414551,2386.941406 
	C3544.518066,2389.200439 3561.750488,2390.489258 3578.932373,2392.141846 
	C3582.243164,2392.460205 3585.612793,2392.248047 3588.903809,2392.676025 
	C3596.609131,2393.679199 3599.423828,2397.579102 3597.136230,2405.063477 
	C3589.354248,2430.525879 3582.195801,2456.229736 3573.157227,2481.247803 
	C3546.301758,2555.583984 3510.182129,2624.952148 3462.115234,2688.092041 
	C3437.779541,2720.058594 3410.667480,2749.345947 3381.057129,2776.096191 
	C3341.013672,2812.271484 3297.223877,2843.413818 3249.611816,2869.396973 
	C3194.293457,2899.585205 3136.100830,2922.193115 3075.251709,2937.342041 
	C3049.648926,2943.716309 3023.772949,2950.738037 2997.049805,2952.240723 
	C2993.768799,2952.425049 2990.549072,2953.564453 2987.282471,2954.159912 
	C2971.600098,2957.018311 2955.812256,2958.783936 2939.952393,2960.521484 
	C2914.051758,2963.358887 2888.145996,2962.804932 2862.312744,2964.515381 
	C2847.781006,2965.477783 2833.338379,2968.250732 2818.645996,2967.659912 
	C2815.316895,2967.526123 2811.823242,2968.145508 2808.677490,2967.346680 
	C2788.983398,2962.344727 2768.892334,2963.458740 2749.012939,2964.148193 
	C2728.844238,2964.847656 2709.207275,2961.309570 2689.458252,2958.991699 
	C2667.077637,2956.364990 2644.839111,2952.210449 2622.704102,2947.875488 
	C2579.633789,2939.439941 2537.060547,2929.521240 2495.558105,2914.440918 
	C2462.301514,2902.356934 2429.781982,2888.905518 2398.493408,2872.718018 
	C2364.822510,2855.297363 2333.062256,2834.707275 2302.011719,2812.718750 
	C2262.009521,2784.391846 2227.195068,2750.667480 2194.001465,2715.225098 
	C2164.416016,2683.635010 2138.915039,2648.572266 2116.219238,2611.655762 
	C2093.492676,2574.689209 2074.833740,2535.572510 2058.337891,2495.527100 
	C2041.838013,2455.471924 2029.639771,2413.933838 2020.097900,2371.673096 
	C2013.223511,2341.227051 2006.909302,2310.692383 2003.559692,2279.562500 
	C2000.580322,2251.874268 1996.234497,2224.335205 1992.704712,2196.702881 
	C1992.032593,2191.441406 1992.238770,2186.053223 1992.235718,2180.723389 
	C1992.205322,2128.727051 1992.081055,2076.729980 1992.342285,2024.734863 
	C1992.388672,2015.498413 1994.088745,2006.270264 1995.021362,1997.037842 
	C1995.355713,1993.728271 1996.015259,1990.411133 1995.952881,1987.108276 
	C1995.549561,1965.694214 1999.586426,1944.811523 2003.145142,1923.852783 
	C2004.922241,1913.386230 2006.653809,1902.879150 2007.648926,1892.318970 
	C2010.593628,1861.070679 2018.941528,1830.942627 2025.883667,1800.501221 
	C2035.391479,1758.807983 2049.379639,1718.463867 2065.646484,1679.164551 
	C2078.858154,1647.247070 2095.708984,1616.747925 2112.200439,1586.299438 
	C2130.607422,1552.313843 2153.543945,1521.213257 2177.062744,1490.594360 
	C2178.279297,1489.010498 2179.364746,1487.305664 2180.719971,1485.852051 
	C2200.231689,1464.924805 2219.097656,1443.334106 2239.535156,1423.351440 
	C2255.651367,1407.593994 2273.640381,1393.740356 2290.929443,1379.197510 
	C2311.308105,1362.055786 2333.115723,1346.741699 2355.623291,1332.676270 
	C2394.034668,1308.672241 2433.865967,1287.488892 2476.322021,1270.919312 
	C2513.651611,1256.350708 2551.355957,1243.602417 2590.376221,1234.823853 
	C2618.204346,1228.563477 2646.232178,1223.574829 2674.514160,1219.285278 
	C2729.523926,1210.941528 2784.639160,1212.269043 2839.824951,1212.015991 
	C2847.823975,1211.979370 2855.825195,1212.218384 2863.822754,1212.118652 
	C2884.526611,1211.860596 2904.758545,1216.084839 2925.185791,1218.446777 
	C2927.160645,1218.675171 2929.088135,1219.569946 2931.049561,1219.613525 
	C2969.370117,1220.464111 3005.837402,1231.447754 3042.478271,1240.792725 
	C3093.597412,1253.830200 3142.704102,1272.827026 3189.470459,1297.215698 
	C3233.201416,1320.021484 3274.205322,1347.143066 3312.611572,1378.303345 
	C3328.200928,1390.951782 3342.223877,1405.058716 3356.831543,1418.654541 
	C3369.463135,1430.410767 3381.507324,1442.690186 3393.379150,1455.206055 
	C3413.575195,1476.498535 3431.306396,1499.734619 3448.729248,1523.240356 
	C3479.038574,1564.132080 3502.013916,1609.279907 3523.123779,1655.272827 
	C3538.386719,1688.526855 3551.214600,1722.907837 3560.302979,1758.506836 
	C3566.716064,1783.625977 3573.917725,1808.581543 3579.239014,1833.931030 
	C3584.686279,1859.881714 3589.438965,1886.020264 3592.063721,1912.496460 
	C3593.960449,1931.630615 3596.955322,1950.653564 3599.083740,1969.768066 
	C3599.892090,1977.026733 3599.702393,1984.401489 3599.865967,1991.725708 
	C3600.147461,2004.350830 3601.987305,2016.961792 3602.523438,2029.415771 
	C3604.126953,2066.665283 3603.445801,2104.025879 3603.108643,2141.338135 
	C3603.019043,2151.228760 3600.764893,2161.084473 3599.864746,2170.988770 
	C3599.292236,2177.285156 3595.695312,2180.672607 3590.116943,2182.086670 
	C3586.291748,2183.056152 3582.253906,2183.407227 3578.292480,2183.567139 
	C3572.302490,2183.808838 3566.295654,2183.649902 3560.296143,2183.649902 
	C3163.652832,2183.650635 2767.009521,2183.641357 2370.366211,2183.705322 
	C2361.196289,2183.706787 2351.818359,2182.402344 2341.919189,2185.918213 
	C2338.119873,2198.431152 2338.847656,2211.160156 2340.928955,2223.360596 
	C2347.294189,2260.673828 2353.190918,2298.088135 2363.569580,2334.634766 
	C2380.625244,2394.693848 2405.007568,2451.309814 2441.504639,2502.202148 
	C2450.769287,2515.120605 2462.002441,2526.628418 2472.347412,2538.770752 
	C2476.225342,2543.322510 2480.169434,2547.817871 2484.046143,2552.370605 
	C2486.630859,2555.406006 2488.735352,2559.002686 2491.762939,2561.484863 
	C2516.416992,2581.698242 2539.341064,2603.987305 2566.729248,2620.898438 
	C2596.916748,2639.538086 2628.398438,2655.426758 2661.962646,2666.570068 
	C2687.142822,2674.929688 2712.821289,2682.010010 2739.520264,2684.607422 
	C2754.682373,2686.082520 2769.643799,2689.583984 2784.801025,2691.158447 
	C2796.027588,2692.324707 2807.423584,2691.881348 2818.744873,2692.111572 
	C2870.335449,2693.161377 2920.998047,2686.367432 2970.247070,2671.370850 
	C2996.947754,2663.240234 3022.569824,2651.796875 3047.204834,2638.304199 
	C3085.155273,2617.518066 3116.584473,2588.804443 3144.969971,2556.868896 
	C3168.398438,2530.509766 3188.811035,2501.728027 3205.150146,2470.202881 
	C3222.335938,2437.044189 3238.393555,2403.384521 3251.226074,2368.309570 
	C3254.553467,2359.215088 3259.671875,2356.132080 3268.940674,2355.921631 
	C3281.742920,2355.631104 3294.111084,2357.764893 3308.348145,2360.073730 
M2426.380127,1344.014648 
	C2267.379883,1431.709717 2157.050293,1560.911987 2095.307129,1731.713989 
	C2063.808838,1818.848877 2047.498779,1909.077271 2040.864380,2001.118164 
	C2033.847046,2098.469482 2036.314331,2195.589844 2051.618896,2292.205811 
	C2062.078369,2358.235107 2078.482178,2422.645264 2104.040771,2484.473877 
	C2176.599121,2659.998291 2300.658203,2784.801514 2475.579102,2858.467529 
	C2566.191650,2896.628418 2661.651855,2914.178955 2759.424561,2919.254883 
	C2813.348633,2922.054443 2867.315674,2921.607666 2921.243896,2916.765625 
	C2976.474121,2911.806152 3030.876465,2902.799805 3084.248291,2887.786865 
	C3203.105225,2854.353516 3305.743164,2793.994385 3389.588623,2702.824463 
	C3458.883789,2627.476318 3506.247070,2539.572266 3537.345703,2442.495361 
	C3538.124023,2440.065186 3538.472412,2437.497314 3538.903564,2435.530518 
	C3537.804688,2434.412109 3537.427979,2433.667480 3536.967041,2433.610840 
	C3457.631104,2423.896729 3378.290039,2414.224854 3298.944092,2404.592285 
	C3296.316406,2404.273438 3293.639404,2404.332031 3290.984131,2404.289307 
	C3290.337158,2404.279053 3289.642090,2404.469482 3289.047607,2404.739746 
	C3288.468750,2405.002686 3287.990479,2405.487061 3287.608643,2405.770020 
	C3287.011475,2406.356201 3286.348145,2406.735840 3286.094482,2407.299805 
	C3284.184570,2411.546387 3282.304199,2415.808105 3280.508789,2420.104248 
	C3260.920654,2466.978271 3237.252930,2511.616943 3207.406006,2552.824951 
	C3132.499512,2656.243896 3030.509521,2714.113037 2904.925781,2731.675537 
	C2853.860840,2738.816895 2802.640625,2738.576416 2751.395996,2732.526855 
	C2698.041992,2726.228027 2646.709473,2712.638916 2598.250977,2689.474854 
	C2478.730713,2632.340088 2394.611084,2541.531006 2343.970215,2419.454346 
	C2307.769043,2332.185791 2293.224854,2240.423340 2288.291504,2146.740479 
	C2288.158691,2144.223145 2288.809570,2141.664551 2289.167236,2138.483154 
	C2297.360107,2136.044189 2305.358643,2137.067383 2313.198242,2137.066406 
	C2717.173584,2137.014648 3121.148926,2137.020752 3525.124268,2137.020508 
	C3531.124023,2137.020508 3537.127930,2137.153320 3543.121582,2136.961914 
	C3546.887695,2136.842285 3550.638184,2136.232666 3555.242676,2135.755127 
	C3555.490479,2130.546143 3555.757812,2126.664062 3555.847412,2122.778076 
	C3557.704590,2041.986572 3553.781006,1961.594727 3540.540527,1881.725952 
	C3529.056885,1812.454834 3511.300293,1744.983154 3483.504395,1680.450562 
	C3412.698730,1516.062256 3295.760742,1396.095337 3133.443115,1321.000122 
	C3041.442871,1278.436768 2943.606445,1259.954346 2842.792480,1256.369873 
	C2790.117920,1254.497192 2737.571289,1256.571533 2685.174072,1263.368164 
	C2595.150635,1275.045532 2509.396973,1300.042969 2426.380127,1344.014648 
z"/>
<path fill="#231f20" opacity="1.000000" stroke="none" 
	d="
M4715.921875,3372.000000 
	C4715.921875,3533.179932 4715.921875,3692.360107 4715.921875,3850.950439 
	C4721.401855,3853.370117 4723.639648,3850.342041 4725.731934,3848.056152 
	C4746.059082,3825.846680 4769.763184,3807.422119 4793.526855,3789.296387 
	C4810.395020,3776.430176 4828.841797,3765.500732 4847.181641,3754.723633 
	C4886.360840,3731.700195 4928.005859,3714.104736 4971.467773,3700.903320 
	C4996.291504,3693.362793 5021.642578,3688.213623 5047.201172,3683.576172 
	C5103.355469,3673.387207 5159.924316,3676.373291 5216.425293,3676.241699 
	C5241.215820,3680.867676 5266.438965,3682.016846 5291.314941,3686.623779 
	C5330.671875,3693.912354 5369.308105,3703.477051 5407.109375,3716.419678 
	C5436.093262,3726.343262 5464.327637,3738.016846 5491.900391,3751.588867 
	C5518.833496,3764.845215 5544.735352,3779.608643 5569.871582,3795.916260 
	C5612.605957,3823.641602 5650.458496,3857.137695 5684.365234,3894.872314 
	C5714.178711,3928.050293 5740.986328,3963.688477 5763.285156,4002.502197 
	C5772.898926,4019.234863 5783.445801,4035.514160 5791.877441,4052.823242 
	C5804.403320,4078.538818 5816.354004,4104.618164 5826.889160,4131.201172 
	C5846.527344,4180.754395 5862.230957,4231.641602 5873.698242,4283.729492 
	C5879.690430,4310.949219 5885.353027,4338.253906 5888.250000,4366.067383 
	C5890.034180,4383.203125 5893.064941,4400.205566 5895.164551,4417.313477 
	C5895.973145,4423.899414 5895.819824,4430.610840 5895.986816,4437.267578 
	C5896.286621,4449.224121 5895.592285,4461.179688 5898.986816,4472.980957 
	C5900.417480,4477.954102 5899.793945,4483.565430 5899.813965,4488.887695 
	C5899.903320,4512.884277 5900.052734,4536.882812 5899.853516,4560.877441 
	C5899.726562,4576.144043 5901.084473,4591.515625 5896.665039,4606.559570 
	C5895.572754,4610.276367 5896.041992,4614.509766 5896.109863,4618.500000 
	C5896.589355,4646.514648 5892.310059,4674.066895 5888.881348,4701.760742 
	C5886.434570,4721.522461 5883.518555,4741.196289 5880.902832,4760.917480 
	C5877.038086,4790.052734 5869.355957,4818.254883 5862.350586,4846.625977 
	C5845.347168,4915.492188 5820.047852,4981.308105 5785.913086,5043.436035 
	C5763.811523,5083.663086 5738.866211,5122.091309 5709.176758,5157.510254 
	C5680.388184,5191.853516 5648.503906,5223.113281 5615.660645,5253.168945 
	C5589.296387,5277.294922 5560.132812,5298.513672 5529.667969,5317.764648 
	C5505.420410,5333.087891 5481.039551,5347.997070 5455.138184,5360.327148 
	C5401.415527,5385.901367 5345.557617,5405.198242 5287.014648,5416.137207 
	C5268.132812,5419.665527 5248.881836,5421.169922 5229.902344,5424.235352 
	C5182.177734,5431.942871 5134.061523,5429.058105 5086.333008,5427.137207 
	C5044.047363,5425.435547 5001.986816,5418.375000 4961.060059,5405.309082 
	C4929.270020,5395.160156 4897.824707,5384.256348 4868.147461,5369.317383 
	C4842.077637,5356.193848 4816.748047,5341.400391 4793.412109,5323.451660 
	C4772.818359,5307.612305 4752.567383,5291.557617 4734.308594,5272.926758 
	C4725.530762,5263.969727 4715.758301,5255.992188 4707.791504,5246.156738 
	C4705.484375,5243.308105 4702.081055,5241.347656 4697.127930,5237.305664 
	C4694.623047,5264.903809 4696.328125,5289.953125 4695.833008,5314.926758 
	C4695.346680,5339.449219 4696.733398,5364.026855 4694.921875,5389.318359 
	C4690.128418,5390.393555 4686.437500,5391.614746 4682.665039,5391.968262 
	C4678.037598,5392.401367 4673.342773,5392.127930 4668.676758,5392.128418 
	C4581.355469,5392.131836 4494.033691,5392.170410 4406.712402,5392.065430 
	C4398.880859,5392.055664 4390.782227,5393.472656 4382.214355,5389.489258 
	C4381.575684,5385.884766 4380.534180,5382.116211 4380.318359,5378.300293 
	C4379.979980,5372.319336 4380.184082,5366.307129 4380.184082,5360.308105 
	C4380.181641,4614.409180 4380.174805,3868.510010 4380.265625,3122.611084 
	C4380.266602,3113.454834 4378.595703,3104.028076 4382.630859,3093.987305 
	C4386.259766,3093.315186 4390.009766,3092.152100 4393.797852,3092.013916 
	C4402.452637,3091.698242 4411.125000,3091.868652 4419.790527,3091.868164 
	C4509.778320,3091.864502 4599.766113,3091.830322 4689.753906,3091.929199 
	C4697.568848,3091.937744 4705.664062,3090.571289 4713.585938,3094.311279 
	C4717.159180,3102.121582 4715.854004,3110.208984 4715.862793,3118.029053 
	C4715.958008,3202.019287 4715.921875,3286.009766 4715.921875,3372.000000 
M4669.013184,3518.000000 
	C4669.013184,3437.337158 4669.013672,3356.674072 4669.013184,3276.011230 
	C4669.013184,3235.346924 4669.063477,3194.682373 4668.949219,3154.018555 
	C4668.933105,3148.253662 4668.108887,3142.490967 4667.714355,3137.443604 
	C4664.995117,3136.394531 4663.799316,3135.531738 4662.601074,3135.528320 
	C4591.946777,3135.322266 4521.292480,3135.170654 4450.638184,3135.075684 
	C4444.655273,3135.067871 4438.671387,3135.473145 4432.689453,3135.724854 
	C4432.047363,3135.751465 4431.339844,3135.910645 4430.800781,3136.236572 
	C4430.252441,3136.567383 4429.875000,3137.180664 4428.037109,3139.170410 
	C4427.876465,3145.447998 4427.499023,3153.311035 4427.498535,3161.174072 
	C4427.471680,3881.132080 4427.473145,4601.089844 4427.474609,5321.047852 
	C4427.474609,5325.714355 4427.329590,5330.388672 4427.548828,5335.044922 
	C4427.728027,5338.842773 4428.353516,5342.619141 4428.873535,5347.220703 
	C4433.863770,5347.562012 4437.750488,5348.056152 4441.637695,5348.059082 
	C4506.300293,5348.104980 4570.963379,5348.117188 4635.625977,5348.017578 
	C4639.398926,5348.011719 4643.170898,5346.998047 4648.138672,5346.280762 
	C4648.229492,5336.103516 4648.341797,5326.875977 4648.385254,5317.648926 
	C4648.425781,5308.982910 4648.394043,5300.316895 4648.394043,5291.650879 
	C4648.394043,5282.317871 4648.394043,5272.985352 4648.394043,5263.652344 
	C4648.394043,5254.319336 4648.394043,5244.986816 4648.394043,5235.653809 
	C4648.394043,5226.987793 4648.394043,5218.321289 4648.394043,5209.655273 
	C4648.394043,5200.322754 4648.394043,5190.989746 4648.394043,5181.657227 
	C4648.394043,5172.324219 4648.394043,5162.991699 4648.394043,5153.658691 
	C4648.394043,5144.992676 4648.257812,5136.323242 4648.431152,5127.661133 
	C4648.610840,5118.690918 4647.666992,5109.610840 4649.578613,5097.666992 
	C4654.334961,5103.407715 4657.372559,5106.670898 4659.955566,5110.260742 
	C4671.634277,5126.490723 4682.641602,5143.236328 4694.915039,5158.998047 
	C4711.277832,5180.011719 4727.563477,5201.239746 4745.668945,5220.714844 
	C4829.221191,5310.586914 4932.570801,5362.792480 5053.895020,5379.291016 
	C5109.592773,5386.865234 5165.488770,5386.718262 5221.435547,5380.798340 
	C5281.469727,5374.445801 5339.570801,5360.479492 5395.346191,5337.480957 
	C5519.404785,5286.326660 5618.867188,5203.826660 5698.219727,5096.604492 
	C5748.685059,5028.415039 5783.291992,4952.160645 5807.850586,4871.192871 
	C5832.937012,4788.485352 5846.270020,4703.652344 5850.935059,4617.600586 
	C5856.104492,4522.244629 5854.098633,4427.106934 5836.527832,4332.728027 
	C5819.711914,4242.405273 5792.074219,4155.793945 5750.519043,4073.809326 
	C5721.142578,4015.850830 5685.324707,3962.188232 5640.692383,3914.733643 
	C5577.877930,3847.947754 5502.287109,3800.408447 5417.075684,3767.722168 
	C5312.658203,3727.669189 5204.741211,3712.811768 5093.298828,3723.215332 
	C5037.813965,3728.395508 4984.286621,3741.144775 4932.826172,3762.489502 
	C4847.942871,3797.697998 4777.710449,3852.653076 4718.327637,3922.121582 
	C4704.901855,3937.827637 4691.910156,3953.904541 4678.568848,3969.684326 
	C4676.658691,3971.943604 4674.845703,3975.572510 4670.779785,3973.554688 
	C4670.244629,3972.893555 4669.523438,3972.419189 4669.522949,3971.943604 
	C4669.320801,3821.962402 4669.167969,3671.981201 4669.013184,3518.000000 
z"/>
<path fill="#ff8800" opacity="1.000000" stroke="none" 
	d="
M1802.832520,4061.797363 
	C1809.272217,4061.412109 1813.847290,4061.031250 1819.213135,4060.584473 
	C1819.804810,4056.230957 1820.610840,4052.439209 1820.772339,4048.620117 
	C1821.025757,4042.631104 1820.845947,4036.623535 1820.845947,4030.623779 
	C1820.846436,3741.304199 1820.835938,3451.984375 1820.898071,3162.664795 
	C1820.899902,3154.163574 1819.739014,3145.479004 1822.640259,3136.500977 
	C1827.011597,3135.977051 1830.854248,3135.202393 1834.714722,3135.100586 
	C1909.590210,3133.129395 2063.953613,3134.220947 2083.628662,3136.962646 
	C2084.155029,3140.328369 2085.042969,3144.061768 2085.256104,3147.833740 
	C2085.557373,3153.150391 2085.372070,3158.495605 2085.372070,3163.828613 
	C2085.374268,3882.461182 2085.375244,4601.093750 2085.360107,5319.726562 
	C2085.359863,5328.291016 2085.149414,5336.855469 2085.025635,5346.293457 
	C2079.280762,5347.000977 2074.821045,5348.023926 2070.360596,5348.029785 
	C1992.364258,5348.128418 1914.368042,5348.124023 1836.371704,5348.052734 
	C1831.894775,5348.048340 1827.418579,5347.281250 1821.656250,5346.750977 
	C1820.107788,5327.330566 1821.050293,5308.780273 1820.883545,5290.283691 
	C1820.715210,5271.619141 1820.846436,5252.952637 1820.846436,5234.286621 
	C1820.846436,5215.621094 1820.846436,5196.955078 1820.846436,5178.289551 
	C1820.846436,5159.623535 1820.846436,5140.958008 1820.846436,5122.291992 
	C1820.846436,5104.292969 1820.846436,5086.293457 1820.846436,5068.294434 
	C1820.846436,5049.628906 1820.846436,5030.962891 1820.846436,5012.297363 
	C1820.846436,4993.631348 1820.846436,4974.965820 1820.846436,4956.299805 
	C1820.846436,4937.634277 1820.846436,4918.968262 1820.846436,4900.302734 
	C1820.846436,4881.636719 1820.846436,4862.971191 1820.846436,4844.305176 
	C1820.846436,4825.639160 1820.846436,4806.973633 1820.846436,4788.307617 
	C1820.846436,4769.642090 1820.846436,4750.976074 1820.846436,4732.310547 
	C1820.846436,4713.644531 1820.846436,4694.979004 1820.846436,4676.312988 
	C1820.846436,4657.647461 1820.846436,4638.981445 1820.846436,4620.315918 
	C1820.846436,4601.649902 1820.846436,4582.984375 1820.846436,4564.318359 
	C1820.846436,4546.319336 1820.846436,4528.319824 1820.846436,4510.320801 
	C1820.846436,4491.655273 1820.846436,4472.989258 1820.846436,4454.323730 
	C1820.846436,4435.657715 1820.846436,4416.992188 1820.846436,4398.326172 
	C1820.846436,4379.660645 1821.059814,4360.991699 1820.786011,4342.330078 
	C1820.514160,4323.801270 1822.038696,4305.201660 1819.569946,4285.735840 
	C1815.303589,4285.168945 1811.514160,4284.430664 1807.695435,4284.218262 
	C1803.042969,4283.959473 1798.365845,4284.134766 1793.699463,4284.134766 
	C1390.385132,4284.133789 987.070862,4284.131836 583.756592,4284.149902 
	C575.886230,4284.150391 568.015869,4284.390625 559.619080,4284.527832 
	C558.802551,4289.047363 557.876953,4292.213867 557.728210,4295.416016 
	C557.450134,4301.403320 557.609924,4307.411621 557.609924,4313.411133 
	C557.607788,4648.728516 557.609924,4984.046387 557.597412,5319.363770 
	C557.597107,5327.969727 557.438904,5336.575684 557.347412,5345.881348 
	C552.453064,5346.747070 548.669861,5347.994629 544.884827,5348.000000 
	C465.555420,5348.118164 386.225861,5348.113281 306.896332,5348.053223 
	C303.044159,5348.050293 299.192566,5347.329590 295.398285,5346.949219 
	C294.479004,5344.301758 293.287903,5342.473633 293.287750,5340.645508 
	C293.217102,4608.019043 293.226318,3875.392578 293.312195,3142.766113 
	C293.312439,3140.923828 294.457214,3139.081543 295.305786,3136.519775 
	C298.426117,3136.046875 301.596344,3135.250244 304.792084,3135.129639 
	C354.207031,3133.264404 538.013245,3134.511719 555.745850,3136.930908 
	C556.304626,3140.265625 557.301086,3143.983643 557.474976,3147.739746 
	C557.782959,3154.392578 557.605774,3161.068604 557.605835,3167.734863 
	C557.608337,3457.054443 557.597900,3746.374268 557.662048,4035.693848 
	C557.663757,4043.542236 556.514954,4051.567139 559.459900,4060.286621 
	C563.395203,4060.795166 567.200623,4061.540527 571.032593,4061.720459 
	C576.354248,4061.970703 581.695801,4061.803467 587.028870,4061.803467 
	C991.675293,4061.803711 1396.321655,4061.802490 1802.832520,4061.797363 
z"/>
<path fill="#ffffff" opacity="1.000000" stroke="none" 
	d="
M1419.813232,991.803467 
	C1527.483643,888.244263 1634.145386,785.681213 1740.805908,683.116760 
	C1742.247314,681.730713 1743.891235,680.489868 1745.066895,678.904175 
	C1750.434082,671.665527 1757.835815,669.882996 1766.282104,670.622803 
	C1767.604980,670.738708 1768.947021,670.637695 1770.280151,670.637695 
	C1875.598267,670.638123 1980.916260,670.638550 2086.234375,670.639038 
	C2091.486328,670.639099 2096.738525,670.639099 2103.164795,670.639099 
	C2102.027832,678.596558 2096.357910,681.497620 2092.381104,685.218506 
	C2044.682739,729.846069 1996.839478,774.319092 1949.016846,818.813660 
	C1820.675781,938.222717 1692.314575,1057.609863 1563.984009,1177.030151 
	C1434.677734,1297.358643 1305.396729,1417.714111 1176.113281,1538.066895 
	C1168.356079,1545.288208 1160.673706,1552.589844 1152.049561,1560.707764 
	C1172.872314,1589.428833 1194.266602,1616.409424 1215.093384,1643.805908 
	C1236.064819,1671.392456 1257.159790,1698.885010 1278.194214,1726.423706 
	C1299.228149,1753.962158 1320.250610,1781.509155 1341.284668,1809.047485 
	C1362.318970,1836.585938 1383.359009,1864.120117 1404.401245,1891.652466 
	C1425.443481,1919.184692 1446.498413,1946.707275 1467.535400,1974.243408 
	C1488.572388,2001.779297 1509.591431,2029.328857 1530.622681,2056.869141 
	C1551.653931,2084.409424 1572.689575,2111.946533 1593.725464,2139.483154 
	C1614.761475,2167.020020 1635.791992,2194.561279 1656.840088,2222.088867 
	C1677.483521,2249.087158 1698.154541,2276.064453 1718.797852,2303.062988 
	C1739.846069,2330.590820 1760.876465,2358.132080 1781.912476,2385.669189 
	C1802.948486,2413.206299 1823.978516,2440.748047 1845.017090,2468.283447 
	C1866.055420,2495.818604 1887.104736,2523.345459 1908.142700,2550.881104 
	C1929.180542,2578.416260 1950.211060,2605.956787 1971.243530,2633.496094 
	C1992.275879,2661.035400 2013.307007,2688.575439 2034.337769,2716.115967 
	C2055.368652,2743.656738 2076.407471,2771.191650 2097.427002,2798.741211 
	C2118.281006,2826.073486 2139.426025,2853.193604 2159.407471,2880.098633 
	C2158.066650,2882.476074 2157.878418,2883.228760 2157.401611,2883.540283 
	C2156.896240,2883.870361 2156.116455,2883.862061 2155.456543,2883.862793 
	C2046.809204,2883.947998 1938.161865,2884.021240 1829.514526,2884.093994 
	C1823.542114,2884.098145 1817.569702,2884.094482 1810.453491,2884.094482 
	C1530.050537,2500.059326 1249.615723,2115.980469 970.037292,1733.074463 
	C967.575378,1732.438721 966.906555,1732.082520 966.291199,1732.158813 
	C965.676880,1732.234741 965.016174,1732.637207 964.546082,1733.078247 
	C829.423645,1859.823364 694.316040,1986.584351 558.278503,2114.217041 
	C558.271362,2150.529785 558.261353,2187.131348 558.257751,2223.732910 
	C558.254150,2260.394287 558.256958,2297.055664 558.256958,2333.717041 
	C558.256958,2370.378418 558.256958,2407.039795 558.256958,2443.701172 
	C558.256958,2479.696045 558.256958,2515.690674 558.256958,2551.685547 
	C558.256958,2588.346924 558.256958,2625.008057 558.256958,2661.669434 
	C558.256958,2698.330811 558.261108,2734.992188 558.255737,2771.653564 
	C558.250366,2808.218750 558.282898,2844.784668 558.227478,2882.596680 
	C553.887573,2883.213623 550.829956,2884.025391 547.771667,2884.028076 
	C466.450195,2884.096924 385.128632,2884.090088 303.807129,2884.049561 
	C301.180267,2884.048096 298.553680,2883.558594 295.040771,2883.208496 
	C294.433899,2879.306885 293.568451,2875.526855 293.322968,2871.707031 
	C293.024353,2867.060059 293.245789,2862.379639 293.245789,2857.713623 
	C293.245453,2137.817871 293.243866,1417.922241 293.264679,698.026550 
	C293.264954,689.490540 292.813965,680.892334 293.813141,672.823364 
	C310.783142,669.963684 424.977509,669.066528 542.907532,670.683777 
	C547.424133,670.745605 551.931763,671.458435 555.840088,671.813110 
	C556.674377,673.356018 557.027222,673.926331 557.298279,674.533203 
	C557.563843,675.127625 557.813354,675.745117 557.946472,676.378357 
	C558.082520,677.025208 558.076294,677.703125 558.117920,678.368286 
	C558.159546,679.033142 558.192627,679.698730 558.212158,680.364563 
	C558.231750,681.030762 558.231323,681.697571 558.237000,682.364136 
	C558.242676,683.030701 558.246887,683.697205 558.248596,684.363770 
	C558.252014,685.696899 558.253418,687.030029 558.255127,688.363159 
	C558.255981,689.029724 558.255981,689.696350 558.256226,690.362915 
	C558.256470,691.029480 558.256592,691.696045 558.256592,692.362610 
	C558.256592,1060.975830 558.256531,1429.589111 558.256409,1798.202393 
	C558.256409,1799.535522 558.256348,1800.868652 558.256409,1802.201782 
	C558.256470,1802.868408 558.255432,1803.534912 558.257141,1804.201538 
	C558.258850,1804.868042 558.261475,1805.534668 558.266846,1806.201172 
	C558.272156,1806.867676 558.272827,1807.534302 558.291504,1808.200439 
	C558.310242,1808.866699 558.325867,1809.534424 558.384583,1810.197754 
	C558.442932,1810.856812 558.514893,1811.519165 558.651306,1812.165161 
	C558.788574,1812.815674 558.887573,1813.528809 559.235596,1814.063477 
	C559.543274,1814.536499 560.170349,1814.801758 560.656372,1815.158691 
	C561.284607,1815.381470 561.940369,1815.832764 562.533142,1815.761597 
	C563.103088,1815.692993 563.664001,1815.142944 564.132996,1814.702393 
	C572.389160,1806.947876 580.702637,1799.252808 588.864380,1791.400024 
	C865.520325,1525.209351 1142.161499,1259.003418 1419.813232,991.803467 
z"/>
<path fill="#ffffff" opacity="1.000000" stroke="none" 
	d="
M4641.854492,1525.968140 
	C4671.743652,1447.496460 4700.827637,1370.370850 4730.294922,1294.211548 
	C4752.378906,1291.658691 4951.199219,1292.004883 4968.038086,1294.640381 
	C4965.854004,1300.964722 4963.934082,1307.174194 4961.588867,1313.218506 
	C4930.767090,1392.656006 4899.857422,1472.059448 4869.022461,1551.491821 
	C4690.031738,2012.582275 4511.046875,2473.674805 4332.081543,2934.775146 
	C4295.462891,3029.122070 4258.097656,3123.159424 4215.545898,3215.034180 
	C4193.688477,3262.227539 4169.645508,3308.232422 4140.292969,3351.310547 
	C4115.804688,3387.249756 4088.305176,3420.570068 4056.004639,3449.819824 
	C3994.616699,3505.408936 3922.182129,3535.212158 3840.267822,3544.697510 
	C3768.738281,3552.979492 3699.442139,3543.295166 3631.015869,3523.284912 
	C3627.237793,3522.179688 3623.601074,3520.591309 3618.733398,3518.798828 
	C3614.197266,3483.131348 3609.225342,3447.615723 3605.278564,3411.986328 
	C3601.419434,3377.149658 3595.769043,3342.480713 3593.155518,3305.962158 
	C3601.940430,3307.364014 3609.091064,3308.211914 3616.114258,3309.672607 
	C3670.630127,3321.011230 3725.586670,3324.722900 3781.119141,3319.957520 
	C3869.875732,3312.341553 3941.774658,3274.544189 3992.993652,3200.704346 
	C4003.548828,3185.487549 4012.367432,3168.754150 4019.842529,3151.775879 
	C4036.198730,3114.624756 4051.750977,3077.092529 4066.569580,3039.299561 
	C4083.334229,2996.544678 4098.936035,2953.334229 4115.572266,2908.909424 
	C4109.997559,2894.567139 4104.041016,2879.087891 4097.972656,2863.652344 
	C3895.073730,2347.578369 3692.151855,1831.513672 3489.390625,1315.385742 
	C3486.810059,1308.816650 3482.291016,1302.486328 3483.643555,1293.371216 
	C3512.126953,1291.549927 3540.530762,1292.806396 3568.889648,1292.579102 
	C3597.551514,1292.349243 3626.217041,1292.523560 3654.880859,1292.529785 
	C3683.435303,1292.535889 3711.990723,1292.499634 3740.902588,1292.558105 
	C3743.812256,1299.885742 3746.344727,1305.940063 3748.637451,1312.083984 
	C3861.735352,1615.192627 3974.431885,1918.452148 4088.062500,2221.361084 
	C4140.491699,2361.123291 4185.613281,2503.119385 4224.049805,2647.300781 
	C4226.781250,2657.547119 4229.885254,2667.694336 4233.887695,2681.614258 
	C4236.732910,2672.749756 4238.750000,2667.440674 4240.145996,2661.973389 
	C4266.168945,2560.037354 4294.332520,2458.733887 4327.851562,2358.957031 
	C4355.632324,2276.259277 4387.308594,2195.015137 4418.319336,2113.517578 
	C4492.183594,1919.401123 4566.046875,1725.284302 4639.904297,1531.165527 
	C4640.378906,1529.917603 4640.765137,1528.635986 4641.854492,1525.968140 
z"/>
<path fill="#ff8800" opacity="1.000000" stroke="none" 
	d="
M3565.120117,5245.152344 
	C3479.823975,5316.902344 3383.093750,5359.699219 3274.450684,5376.666504 
	C3219.454102,5385.255371 3164.238770,5386.983398 3108.973877,5383.346680 
	C3007.764648,5376.686035 2912.730957,5348.523926 2823.898682,5299.022949 
	C2739.226562,5251.840332 2681.398682,5182.387695 2647.532959,5092.134766 
	C2628.220947,5040.666992 2616.148682,4987.660156 2611.366455,4932.857910 
	C2606.552979,4877.699219 2604.221436,4822.470703 2604.217773,4767.121094 
	C2604.195801,4437.141113 2604.156250,4107.161133 2604.159424,3777.181396 
	C2604.159424,3771.275879 2604.614502,3765.370117 2604.891602,3758.621826 
	C2608.675537,3757.868164 2611.789307,3756.709961 2614.904541,3756.706543 
	C2688.899414,3756.621582 2762.894287,3756.653809 2836.889160,3756.712891 
	C2838.855713,3756.714600 2840.822021,3757.253174 2843.936279,3757.709961 
	C2844.823242,3761.026367 2846.379150,3764.617920 2846.639160,3768.300781 
	C2847.107178,3774.935059 2846.812012,3781.624023 2846.813477,3788.290283 
	C2846.873291,4085.605469 2846.889404,4382.920410 2847.047852,4680.235840 
	C2847.064941,4712.229980 2847.288574,4744.248535 2848.515625,4776.212891 
	C2850.253174,4821.484375 2852.205078,4866.796875 2859.577637,4911.613281 
	C2878.433838,5026.236816 2940.661621,5108.067383 3046.208252,5156.487305 
	C3090.949463,5177.011719 3138.443115,5186.255371 3187.511719,5189.209961 
	C3250.088379,5192.979004 3311.235107,5186.092773 3371.090576,5167.714844 
	C3413.341797,5154.741699 3453.193604,5136.408691 3490.815186,5113.186523 
	C3578.830078,5058.858887 3636.535156,4981.912109 3663.391602,4881.984375 
	C3673.612061,4843.955566 3680.179688,4805.269043 3684.622803,4766.129395 
	C3690.799561,4711.716309 3692.409668,4657.153809 3692.390625,4602.461426 
	C3692.295898,4329.144531 3692.338379,4055.827881 3692.394287,3782.511230 
	C3692.395996,3774.666016 3691.407715,3766.667480 3693.356689,3760.163574 
	C3694.979004,3758.611084 3695.397705,3758.038818 3695.959961,3757.720703 
	C3696.515625,3757.406738 3697.216064,3757.202148 3697.853760,3757.200195 
	C3772.499756,3756.983887 3847.145508,3756.780029 3921.791504,3756.630371 
	C3925.088135,3756.623779 3928.385498,3757.124268 3932.664551,3757.467529 
	C3933.480469,3761.255371 3934.697998,3764.945557 3934.984131,3768.706543 
	C3935.387695,3774.009521 3935.109131,3779.364990 3935.109131,3784.697998 
	C3935.110352,4296.666992 3935.116699,4808.635742 3935.054932,5320.604980 
	C3935.053955,5329.096680 3936.319336,5337.787109 3933.528076,5346.060059 
	C3930.955322,5346.842773 3929.114746,5347.889160 3927.271973,5347.892090 
	C3862.611084,5348.008301 3797.949707,5348.039062 3733.288574,5348.013184 
	C3730.747070,5348.012207 3728.206299,5347.343750 3724.938721,5346.884277 
	C3722.398193,5339.427246 3723.269775,5332.107422 3723.263672,5324.965820 
	C3723.196045,5245.637207 3723.220459,5166.308594 3723.220215,5086.979980 
	C3723.220215,5080.479004 3723.220459,5073.978516 3723.220459,5067.993652 
	C3717.388916,5065.591309 3715.981689,5069.476074 3714.251221,5071.844727 
	C3702.060791,5088.526855 3690.077637,5105.360352 3677.983154,5122.113281 
	C3645.462891,5167.157715 3608.692627,5208.315918 3565.120117,5245.152344 
z"/>
<path fill="#ffffff" opacity="1.000000" stroke="none" 
	d="
M2427.698242,1343.329468 
	C2509.396973,1300.042969 2595.150635,1275.045532 2685.174072,1263.368164 
	C2737.571289,1256.571533 2790.117920,1254.497192 2842.792480,1256.369873 
	C2943.606445,1259.954346 3041.442871,1278.436768 3133.443115,1321.000122 
	C3295.760742,1396.095337 3412.698730,1516.062256 3483.504395,1680.450562 
	C3511.300293,1744.983154 3529.056885,1812.454834 3540.540527,1881.725952 
	C3553.781006,1961.594727 3557.704590,2041.986572 3555.847412,2122.778076 
	C3555.757812,2126.664062 3555.490479,2130.546143 3555.242676,2135.755127 
	C3550.638184,2136.232666 3546.887695,2136.842285 3543.121582,2136.961914 
	C3537.127930,2137.153320 3531.124023,2137.020508 3525.124268,2137.020508 
	C3121.148926,2137.020752 2717.173584,2137.014648 2313.198242,2137.066406 
	C2305.358643,2137.067383 2297.360107,2136.044189 2289.167236,2138.483154 
	C2288.809570,2141.664551 2288.158691,2144.223145 2288.291504,2146.740479 
	C2293.224854,2240.423340 2307.769043,2332.185791 2343.970215,2419.454346 
	C2394.611084,2541.531006 2478.730713,2632.340088 2598.250977,2689.474854 
	C2646.709473,2712.638916 2698.041992,2726.228027 2751.395996,2732.526855 
	C2802.640625,2738.576416 2853.860840,2738.816895 2904.925781,2731.675537 
	C3030.509521,2714.113037 3132.499512,2656.243896 3207.406006,2552.824951 
	C3237.252930,2511.616943 3260.920654,2466.978271 3280.508789,2420.104248 
	C3282.304199,2415.808105 3284.184570,2411.546387 3286.094482,2407.299805 
	C3286.348145,2406.735840 3287.011475,2406.356201 3287.608643,2405.770020 
	C3287.990479,2405.487061 3288.468750,2405.002686 3289.047607,2404.739746 
	C3289.642090,2404.469482 3290.337158,2404.279053 3290.984131,2404.289307 
	C3293.639404,2404.332031 3296.316406,2404.273438 3298.944092,2404.592285 
	C3378.290039,2414.224854 3457.631104,2423.896729 3536.967041,2433.610840 
	C3537.427979,2433.667480 3537.804688,2434.412109 3538.903564,2435.530518 
	C3538.472412,2437.497314 3538.124023,2440.065186 3537.345703,2442.495361 
	C3506.247070,2539.572266 3458.883789,2627.476318 3389.588623,2702.824463 
	C3305.743164,2793.994385 3203.105225,2854.353516 3084.248291,2887.786865 
	C3030.876465,2902.799805 2976.474121,2911.806152 2921.243896,2916.765625 
	C2867.315674,2921.607666 2813.348633,2922.054443 2759.424561,2919.254883 
	C2661.651855,2914.178955 2566.191650,2896.628418 2475.579102,2858.467529 
	C2300.658203,2784.801514 2176.599121,2659.998291 2104.040771,2484.473877 
	C2078.482178,2422.645264 2062.078369,2358.235107 2051.618896,2292.205811 
	C2036.314331,2195.589844 2033.847046,2098.469482 2040.864380,2001.118164 
	C2047.498779,1909.077271 2063.808838,1818.848877 2095.307129,1731.713989 
	C2157.050293,1560.911987 2267.379883,1431.709717 2427.698242,1343.329468 
M2481.671143,1555.641602 
	C2412.900391,1613.896484 2364.631836,1686.003418 2335.627930,1771.232788 
	C2317.037109,1825.862061 2308.001221,1882.217529 2304.399170,1939.599121 
	C2304.160889,1943.396240 2304.367920,1947.221191 2304.367920,1952.346436 
	C2313.435059,1952.588623 2321.265381,1952.979858 2329.095703,1952.980713 
	C2644.266113,1953.011475 2959.436768,1953.007080 3274.607178,1953.006714 
	C3279.271484,1953.006714 3283.955566,1953.265381 3288.593506,1952.914795 
	C3292.339844,1952.631592 3296.030518,1951.610840 3300.145508,1950.842651 
	C3294.947266,1889.322876 3286.477295,1829.476685 3269.046875,1771.111206 
	C3258.148193,1734.618652 3244.966553,1699.010742 3225.248291,1666.387817 
	C3162.949219,1563.316040 3073.766846,1494.288696 2958.407471,1459.935425 
	C2889.870117,1439.525391 2819.685547,1435.757324 2748.668945,1443.041748 
	C2649.137207,1453.251221 2560.573975,1489.324951 2481.671143,1555.641602 
z"/>
<path fill="#ff8800" opacity="1.000000" stroke="none" 
	d="
M4669.013672,3520.000000 
	C4669.167969,3671.981201 4669.320801,3821.962402 4669.522949,3971.943604 
	C4669.523438,3972.419189 4670.244629,3972.893555 4670.779785,3973.554688 
	C4674.845703,3975.572510 4676.658691,3971.943604 4678.568848,3969.684326 
	C4691.910156,3953.904541 4704.901855,3937.827637 4718.327637,3922.121582 
	C4777.710449,3852.653076 4847.942871,3797.697998 4932.826172,3762.489502 
	C4984.286621,3741.144775 5037.813965,3728.395508 5093.298828,3723.215332 
	C5204.741211,3712.811768 5312.658203,3727.669189 5417.075684,3767.722168 
	C5502.287109,3800.408447 5577.877930,3847.947754 5640.692383,3914.733643 
	C5685.324707,3962.188232 5721.142578,4015.850830 5750.519043,4073.809326 
	C5792.074219,4155.793945 5819.711914,4242.405273 5836.527832,4332.728027 
	C5854.098633,4427.106934 5856.104492,4522.244629 5850.935059,4617.600586 
	C5846.270020,4703.652344 5832.937012,4788.485352 5807.850586,4871.192871 
	C5783.291992,4952.160645 5748.685059,5028.415039 5698.219727,5096.604492 
	C5618.867188,5203.826660 5519.404785,5286.326660 5395.346191,5337.480957 
	C5339.570801,5360.479492 5281.469727,5374.445801 5221.435547,5380.798340 
	C5165.488770,5386.718262 5109.592773,5386.865234 5053.895020,5379.291016 
	C4932.570801,5362.792480 4829.221191,5310.586914 4745.668945,5220.714844 
	C4727.563477,5201.239746 4711.277832,5180.011719 4694.915039,5158.998047 
	C4682.641602,5143.236328 4671.634277,5126.490723 4659.955566,5110.260742 
	C4657.372559,5106.670898 4654.334961,5103.407715 4649.578613,5097.666992 
	C4647.666992,5109.610840 4648.610840,5118.690918 4648.431152,5127.661133 
	C4648.257812,5136.323242 4648.394043,5144.992676 4648.394043,5153.658691 
	C4648.394043,5162.991699 4648.394043,5172.324219 4648.394043,5181.657227 
	C4648.394043,5190.989746 4648.394043,5200.322754 4648.394043,5209.655273 
	C4648.394043,5218.321289 4648.394043,5226.987793 4648.394043,5235.653809 
	C4648.394043,5244.986816 4648.394043,5254.319336 4648.394043,5263.652344 
	C4648.394043,5272.985352 4648.394043,5282.317871 4648.394043,5291.650879 
	C4648.394043,5300.316895 4648.425781,5308.982910 4648.385254,5317.648926 
	C4648.341797,5326.875977 4648.229492,5336.103516 4648.138672,5346.280762 
	C4643.170898,5346.998047 4639.398926,5348.011719 4635.625977,5348.017578 
	C4570.963379,5348.117188 4506.300293,5348.104980 4441.637695,5348.059082 
	C4437.750488,5348.056152 4433.863770,5347.562012 4428.873535,5347.220703 
	C4428.353516,5342.619141 4427.728027,5338.842773 4427.548828,5335.044922 
	C4427.329590,5330.388672 4427.474609,5325.714355 4427.474609,5321.047852 
	C4427.473145,4601.089844 4427.471680,3881.132080 4427.498535,3161.174072 
	C4427.499023,3153.311035 4427.876465,3145.447998 4428.037109,3139.170410 
	C4429.875000,3137.180664 4430.252441,3136.567383 4430.800781,3136.236572 
	C4431.339844,3135.910645 4432.047363,3135.751465 4432.689453,3135.724854 
	C4438.671387,3135.473145 4444.655273,3135.067871 4450.638184,3135.075684 
	C4521.292480,3135.170654 4591.946777,3135.322266 4662.601074,3135.528320 
	C4663.799316,3135.531738 4664.995117,3136.394531 4667.714355,3137.443604 
	C4668.108887,3142.490967 4668.933105,3148.253662 4668.949219,3154.018555 
	C4669.063477,3194.682373 4669.013184,3235.346924 4669.013184,3276.011230 
	C4669.013672,3356.674072 4669.013184,3437.337158 4669.013672,3520.000000 
M5175.916504,3905.909912 
	C5159.279785,3905.262451 5142.638184,3903.956055 5126.007324,3904.080566 
	C5050.424805,3904.646729 4979.646973,3923.431885 4914.736328,3962.386963 
	C4837.104980,4008.976318 4775.973633,4071.978027 4731.201660,4150.677734 
	C4694.531738,4215.135742 4673.112793,4284.917480 4660.168457,4357.549316 
	C4649.379395,4418.085449 4645.440918,4479.229492 4645.212891,4540.605957 
	C4645.109375,4568.578613 4646.574707,4596.561523 4647.501465,4624.533691 
	C4649.513184,4685.244629 4656.550781,4745.368652 4667.979980,4805.040039 
	C4685.529785,4896.671875 4722.828125,4978.590332 4785.073242,5048.789551 
	C4825.784668,5094.703613 4872.218750,5132.973633 4927.783203,5159.590820 
	C4990.290039,5189.534180 5056.404297,5201.756348 5125.480957,5200.942383 
	C5215.665039,5199.878906 5297.183105,5172.980469 5370.083008,5120.305664 
	C5460.963379,5054.636719 5523.774902,4968.141113 5559.962891,4862.065918 
	C5586.424805,4784.497559 5599.195312,4704.392090 5603.119629,4622.923340 
	C5606.713379,4548.319824 5605.706543,4473.713379 5596.659668,4399.353516 
	C5590.692383,4350.306152 5581.780273,4301.917480 5567.738281,4254.550781 
	C5542.489746,4169.383301 5501.396973,4093.523682 5437.053711,4031.052002 
	C5364.886719,3960.983643 5280.460938,3916.781738 5175.916504,3905.909912 
z"/>
<path fill="#231f20" opacity="1.000000" stroke="none" 
	d="
M2482.730957,1554.704346 
	C2560.573975,1489.324951 2649.137207,1453.251221 2748.668945,1443.041748 
	C2819.685547,1435.757324 2889.870117,1439.525391 2958.407471,1459.935425 
	C3073.766846,1494.288696 3162.949219,1563.316040 3225.248291,1666.387817 
	C3244.966553,1699.010742 3258.148193,1734.618652 3269.046875,1771.111206 
	C3286.477295,1829.476685 3294.947266,1889.322876 3300.145508,1950.842651 
	C3296.030518,1951.610840 3292.339844,1952.631592 3288.593506,1952.914795 
	C3283.955566,1953.265381 3279.271484,1953.006714 3274.607178,1953.006714 
	C2959.436768,1953.007080 2644.266113,1953.011475 2329.095703,1952.980713 
	C2321.265381,1952.979858 2313.435059,1952.588623 2304.367920,1952.346436 
	C2304.367920,1947.221191 2304.160889,1943.396240 2304.399170,1939.599121 
	C2308.001221,1882.217529 2317.037109,1825.862061 2335.627930,1771.232788 
	C2364.631836,1686.003418 2412.900391,1613.896484 2482.730957,1554.704346 
M2833.372070,1484.035278 
	C2817.383301,1484.036621 2801.394287,1483.987183 2785.406006,1484.067993 
	C2780.084961,1484.094971 2774.706787,1484.026733 2769.456543,1484.745483 
	C2753.696533,1486.902832 2737.998779,1489.509888 2722.254883,1491.791138 
	C2687.784668,1496.786011 2654.683838,1507.026733 2622.940674,1520.765259 
	C2586.872070,1536.375488 2552.600342,1555.683594 2522.304443,1581.102173 
	C2507.042969,1593.906860 2491.987549,1607.105957 2478.103271,1621.358398 
	C2466.094238,1633.686035 2455.248047,1647.291992 2444.980957,1661.143188 
	C2418.687256,1696.615723 2397.598389,1734.873779 2382.808350,1776.727417 
	C2371.459473,1808.842163 2363.398438,1841.666504 2357.222656,1875.023193 
	C2355.321777,1885.291382 2353.841797,1895.916504 2358.482178,1905.993652 
	C2367.628662,1909.370361 2376.353760,1908.032349 2384.885010,1908.034546 
	C2662.693359,1908.105103 2940.501709,1908.093018 3218.310059,1908.090820 
	C3223.639648,1908.090820 3228.984131,1908.300903 3234.293457,1907.965332 
	C3238.119141,1907.723755 3241.897705,1906.736694 3245.472900,1906.120728 
	C3248.964600,1898.868042 3248.717773,1892.091431 3247.296387,1885.710938 
	C3241.089600,1857.847290 3237.139648,1829.551514 3229.677490,1801.898315 
	C3220.976074,1769.652710 3210.208740,1738.189453 3195.801025,1708.192261 
	C3179.579590,1674.418945 3157.283447,1644.529053 3131.433350,1617.442017 
	C3117.663574,1603.013916 3103.901123,1588.465210 3087.312500,1577.080322 
	C3069.785156,1565.051270 3052.989258,1551.687866 3034.481689,1541.415405 
	C3003.662109,1524.309204 2971.883789,1509.196289 2937.218994,1500.531372 
	C2904.243652,1492.288940 2870.932617,1487.123291 2833.372070,1484.035278 
z"/>
<path fill="#231f20" opacity="1.000000" stroke="none" 
	d="
M5177.712891,3906.196289 
	C5280.460938,3916.781738 5364.886719,3960.983643 5437.053711,4031.052002 
	C5501.396973,4093.523682 5542.489746,4169.383301 5567.738281,4254.550781 
	C5581.780273,4301.917480 5590.692383,4350.306152 5596.659668,4399.353516 
	C5605.706543,4473.713379 5606.713379,4548.319824 5603.119629,4622.923340 
	C5599.195312,4704.392090 5586.424805,4784.497559 5559.962891,4862.065918 
	C5523.774902,4968.141113 5460.963379,5054.636719 5370.083008,5120.305664 
	C5297.183105,5172.980469 5215.665039,5199.878906 5125.480957,5200.942383 
	C5056.404297,5201.756348 4990.290039,5189.534180 4927.783203,5159.590820 
	C4872.218750,5132.973633 4825.784668,5094.703613 4785.073242,5048.789551 
	C4722.828125,4978.590332 4685.529785,4896.671875 4667.979980,4805.040039 
	C4656.550781,4745.368652 4649.513184,4685.244629 4647.501465,4624.533691 
	C4646.574707,4596.561523 4645.109375,4568.578613 4645.212891,4540.605957 
	C4645.440918,4479.229492 4649.379395,4418.085449 4660.168457,4357.549316 
	C4673.112793,4284.917480 4694.531738,4215.135742 4731.201660,4150.677734 
	C4775.973633,4071.978027 4837.104980,4008.976318 4914.736328,3962.386963 
	C4979.646973,3923.431885 5050.424805,3904.646729 5126.007324,3904.080566 
	C5142.638184,3903.956055 5159.279785,3905.262451 5177.712891,3906.196289 
M4707.879883,4353.911621 
	C4702.644531,4385.995605 4695.395020,4417.824219 4695.777344,4450.618652 
	C4695.815918,4453.928711 4695.261230,4457.248535 4694.942383,4460.559570 
	C4693.987793,4470.450684 4692.251465,4480.333984 4692.179688,4490.229980 
	C4691.876465,4532.215332 4692.054199,4574.204590 4692.088867,4616.192383 
	C4692.093262,4621.522461 4691.208496,4627.148438 4692.577637,4632.131348 
	C4699.004883,4655.528320 4693.822754,4679.884766 4699.458984,4703.492188 
	C4703.125488,4718.846680 4702.389160,4735.195312 4704.811523,4750.916016 
	C4709.568359,4781.791992 4716.155273,4812.345703 4724.479980,4842.455078 
	C4732.650879,4872.011230 4741.768066,4901.652832 4756.816406,4928.256836 
	C4786.060547,4979.958008 4820.781250,5027.544434 4867.196777,5066.025391 
	C4894.579102,5088.725586 4923.835449,5108.034668 4955.629395,5123.354004 
	C4971.117676,5130.817383 4987.941406,5135.809570 5004.541992,5140.600098 
	C5036.530762,5149.832520 5069.012695,5156.640137 5102.614258,5156.112305 
	C5115.274414,5155.913574 5127.940918,5155.954102 5140.602539,5156.083984 
	C5165.426270,5156.337891 5189.722168,5151.852051 5213.278809,5145.107422 
	C5245.857422,5135.779297 5277.815430,5124.925781 5307.389648,5107.064941 
	C5329.731445,5093.572266 5351.713867,5079.520996 5370.813477,5062.265625 
	C5407.845703,5028.809082 5442.654785,4993.190918 5468.703613,4949.693848 
	C5491.101562,4912.292480 5508.661133,4872.943848 5521.848145,4831.657715 
	C5540.315918,4773.837402 5549.291504,4714.028320 5555.514648,4653.863770 
	C5557.626953,4633.442383 5555.164551,4612.604980 5559.797363,4592.284180 
	C5558.413086,4557.757812 5563.409668,4523.033203 5556.525391,4488.665039 
	C5555.879883,4485.444824 5556.117188,4482.016113 5556.187012,4478.689453 
	C5556.818359,4448.679199 5552.454102,4419.147461 5548.796875,4389.457031 
	C5544.967773,4358.371582 5539.095215,4327.797852 5531.576172,4297.485840 
	C5521.460938,4256.707031 5508.448242,4216.913574 5489.555176,4179.254395 
	C5477.299316,4154.825195 5463.228027,4131.359375 5446.402832,4109.893066 
	C5430.833496,4090.030029 5414.496094,4070.620361 5395.511230,4053.764648 
	C5390.056641,4048.921631 5383.669434,4045.089111 5378.448242,4040.031006 
	C5358.626953,4020.825684 5335.297852,4006.781738 5311.360840,3993.597168 
	C5285.002930,3979.078613 5257.351562,3967.991943 5228.139648,3960.349365 
	C5200.981934,3953.244385 5173.436523,3949.367188 5145.568359,3948.274902 
	C5126.369629,3947.522461 5107.193848,3947.975098 5087.883301,3951.031982 
	C5073.515137,3953.306152 5058.822266,3954.499756 5044.705078,3958.027344 
	C5011.711426,3966.270508 4980.170898,3978.129150 4950.007812,3994.392822 
	C4925.189453,4007.774902 4901.413574,4022.650635 4881.098145,4041.693848 
	C4845.232910,4075.312500 4809.131836,4108.854492 4783.565430,4151.988281 
	C4767.559082,4178.992676 4752.693359,4206.577637 4741.211426,4235.558105 
	C4726.513672,4272.652832 4715.392090,4311.097656 4707.879883,4353.911621 
z"/>
</svg>