<?xml version="1.0" standalone="no"?>
<!DOCTYPE svg PUBLIC "-//W3C//DTD SVG 20010904//EN"
 "http://www.w3.org/TR/2001/REC-SVG-20010904/DTD/svg10.dtd">
<svg version="1.0" xmlns="http://www.w3.org/2000/svg"
 width="1024.000000pt" height="1024.000000pt" viewBox="0 0 1024.000000 1024.000000"
 preserveAspectRatio="xMidYMid meet">
<metadata>
Created by potrace 1.14, written by Peter Selinger 2001-2017
</metadata>
<g transform="translate(0.000000,1024.000000) scale(0.100000,-0.100000)"
fill="#000000" stroke="none">
<path d="M0 5120 l0 -5120 5120 0 5120 0 0 5120 0 5120 -5120 0 -5120 0 0
-5120z m1950 1401 c0 -677 4 -1232 8 -1235 5 -3 25 17 44 45 19 28 492 583
1049 1235 l1014 1183 384 1 384 0 -20 -22 c-362 -399 -2223 -2493 -2221 -2499
2 -5 530 -606 1173 -1335 644 -730 1183 -1342 1198 -1360 l28 -34 -428 0 -428
0 -1040 1232 c-572 677 -1060 1258 -1083 1290 -24 32 -48 58 -53 58 -5 0 -9
-530 -9 -1290 l0 -1290 -305 0 -305 0 0 2625 0 2625 305 0 305 0 0 -1229z
m3920 64 l0 -1155 1358 2 1357 3 3 1153 2 1152 305 0 305 0 0 -2625 0 -2625
-305 0 -305 0 0 1200 0 1200 -1360 0 -1360 0 0 -1200 0 -1200 -305 0 -305 0 0
2625 0 2625 305 0 305 0 0 -1155z"/>
</g>
</svg>
