<?xml version="1.0" standalone="no"?>
<!DOCTYPE svg PUBLIC "-//W3C//DTD SVG 20010904//EN"
 "http://www.w3.org/TR/2001/REC-SVG-20010904/DTD/svg10.dtd">
<svg version="1.0" xmlns="http://www.w3.org/2000/svg"
 width="776.000000pt" height="776.000000pt" viewBox="0 0 776.000000 776.000000"
 preserveAspectRatio="xMidYMid meet">
<metadata>
Created by potrace 1.14, written by Peter Selinger 2001-2017
</metadata>
<g transform="translate(0.000000,776.000000) scale(0.100000,-0.100000)"
fill="#000000" stroke="none">
<path d="M384 3945 l1 -2110 313 0 312 0 0 729 0 728 104 102 c57 55 199 194
316 309 l213 207 25 -37 c14 -21 28 -40 31 -43 3 -3 11 -12 16 -21 6 -9 39
-58 75 -109 36 -51 70 -100 75 -108 6 -9 15 -23 22 -31 7 -9 91 -128 187 -266
96 -137 179 -254 183 -260 5 -5 29 -39 53 -75 25 -36 49 -69 53 -75 5 -5 55
-77 113 -160 58 -82 111 -158 119 -168 8 -9 15 -19 15 -21 0 -3 43 -64 95
-138 52 -73 99 -140 105 -148 42 -63 228 -325 258 -365 l38 -50 402 0 c256 0
402 4 402 10 -1 6 -31 51 -68 100 -37 50 -69 94 -71 100 -2 5 -9 15 -15 21 -6
6 -29 37 -51 68 -22 32 -50 68 -62 81 -13 13 -23 27 -23 30 0 8 -113 159 -122
163 -5 2 -8 10 -8 17 0 7 -3 15 -8 17 -4 2 -32 37 -62 78 -30 41 -59 80 -65
87 -5 6 -21 28 -35 48 -14 19 -50 68 -80 109 -30 40 -62 84 -70 96 -8 13 -24
35 -36 49 -11 14 -89 121 -174 236 -85 116 -158 212 -162 213 -5 2 -8 8 -8 13
0 5 -30 49 -67 98 -38 49 -76 100 -85 112 -45 64 -180 246 -193 262 -8 9 -15
20 -15 23 0 4 -18 28 -40 54 -22 26 -40 52 -40 58 0 6 -3 12 -8 14 -7 3 -122
155 -172 228 -13 19 -27 37 -30 40 -9 8 -50 67 -50 73 0 3 6 12 14 19 27 27
421 406 499 482 111 106 474 457 605 584 59 57 179 173 267 257 330 318 386
373 378 377 -4 2 -196 4 -426 4 l-417 -1 -994 -992 c-547 -546 -997 -993
-1000 -993 -3 0 -6 447 -6 993 l0 992 -313 0 -313 0 0 -2110z"/>
<path d="M4013 6047 c-6 -10 -6 -4194 0 -4204 3 -4 144 -8 314 -8 l308 0 0
973 c0 965 0 973 20 977 11 2 477 3 1035 2 l1015 -2 0 -967 c1 -532 4 -971 8
-975 8 -8 616 -11 618 -3 1 3 2 951 3 2108 1 1395 -2 2102 -9 2103 -5 1 -146
2 -312 3 -263 1 -303 -1 -304 -14 -1 -8 -2 -391 -2 -850 l-2 -835 -1032 0
c-682 0 -1033 3 -1034 10 -1 5 -2 388 -3 849 l-1 840 -308 1 c-170 0 -311 -3
-314 -8z"/>
</g>
</svg>
